<?xml version="1.0" encoding="UTF-8" standalone="no"?>
<svg
   width="637.54376"
   height="570.82397"
   viewBox="0 0 637.54376 570.82397"
   version="1.1"
   xml:space="preserve"
   style="clip-rule:evenodd;fill-rule:evenodd;stroke-linejoin:round;stroke-miterlimit:1.41421"
   id="svg18"
   sodipodi:docname="Brain.svg"
   inkscape:version="1.1.1 (3bf5ae0d25, 2021-09-20)"
   xmlns:inkscape="http://www.inkscape.org/namespaces/inkscape"
   xmlns:sodipodi="http://sodipodi.sourceforge.net/DTD/sodipodi-0.dtd"
   xmlns="http://www.w3.org/2000/svg"
   xmlns:svg="http://www.w3.org/2000/svg"><sodipodi:namedview
     id="namedview20"
     pagecolor="#ffffff"
     bordercolor="#666666"
     borderopacity="1.0"
     inkscape:pageshadow="2"
     inkscape:pageopacity="0.0"
     inkscape:pagecheckerboard="0"
     showgrid="false"
     fit-margin-top="0"
     fit-margin-left="0"
     fit-margin-right="0"
     fit-margin-bottom="0"
     inkscape:zoom="0.719"
     inkscape:cx="315.02086"
     inkscape:cy="427.67733"
     inkscape:window-width="1920"
     inkscape:window-height="1013"
     inkscape:window-x="-9"
     inkscape:window-y="29"
     inkscape:window-maximized="1"
     inkscape:current-layer="svg18" /><rect
     id="Brain_2"
     x="-181.21533"
     y="-214.588"
     width="1000"
     height="1000"
     style="fill:none" /><path
     d="m 495.15866,570.824 h -78.048 c -3.228,-0.141 -3.384,-0.261 -5.657,-2.344 l -69.585,-69.585 c -2.183,-2.383 -2.209,-2.578 -2.343,-5.657 v -47.881 c 0.292,-6.326 8.422,-10.441 13.389,-5.913 1.595,1.454 2.458,2.603 2.611,5.913 v 44.567 l 64.899,64.9 h 71.421 l 25.309,-25.31 c -12.886,-15.13 -3.986,-45.321 20.233,-45.779 0.354,-0.003 0.354,-0.003 0.708,0 18.138,0.343 33.005,21.75 24.46,39.474 -5.341,11.078 -18.919,16.685 -30.921,14.453 l -30.819,30.818 c -2.382,2.183 -2.577,2.209 -5.657,2.344 z M 246.93666,0.002 c 38.05,0.36 73.035,32.93 73.425,73.425 0.421,141.323 0.421,282.647 0,423.97 -0.28,29.048 -19.147,56.988 -45.972,67.957 -41.918,17.141 -97.247,-11.874 -101.577,-62.261 -39.584,7.719 -83.527996,-11.212 -105.094996,-46.21 -12.254,-19.887 -17.163,-43.951 -13.908,-67.188 0,0 -8.403,-6.307 -14.357,-11.963 -33.877,-32.184 -47.832,-83.551 -34.39,-128.684 8.088,-27.154 25.57,-51.307 48.73,-67.726 0,0 -0.924,-7.471 -0.997,-13.312 -0.582,-47.133 35.806,-92.091 82.995996,-100.531 12.189,-2.18 24.765,-2.079 36.976,0.244 0,0 0.619,-5.884 1.684,-10.496 7.309,-31.64 37.261,-56.472 70.581,-57.213 0.635,-0.01 1.269,-0.014 1.904,-0.012 z m -58.278,493.301 0.007,0.058 c 0.159,1.437 -0.182,6.693 0.358,10.938 3.37,26.486 27.314,48.9 54.083,50.429 30.92,1.766 60.736,-24.575 61.252,-57.058 1.363,-141.374 0.425,-282.762 0.003,-424.142 -0.287,-29.855 -25.809,-57.226 -57.526,-57.526 -0.25,-10e-4 -0.5,-10e-4 -0.75,0 -30.3,0.287 -57.759,26.697 -57.514,58.677 0.42,3.263 0.676,6.829 1.504,10.018 2.7,10.396 9.584,19.38 18.104,26.083 0,0 6.12,8.862 -0.748,13.097 -2.76,1.701 -6.477,1.477 -9.145,-0.522 -0.502,-0.396 -0.502,-0.395 -1.001,-0.794 -11.878,-9.65 -20.356,-23.028 -23.429,-37.958 -2.403,-0.631 -5.026,-1.379 -7.573,-1.761 -34.411,-5.155 -71.049996,13.226 -87.497996,43.933 -8.767,16.365 -11.816,35.632 -8.841,53.939 0.929,5.713 3.826,12.497 7.311,18.871 7.551,13.812 20.138,25.305 36.417996,28.228 0,0 2.477,0.606 3.951,1.939 5.154,4.659 1.265,15.381 -8.133,13.555 -23.098996,-4.658 -41.397996,-22.879 -50.846996,-45.627 -18.14,14.278 -31.864,34.188 -38.372,56.356 -12.429,42.339 3.022,91.027 38.325,119.052 9.228,-22.117 26.914,-40.971 51.662996,-45.596 0,0 0.312,-0.289 2.454,-0.181 7.803,0.792 10.589,13.862 -0.613,16.122 -21.112996,4.414 -36.316996,24.677 -41.953996,45.105 -0.368,3.29 -0.987,6.875 -1.195,10.216 -2.559,41.279 28.623,82.04 70.700996,89.021 7.63,1.265 15.436,1.483 23.125,0.657 3.532,-0.379 7.037,-0.987 10.494,-1.807 2.46,-16.203 11.375,-31.102 24.522,-41.531 1.65,-1.309 3.577,-2.123 5.732,-2.094 6.92,0.417 10.245,9.722 3.394,15.288 -10.503,8.672 -17.492,21.041 -18.262,35.015 z m 348.932,6.431 c -8.129,0.154 -14.471,10.689 -9.34,18.088 5.613,8.093 23.123,4.14 20.845,-8.602 -0.945,-5.286 -5.946,-9.523 -11.505,-9.486 z m -129.241,-66.247 v -27.721 c 0.059,-2.118 0.875,-4.104 2.343,-5.657 l 33.609,-33.61 c 1.708,-1.61 3.935,-2.453 6.355,-2.312 3.71,0.433 4.226,1.468 5.279,2.651 2.722,3.059 2.904,7.558 -0.32,10.975 l -31.266,31.267 v 24.575 c 14.334,5.081 24.118,22.914 16.814,38.064 -7.451,15.456 -30.939,20.262 -43.811,7.988 -13.486,-12.861 -8.113,-40.082 10.997,-46.22 z m 193.9,-117.698 c -4.042,-1.05 -7.839,-3.033 -10.996,-6.043 -15.144,-14.438 -6.511,-46.983 18.642,-47.462 0.354,-0.002 0.354,-0.002 0.707,0 18.158,0.346 33.005,21.751 24.461,39.474 -3.269,6.78 -9.624,11.511 -16.814,13.649 v 87.713 c -0.141,3.228 -0.261,3.384 -2.344,5.657 l -60.392,60.393 c -2.382,2.182 -2.578,2.208 -5.657,2.343 h -70.658 c -4.802,-0.21 -5.928,-2.268 -6.928,-4 -2.772,-4.801 -0.027,-11.697 6.928,-12 h 67.344 l 55.707,-55.707 z m -186.051,132.455 c -9.847,0.189 -16.387,17.063 -4.331,22.167 8.266,3.5 19.709,-6.211 14.759,-15.875 -1.946,-3.798 -6.038,-6.319 -10.428,-6.292 z m -212.71,-99.028 c 1.24,0.126 1.441,0.222 1.98,0.407 2.899,0.989 4.834,3.733 5.423,6.885 0.067,0.347 0.067,0.347 0.137,0.693 1.649,7.897 5.315,15.296 10.651,21.424 9.018,10.356 21.63,17.1 34.868,20.644 0,0 5.713,2.339 6.17,7.024 0.512,5.253 -5.018,9.86 -10.578,8.359 -25.964,-7.01 -50.269,-25.542 -56.491,-52.876 -1.266,-5.564 0.723,-12.108 6.625,-12.559 0.783,-0.06 0.966,-0.013 1.215,-10e-4 z m 275.523,-56.969 c -0.382,1.327 -0.883,2.644 -1.508,3.941 -7.452,15.456 -30.936,20.26 -43.809,7.988 -15.149,-14.44 -6.514,-46.983 18.641,-47.462 0.354,-0.002 0.353,-0.002 0.708,0 11.43,0.217 21.556,8.788 25.35,19.533 h 15.091 c 0.174,0.006 0.349,0.012 0.523,0.017 2.876,0.283 3.561,0.854 5.134,2.326 l 25.871,25.872 c 1.44,1.537 2.274,3.53 2.343,5.657 v 73.406 c -0.163,4.672 -1.496,5.071 -3.074,6.304 -4.693,3.666 -12.682,0.677 -12.926,-6.304 v -70.093 l -21.185,-21.185 z m -130.702,-127.254 c 3.98,0.591 7.015,3.878 7.216,7.962 v 197.51 c -0.312,6.339 -8.908,10.407 -13.657,5.657 -1.42,-1.42 -2.185,-2.435 -2.343,-5.657 v -197.51 c 0.223,-4.538 3.943,-8.199 8.784,-7.962 z m 261.789,113.29 c -9.848,0.187 -16.385,17.065 -4.332,22.166 8.269,3.5 19.722,-6.185 14.759,-15.875 -1.945,-3.798 -6.035,-6.319 -10.427,-6.291 z m -157.56,-5.57 c -9.876,0.188 -16.276,17.111 -4.332,22.166 8.416,3.562 19.98,-6.557 14.563,-16.242 -2.039,-3.646 -5.79,-5.952 -10.231,-5.924 z m -263.032,-3.465 c 10.238,0.067 20.522,3.301 28.046,10.396 4.76,4.489 2.129,14.286 -5.289,14.15 -4.274,-0.078 -7.11,-4.306 -11.061,-6.161 -9.788,-4.598 -21.322,-2.31 -30.871,1.416 0,0 -4.289,1.147 -7.197,-0.699 -4.951,-3.143 -4.504,-11.937 1.747,-14.349 0.286,-0.111 0.572,-0.219 0.86,-0.325 7.601,-2.808 15.635,-4.446 23.765,-4.428 z m 374.182,-181.989 c 2.999,0.395 3.11,0.618 4.959,2.313 l 41.944,41.944 c 2.183,2.382 2.209,2.577 2.343,5.656 v 74.423 c -0.141,3.228 -0.261,3.384 -2.343,5.657 l -51.872,51.871 c -8.45,8.096 -20.235,-2.221 -11.313,-11.313 l 49.528,-49.529 v -67.795 l -37.257,-37.257 h -12.647 c 0,0 -7.163,-1.278 -7.928,-6.926 -0.607,-4.481 3.241,-8.864 7.928,-9.074 h 15.96 c 0.233,0.01 0.465,0.02 0.698,0.03 z m -167.31,66.931 c -4.041,-1.05 -7.837,-3.033 -10.995,-6.043 -15.149,-14.44 -6.514,-46.983 18.641,-47.462 0.354,-0.003 0.354,-0.003 0.709,0 18.147,0.345 33.006,21.747 24.46,39.474 -3.27,6.78 -9.624,11.51 -16.815,13.648 v 24.855 l 31.267,31.266 c 0,0 1.928,2.244 2.259,4.498 0.94,6.423 -7.559,12.49 -13.573,6.816 l -33.609,-33.61 c -1.455,-1.538 -2.285,-3.55 -2.344,-5.656 z m -193.058,3.531 c 1.915,0.153 3.771,0.831 5.637,1.42 19.796,6.252 38.227,18.556 47.83,37.443 2.937,5.776 5.458,12.032 5.944,18.391 0.438,5.723 -6.826,10.947 -12.377,7.291 -3.344,-2.203 -3.597,-6.92 -4.837,-10.996 -4.854,-15.95 -19.298,-27.965 -34.328,-34.279 -3.208,-1.348 -6.501,-2.504 -9.86,-3.418 0,0 -5.679,-2.127 -6.358,-6.684 -0.676,-4.532 3.12,-9.077 7.944,-9.18 0.135,0.004 0.27,0.008 0.405,0.012 z M 416.81166,16 l -63.717,61.793 c -9.399,7.746 -20.05,-2.525 -11.139,-11.486 l 66.045,-64.049 c 2.366,-2.107 2.55,-2.128 5.569,-2.258 h 38.799 c 0.227,0.01 0.453,0.02 0.68,0.029 2.931,0.376 3.043,0.598 4.862,2.201 l 50.355,48.361 c 1.47,1.53 2.333,2.646 2.459,5.77 v 35.037 c 14.327,5.081 24.117,22.915 16.814,38.064 -7.452,15.456 -30.937,20.259 -43.81,7.989 -13.474,-12.844 -8.112,-40.084 10.996,-46.222 V 59.769 L 449.14966,16 Z m -12.583,100.684 c -9.876,0.188 -16.277,17.11 -4.332,22.166 8.415,3.562 19.979,-6.557 14.562,-16.242 -2.039,-3.646 -5.804,-5.953 -10.23,-5.924 z m 98.73,-10.694 c -0.206,0.009 -0.412,0.01 -0.616,0.004 -9.759,0.443 -15.954,17.141 -4.1,22.159 8.413,3.563 19.979,-6.557 14.562,-16.242 -1.98,-3.54 -5.574,-5.817 -9.846,-5.921 z"
     style="fill:url(#_Linear1)"
     id="path9" /><defs
     id="defs16"><linearGradient
       id="_Linear1"
       x1="0"
       y1="0"
       x2="1"
       y2="0"
       gradientUnits="userSpaceOnUse"
       gradientTransform="matrix(637.544,0,0,570.823,-3.359573e-4,285.412)"><stop
         offset="0"
         style="stop-color:#0ff;stop-opacity:1"
         id="stop11" /><stop
         offset="1"
         style="stop-color:#f0f;stop-opacity:1"
         id="stop13" /></linearGradient></defs></svg>
