<?xml version="1.0" encoding="UTF-8" standalone="no"?>
<!-- Created with Inkscape (http://www.inkscape.org/) by Marsupilami -->

<svg
   version="1.0"
   width="280.10242"
   height="419.96637"
   viewBox="0 0 35.354445 53.063603"
   id="svg2320"
   sodipodi:docname="sas.svg"
   inkscape:version="1.1.1 (3bf5ae0d25, 2021-09-20)"
   xmlns:inkscape="http://www.inkscape.org/namespaces/inkscape"
   xmlns:sodipodi="http://sodipodi.sourceforge.net/DTD/sodipodi-0.dtd"
   xmlns="http://www.w3.org/2000/svg"
   xmlns:svg="http://www.w3.org/2000/svg">
  <sodipodi:namedview
     id="namedview6"
     pagecolor="#ffffff"
     bordercolor="#666666"
     borderopacity="1.0"
     inkscape:pageshadow="2"
     inkscape:pageopacity="0.0"
     inkscape:pagecheckerboard="0"
     showgrid="false"
     fit-margin-top="0"
     fit-margin-left="0"
     fit-margin-right="0"
     fit-margin-bottom="0"
     inkscape:zoom="1.3085938"
     inkscape:cx="168.50149"
     inkscape:cy="209.76716"
     inkscape:window-width="1920"
     inkscape:window-height="1013"
     inkscape:window-x="-9"
     inkscape:window-y="29"
     inkscape:window-maximized="1"
     inkscape:current-layer="svg2320" />
  <defs
     id="defs2322" />
  <g
     transform="translate(-310.38604,-505.82323)"
     id="layer1">
    <path
       d="M 18.46875,0 C 16.638866,-0.04137724 14.748438,0.1725 12.8125,0.65625 3.86,2.8925 -6.16125,14.40875 4.78125,27.6875 l 6.53125,7.90625 1.84375,2.25 c 1.2375,1.47125 3.2625,1.445 4.75,0.21875 1.495,-1.232502 1.92,-3.25375 0.6875,-4.75 -0.0016,-0.0021 -0.522629,-0.632748 -0.75,-0.90625 H 17.875 c -0.472064,-0.567889 -0.574527,-0.663123 -1.0625,-1.25 C 14.448752,28.313409 11.75,25.03125 11.75,25.03125 6.9987503,19.265 9.11875,12.14125 15.5625,8.09375 21.24,4.5275001 31.65875,5.80125 35.25,11.65625 32.988202,4.9805465 26.398246,0.17930136 18.46875,0 Z m 1.3125,13.9375 c -0.844219,-0.02875 -1.725625,0.293125 -2.46875,0.90625 -1.497499,1.23375 -1.91875,3.2575 -0.6875,4.75 0.0025,0.0038 0.15125,0.18875 0.40625,0.5 2.832364,3.402907 6.59375,7.96875 6.59375,7.96875 4.7525,5.76625 2.63125,12.85875 -3.8125,16.90625 -5.676249,3.565 -16.09625,2.28875 -19.6875,-3.5625 2.78375,8.212501 12.11375,13.58125 22.4375,11 8.955,-2.240002 18.97375,-13.72375 8.03125,-27 l -7.65625,-9.25 -0.875,-1.09375 c -0.61875,-0.735625 -1.437031,-1.09625 -2.28125,-1.125 z"
       transform="translate(310.37551,505.82825)"
       style="fill:#007cc2;fill-opacity:1;fill-rule:nonzero;stroke:none"
       id="path2440" />
  </g>
</svg>
