<?xml version="1.0" encoding="UTF-8"?>
<!-- Created with Inkscape (http://www.inkscape.org/) -->
<svg width="606.71mm" height="252.38mm" version="1.1" viewBox="0 0 606.71 252.38" xmlns="http://www.w3.org/2000/svg">
 <defs>
  <clipPath id="clipPath412">
   <path d="m6470.8 4017.8c-19.27 0-35.75 24-43.72 44.4-119.55 306.3-173.52 636.4-259.02 953.7 18.26 12 36.75 23.6 55.45 34.8 87.7-324.1 207.33-643.6 272.01-973.4 4.13-21 4.82-48.7-14.78-57.4-3.37-1.5-6.69-2.1-9.94-2.1m-352.18 1166.9c-15.87 49.5-32.95 98.5-51.67 146.8 26.74 17.9 54.01 35 81.73 51.3 9.44-55.4 20.61-110.5 33.11-165.4-21.26-10.5-42.33-21.4-63.17-32.7m-120.8 305.9c-9.22 18.9-18.78 37.7-28.69 56.3-29.88 56.1-63.76 113.7-64.86 177.3-0.97 56.3 48.89 139.2 112.7 139.2 5.85 0 11.81-0.7 17.85-2.2 72.88-17.7 80.5-136.9 82.92-194.7 1.54-36.8 4.11-73.4 7.61-109.9-43.33-20.4-85.93-42.3-127.53-66"/>
  </clipPath>
 </defs>
 <g transform="translate(325.23 -180.31)">
  <g>
   <path d="m54.4 351.49-18.521-24.077-106.43 2.0743s-3.4075 0.06-7.9206 8.1174c-3.1697 5.6621-4.8994 25.481-4.8994 25.481l137.78-11.596" fill="#788c61"/>
   <path d="m50.795 332.49-17.311-26.12h-65.093s-3.4678 0.34572-5.032 2.0814c-1.5642 1.7357-6.386 31.302-6.386 31.302l93.822-7.2637" fill="#dd5a31"/>
   <path d="m-21.873 401.28h-303.35l40.32-31.704h526.07l40.319 31.704h-303.35" fill="#9b785d"/>
   <path d="m-168.81 255.03s-3.8576 21.915-4.6824 23.103c-0.82479 1.1853 22.248 94.386 22.248 94.386l19.963 17.836-37.528-135.33" fill="#4c3434"/>
   <path d="m281.48 401.28h-606.71v31.408h606.71v-31.408" fill="#cca079"/>
   <path d="m-260.88 392.37s-5.3566 4.064-14.012 4.064c-11.902 0-16.68-4.064-16.68-4.064v-208.06s5.2042-4.004 15.346-4.004c11.226 0 15.346 4.004 15.346 4.004v208.06" fill="#e8e89c"/>
   <path d="m-276.23 180.31c-0.22013 0-0.43427 4e-3 -0.64982 7e-3 4.9315 1.1818 6.9049 3.0974 6.9049 3.0974v208.06s-5.2998 4.0181-13.873 4.064c2.3689 0.52212 5.328 0.89959 8.951 0.89959 8.6558 0 14.012-4.064 14.012-4.064v-208.06s-4.1201-4.004-15.346-4.004" fill="#cecc8d"/>
   <path d="m-88.088 378.38s-6.7014 8.8018-16.909 10.714c-14.7 2.7552-26.281 1.263-26.281 1.263l-37.528-135.33s6.0156-6.7486 20.287-10.707c15.797-4.378 22.903-1.2735 22.903-1.2735l37.528 135.33" fill="#5b3e3e"/>
   <path d="m-148.52 244.32c-2.0951 0.58208-4.0072 1.2241-5.7538 1.8944 11.33-2.0567 16.508 0.20461 16.508 0.20461l39.868 140.11 9.809-8.1527-37.528-135.33s-7.106-3.1044-22.903 1.2735" fill="#4c3434"/>
   <path d="m-121.89 256.5c-8.0518-0.87489-16.306 1.2277-23.984 4.0287-6.2036 2.2684-12.306 5.0306-17.657 8.9464-0.36265 0.26459-0.71684 0.51859-1.0597 0.76906l1.9149 6.9074c1.3617-1.3758 2.8744-2.6211 4.4263-3.7641 9.5088-7.0203 21.128-11.137 32.933-11.677 1.6175-0.0706 3.3059-0.0494 4.9255 0.19756l-1.4997-5.4081" fill="#c69775"/>
   <path d="m-120.39 261.89-1.5-5.4081c-4.2704-0.46567-8.5972-0.0882-12.866 0.78316l1.4799 5.3375c2.6289-0.4833 5.2896-0.78669 7.9601-0.91017 1.6175-0.0741 3.3059-0.0494 4.9258 0.19756" fill="#ad8468"/>
   <path d="m-117.25 273.41-1.5-5.4081c-4.2704-0.46566-8.5972-0.0882-12.865 0.78317l1.4796 5.3375c2.6289-0.47978 5.2896-0.7867 7.9601-0.91017 1.6175-0.0741 3.3059-0.0494 4.9258 0.19756" fill="#ad8468"/>
   <path d="m-118.72 267.91c-8.0518-0.87842-16.306 1.2241-23.984 4.0287-6.2036 2.2648-12.306 5.0271-17.657 8.9429-0.36301 0.26458-0.71719 0.51858-1.0597 0.77258l1.9145 6.9039c1.3621-1.3758 2.8748-2.6176 4.4267-3.7641 9.5084-7.0167 21.127-11.137 32.933-11.673 1.6175-0.0741 3.3062-0.0494 4.9258 0.19755l-1.4997-5.4081" fill="#c69775"/>
   <path d="m-117.25 273.41-1.5-5.4081c-4.2704-0.46566-8.5972-0.0882-12.865 0.78317l1.4796 5.3375c2.6289-0.47978 5.2896-0.7867 7.9601-0.91017 1.6175-0.0741 3.3059-0.0494 4.9258 0.19756" fill="#ad8468"/>
   <path d="m-96.113 372.68-29.249 8.1104-7.6228-27.485s8.1873-3.9229 14.192-5.6162c6.8887-1.9438 15.058-2.4977 15.058-2.4977l7.6225 27.488" fill="#c69775"/>
   <path d="m-103.71 345.29s-2.9129 0.19756-6.7257 0.76906c0.0663 0.13758 0.13159 0.27517 0.19121 0.41275 1.5723 3.5842 2.0503 7.5777 1.76 11.462-0.16651 2.226-0.5842 4.4309-1.2199 6.5687-0.59267 1.9932-1.3592 3.9441-2.4303 5.7221-2.94 4.8895-7.9495 8.1245-13.345 10.149l0.14323 0.51506 29.249-8.1104-7.6228-27.488" fill="#ad8468"/>
  </g>
  <g transform="matrix(.035278 0 0 -.035278 -370 459.88)">
   <g clip-path="url(#clipPath412)">
    <path d="m5903.3 4017.8h597.04v1845.6h-597.04z" fill="#6c5252"/>
   </g>
  </g>
  <g>
   <path d="m-155.97 271.8c-0.73554-1.9015-1.5423-3.7747-2.4388-5.6127 1.4676-0.83609 2.9704-1.6087 4.499-2.3283 0.19685 2.0567 0.4766 4.0993 0.82303 6.1313-0.9779 0.57503-1.9399 1.1783-2.8833 1.8098" fill="#cca283"/>
   <path d="m-152.41 282.93c-0.53904-2.0002-1.1144-3.9899-1.7441-5.9549 0.73519-0.39864 1.4785-0.78317 2.2285-1.1536 0.44768 1.9685 0.94333 3.9264 1.4718 5.8808-0.65969 0.39511-1.312 0.80434-1.9562 1.2277" fill="#cca283"/>
   <path d="m-134.26 338.59c-0.62829 0-1.2629-0.34925-1.6856-0.83608-0.54504-0.62795-0.81421-1.4429-1.0703-2.2331-1.3176-4.0605-2.6352-8.1209-3.9529-12.181-0.37359-1.1536-0.0236-2.8187 1.264-2.8187 0.1905 0 0.40146 0.0388 0.63359 0.11642 1.4379 0.49742 1.7964 3.5384 2.1925 4.7731 1.2262 3.8206 2.4522 7.6412 3.6781 11.462 0.12135 0.381 0.23953 0.80433 0.0579 1.1571-0.11571 0.22578-0.34078 0.381-0.57996 0.4692-0.17498 0.0635-0.35596 0.0917-0.53729 0.0917" fill="#6c5252"/>
   <path d="m175.49 261.05 1.5522 16.104-25.389 101.43-16.605 16.954 36.121-135.03 4.3215 0.5468" fill="#84321f"/>
   <path d="m135.05 395.54s-7.2355 2.5224-13.494 0c-7.7399-3.1221-9.9942-7.0626-9.9942-7.0626l40.442-134.49s5.3904-3.489 13.152-1.1536c8.5901 2.5823 10.336 8.2162 10.336 8.2162l-40.442 134.49" fill="#aa4724"/>
   <path d="m165.16 252.8c-1.3617-0.40922-2.6494-0.635-3.8523-0.73731 5.6586 2.8081 6.9215 6.8792 6.9215 6.8792l-41.406 137.69 8.2303-1.1289 40.442-134.49s-1.7462-5.6339-10.336-8.2197" fill="#993e22"/>
  </g>
  <g fill="#c69775">
   <path d="m162.81 260.8c3.496 0.38453 7.373 1.3229 9.2216 4.3215-0.44097 1.2629-0.80786 2.5506-1.0971 3.8559-0.19756-1.8239-2.2331-2.7552-3.9723-3.3408-2.7658-0.9278-5.5562-1.8627-8.449-2.2366-2.8928-0.37394-5.9372-0.15169-8.5549 1.1395 0.42686-3.168 0.69498-4.004 3.87-4.0993 2.9951-0.0882 6.0007 0.0282 8.9817 0.35983"/>
   <path d="m140.84 373.9c0.37747-1.3088 0.75494-2.6176 1.1324-3.9229 0.067-0.23637 0.13406-0.50448 0.0141-0.71967-0.0917-0.16933-0.2787-0.26458-0.45509-0.34925-6.5934-3.1327-13.921-4.7025-21.22-4.5508-0.19756 4e-3 -0.41628 0.0176-0.56797 0.14463-0.15523 0.12348-0.20814 0.33162-0.254 0.52564-0.32456 1.39-0.7867 2.8258-0.92075 4.2369 1.1359 0.24342 3.0233-0.47272 4.3603-0.42686 2.1131 0.0706 4.2086 0.41275 6.2653 0.91017 1.0301 0.25047 11.804 3.6054 11.645 4.1522"/>
   <path d="m143.28 366.28c0.37748-1.3088 0.75495-2.6141 1.1324-3.9229 0.0706-0.23636 0.13406-0.50447 0.0176-0.71966-0.0952-0.16934-0.28222-0.26459-0.45861-0.34925-6.5899-3.1327-13.921-4.7025-21.22-4.5473-0.19756 4e-3 -0.41628 0.0141-0.56798 0.14111-0.15522 0.127-0.20814 0.33161-0.254 0.52564-0.32455 1.39-0.78669 2.8258-0.92075 4.2369 1.136 0.24342 3.0268-0.46919 4.3603-0.42686 2.1131 0.0706 4.2122 0.41275 6.2653 0.9137 1.0301 0.25047 11.804 3.6019 11.645 4.1487"/>
  </g>
  <path d="m54.4 397.35h-129.28s-10.399-4.3991-10.296-22.641c0.10372-18.341 10.667-23.22 10.667-23.22h128.91v7.7646h-13.522l0.127 30.78h13.395v7.3166" fill="#4f5e40"/>
  <path d="m52.185 390.04h-124.03s-7.4486-2.9528-7.3498-15.194c0.09913-12.308 7.3498-15.586 7.3498-15.586h124.03s-4.4979 5.842-4.8472 15.981c-0.254 7.3448 4.8472 14.799 4.8472 14.799" fill="#f7e4bc"/>
  <g fill="#d1c0a1">
   <path d="m-75.264 366.43h124.06l-0.62794 2.3495z"/>
   <path d="m-76.702 376.22h124.06l0.19756 2.3671z"/>
   <path d="m-75.539 381.11h123.65l0.68792 2.1484z"/>
  </g>
  <g>
   <path d="m-73.316 378.52c-0.18486 4.0464-0.33267 8.2762 1.5543 11.952-2.2401 0.10936-4.3843-1.0513-5.7887-2.6352-1.4048-1.5804-2.1749-3.5419-2.7711-5.4963-1.3631-4.4732-1.9325-9.2745-0.53093-13.737 1.2291-3.9123 5.267-9.5497 10.297-9.8072-2.722 6.0325-2.4617 13.194-2.7605 19.724" fill="#4c3434"/>
   <path d="m50.795 351.75h-87.175s-7.0125-1.8521-6.9427-9.5144c0.06985-7.7047 7.1928-9.7543 7.1928-9.7543h86.925v3.2632h-9.1158l0.08467 12.929h9.0311v3.0762" fill="#aa4724"/>
   <path d="m49.303 348.68h-83.639s-5.0228-1.2418-4.9565-6.3818c0.06703-5.1717 4.9565-6.5476 4.9565-6.5476h83.639s-3.0339 2.4518-3.2702 6.7134c-0.16933 3.0833 3.2702 6.2159 3.2702 6.2159" fill="#f7e4bc"/>
  </g>
  <g fill="#d1c0a1">
   <path d="m-36.641 338.76h83.661l-0.42333 0.98778z"/>
   <path d="m-37.611 342.87h83.661l0.13406 0.99483z"/>
   <path d="m-36.826 344.93h83.38l0.46567 0.90311z"/>
  </g>
  <path d="m-35.327 343.84c-0.12453 1.7004-0.22437 3.4784 1.0481 5.02-1.5106 0.0459-2.9566-0.44097-3.9035-1.1042-0.94721-0.66675-1.4665-1.4887-1.8687-2.3107-0.91934-1.8803-1.3032-3.8947-0.35807-5.7714 0.82868-1.6439 3.5518-4.0111 6.9434-4.1204-1.8352 2.5329-1.6598 5.5421-1.8613 8.2868" fill="#4c3434"/>
  <path d="m23.603 410.07c-0.0388-4.3639 0.4057-8.7207 0.29986-13.085-0.16933-7.2672-0.54328-14.806-6.7204-20.687l-16.849-0.13758c3.3408 1.6828 4.8648 5.6162 5.528 9.2992 1.1571 6.4311 0.57503 13.028 0.68792 19.562 0.11289 6.5299 1.0336 13.346 4.7519 18.718 0.6985-4.2122 2.2437-8.2832 4.5156-11.896 1.5487 4.96 5.4786 9.1158 10.343 10.943-1.965-3.8947-2.5188-8.3538-2.5576-12.718" fill="#aa4724"/>
  <g fill="#afac79">
   <path d="m-266.69 378.11c0 6.0642-3.8403 10.978-8.5774 10.978s-8.5771-4.9142-8.5771-10.978 3.84-10.982 8.5771-10.982 8.5774 4.9177 8.5774 10.982"/>
   <path d="m-273.83 316.17h-6.688v-123.51h6.688v123.51"/>
   <path d="m-273.83 343.01h-6.688v-19.23h6.688v19.23"/>
  </g>
  <path d="m-230.19 392.37s-5.3566 4.064-14.012 4.064c-11.902 0-16.68-4.064-16.68-4.064v-208.06s5.2042-4.004 15.346-4.004c11.226 0 15.346 4.004 15.346 4.004v208.06" fill="#e8e89c"/>
  <path d="m-245.54 180.31c-0.22013 0-0.43462 4e-3 -0.64982 7e-3 4.9315 1.1818 6.9049 3.0974 6.9049 3.0974v208.06s-5.2998 4.0181-13.873 4.064c2.3689 0.52212 5.328 0.89959 8.951 0.89959 8.6558 0 14.012-4.064 14.012-4.064v-208.06s-4.1201-4.004-15.346-4.004" fill="#cecc8d"/>
  <g fill="#afac79">
   <path d="m-236 378.11c0 6.0642-3.8403 10.978-8.5774 10.978-4.7367 0-8.5771-4.9142-8.5771-10.978s3.8403-10.982 8.5771-10.982c4.7371 0 8.5774 4.9177 8.5774 10.982"/>
   <path d="m-244.58 316.17h-5.2483v-123.51h5.2483v123.51"/>
   <path d="m-244.58 343.01h-5.2483v-19.23h5.2483v19.23"/>
  </g>
  <path d="m-199.5 392.37s-5.3566 4.064-14.012 4.064c-11.902 0-16.68-4.064-16.68-4.064v-208.06s5.2042-4.004 15.346-4.004c11.226 0 15.346 4.004 15.346 4.004v208.06" fill="#e8e89c"/>
  <path d="m-214.84 180.31c-0.22014 0-0.43462 4e-3 -0.64982 7e-3 4.9315 1.1818 6.9049 3.0974 6.9049 3.0974v208.06s-5.2998 4.0181-13.873 4.064c2.3689 0.52212 5.328 0.89959 8.951 0.89959 8.6558 0 14.012-4.064 14.012-4.064v-208.06s-4.1201-4.004-15.346-4.004" fill="#cecc8d"/>
  <g fill="#afac79">
   <path d="m-205.31 378.11c0 6.0642-3.8403 10.978-8.5774 10.978-4.7367 0-8.5771-4.9142-8.5771-10.978s3.8403-10.982 8.5771-10.982c4.7371 0 8.5774 4.9177 8.5774 10.982"/>
   <path d="m-213.89 316.17h-5.2483v-123.51h5.2483v123.51"/>
   <path d="m-213.89 343.01h-5.2483v-19.23h5.2483v19.23"/>
  </g>
  <g>
   <path d="m-168.81 392.37s-5.3566 4.064-14.012 4.064c-11.902 0-16.68-4.064-16.68-4.064v-208.06s5.2042-4.004 15.346-4.004c11.226 0 15.346 4.004 15.346 4.004v208.06" fill="#e8e89c"/>
   <path d="m-184.15 180.31c-0.22014 0-0.43463 4e-3 -0.64982 7e-3 4.9315 1.1818 6.9053 3.0974 6.9053 3.0974v208.06s-5.3001 4.0181-13.873 4.064c2.3689 0.52212 5.328 0.89959 8.951 0.89959 8.6558 0 14.012-4.064 14.012-4.064v-208.06s-4.1201-4.004-15.346-4.004" fill="#cecc8d"/>
   <path d="m245 391.64s-8.823 2.5118-23.082 2.5118c-19.607 0-27.478-2.5118-27.478-2.5118v-128.47s8.5725-2.473 25.28-2.473c18.493 0 25.28 2.473 25.28 2.473v128.47" fill="#e5b64e"/>
   <path d="m219.72 260.69c-0.36336 0-0.71614 4e-3 -1.0689 4e-3 8.1209 0.73025 11.374 1.912 11.374 1.912v128.48s-8.7312 2.48-22.853 2.5082c3.9017 0.32455 8.7771 0.55739 14.746 0.55739 14.259 0 23.082-2.5118 23.082-2.5118v-128.48s-6.7874-2.473-25.28-2.473" fill="#c99e47"/>
   <path d="m194.44 390.76s-4.4097 1.9932-11.539 1.9932c-9.8037 0-13.741-1.9932-13.741-1.9932v-102.05s4.2862-1.965 12.64-1.965c9.2463 0 12.64 1.965 12.64 1.965v102.05" fill="#4f5e40"/>
   <path d="m181.8 286.74c-0.17991 0-0.3563 4e-3 -0.53622 7e-3 4.064 0.57856 5.6903 1.517 5.6903 1.517v102.05s-4.3674 1.972-11.426 1.9932c1.9509 0.254 4.3886 0.44097 7.373 0.44097 7.1296 0 11.539-1.9932 11.539-1.9932v-102.05s-3.3937-1.965-12.64-1.965" fill="#3d4731"/>
  </g>
  <g fill="#afac79">
   <path d="m-174.62 378.11c0 6.0642-3.8403 10.978-8.5771 10.978-4.7371 0-8.5774-4.9142-8.5774-10.978s3.8403-10.982 8.5774-10.982c4.7368 0 8.5771 4.9177 8.5771 10.982"/>
   <path d="m-181.82 316.17h-6.617v-123.51h6.617v123.51"/>
   <path d="m-181.82 343.01h-6.617v-19.23h6.617v19.23"/>
  </g>
  <g fill="#b77158">
   <path d="m198.78 365.35c5.8632 0.6985 11.723 1.5064 17.604 2.0073 5.4187 0.46214 10.918 0.56797 16.284-0.46214 2.9986-0.57856 5.9161-1.5487 8.636-2.9528 1.009-0.51859 0.11642-2.0426-0.89253-1.5205-4.6884 2.4165-9.9519 3.3408-15.187 3.4854-5.3904 0.15169-10.767-0.45156-16.111-1.0901-3.4431-0.40923-6.8862-0.82198-10.333-1.2312-0.47272-0.0564-0.88195 0.4445-0.88195 0.88195 0 0.52211 0.40923 0.82197 0.88195 0.88194"/>
   <path d="m199.47 373.26c10.329 2.7834 21.248 3.1856 31.764 1.2418 2.9739-0.55033 5.909-1.2947 8.7877-2.2225 1.076-0.34925 0.61383-2.0532-0.4692-1.7004-9.9272 3.1997-20.553 4.1522-30.889 2.7481-2.9422-0.39864-5.8596-0.99483-8.7242-1.7674-1.0971-0.29281-1.5663 1.4076-0.4692 1.7004"/>
   <path d="m235.22 280.18c0 3.997-5.8667 7.239-13.102 7.239s-13.102-3.242-13.102-7.239c0-4.0005 5.8667-7.2425 13.102-7.2425s13.102 3.242 13.102 7.2425"/>
  </g>
  <g>
   <path d="m203.95 330.73h-0.0952c-1.1853-0.0635-1.8874-1.3511-2.2049-2.4977-0.60677-2.1731-0.69497-4.4556-0.71261-6.7134-0.1023-13.441 2.2437-27.15-1.1218-40.157-0.85725-3.3126-2.0884-6.6675-1.6157-10.054 0.52564-3.7818 5.3128-7.1508 9.4298-7.1508 1.9791 0 3.8029 0.77611 4.9212 2.6599 1.4323 2.3989 1.1112 5.4857 0.11994 8.0962-0.0388 0.10936-0.0811 0.21519-0.12347 0.32103-2.1908 1.2947-3.5313 3.0339-3.5313 4.9459 0 0.53975 0.10937 1.0654 0.31045 1.5734-0.10583 0.23283-0.20814 0.46567-0.30692 0.70203-2.032 4.8683-2.166 10.287-2.2684 15.561-0.18344 9.6097-0.37042 19.219-0.55739 28.829-0.0318 1.6616-0.62089 3.8841-2.2437 3.8841" fill="#ecca7f"/>
   <path d="m209.32 281.75c-0.20108-0.508-0.31045-1.0336-0.31045-1.5734 0-1.912 1.3406-3.6512 3.5313-4.9459-0.89958 2.2507-2.2119 4.3145-3.2209 6.5193" fill="#cb9986"/>
   <path d="m204.91 351.36c-0.25048 0-0.50448-0.0529-0.74436-0.16581-1.1289-0.52211-1.4041-1.972-1.5346-3.2068-0.2928-2.7446-0.58208-5.4928-0.87489-8.2374-0.127-1.1959-0.24341-2.4659 0.28223-3.5489 0.51152-1.0478 1.7745-1.5769 3.0339-1.5769 1.3335 0 2.667 0.5962 3.0868 1.8133 0.44803 1.2982 0.11642 2.7164-0.11642 4.0711-0.2928 1.7145-0.41627 3.4572-0.36336 5.1964 0.0353 1.3159 0.16228 2.6882-0.3563 3.8982-0.41275 0.96308-1.4182 1.7568-2.413 1.7568" fill="#ecca7f"/>
   <path d="m86.302 330.49-26.088-1.5875 9.5991 59.821s1.4993 1.9826 7.2002 3.0833c4.3568 0.84314 14.22 0.84314 18.577 0 5.6974-1.1007 7.2002-3.0833 7.2002-3.0833l9.5991-59.821-26.088 1.5875" fill="#e5b64e"/>
   <path d="m97.972 329.78c-0.02117 0.91369-0.03528 1.8239-0.07408 2.7305-0.22225 5.2917-1.2488 10.513-2.3283 15.699-1.7533 8.4208-3.7253 16.983-8.1915 24.331-3.2632 5.3728-8.0821 10.096-13.966 12.488-1.016 0.41628-2.5894 0.60678-4.0393 0.94897l0.44097 2.7446s1.4993 1.9826 7.2002 3.0833c4.3568 0.84314 14.22 0.84314 18.577 0 5.6974-1.1007 7.2002-3.0833 7.2002-3.0833l9.5991-59.821-14.418 0.87842" fill="#d8a64e"/>
   <path d="m112.39 328.9c0 1.4922-11.68 2.6988-26.088 2.6988-14.407 0-26.088-1.2065-26.088-2.6988s11.68-2.6988 26.088-2.6988c14.407 0 26.088 1.2065 26.088 2.6988" fill="#a8803f"/>
   <path d="m72.798 366.24c-0.81492 0-1.4146-1.1783-1.591-2.1096-1.6686-8.6748-3.3373-17.35-5.0059-26.024-0.10583-0.55033-0.21167-1.1148-0.11642-1.6651 0.21872-1.277 1.8627-2.0355 3.362-2.0355 0.98072 0 1.8979 0.32456 2.3177 1.0442 0.47625 0.82902 0.4057 1.8486 0.34572 2.8046-0.55386 8.6325 0.81139 17.258 1.7216 25.859 0.08114 0.76906 0.04233 1.7427-0.66322 2.0461-0.127 0.0565-0.25047 0.0811-0.37042 0.0811" fill="#ecca7f"/>
   <path d="m74.547 377.35c-0.27517 0-0.54328-0.0811-0.75847-0.26105-0.37394-0.31045-0.50094-0.81845-0.60325-1.2912-0.28222-1.2594-0.56444-2.5224-0.84667-3.7818-0.16228-0.7373-0.32456-1.5346-0.03175-2.2296 0.20814-0.50448 0.75847-0.88195 1.27-0.88195 0.20108 0 0.39511 0.0564 0.56092 0.1905l0.09878-0.22225c1.3159 0.12347 1.9226 1.6933 2.1237 3.0021 0.16228 1.076 0.254 2.1802 0.08467 3.2561-0.1023 0.66322-0.32456 1.3441-0.82197 1.7956-0.28928 0.26458-0.68792 0.42333-1.076 0.42333" fill="#ecca7f"/>
   <path d="m92.334 331.6 12.34-34.812 8.3361-11.282-1.8274 13.102-11.994 32.639-6.8545 0.35278" fill="#4f5e40"/>
   <path d="m82.386 331.57-5.8491-39.977v-17.766l7.4048 15.663 5.4857 42.108-7.0414-0.0282" fill="#84321f"/>
   <path d="m75.909 271.04 0.62794 10.132 3.1962-0.57503z" fill="#4c3434"/>
   <path d="m109.98 289.61 5.2105-7.3307-2.8857 8.2797z" fill="#4c3434"/>
   <path d="m135.05 395.51 34.11-4.7484v-13.36l-17.505 1.1853-16.605 16.923" fill="#7f624e"/>
   <path d="m-131.28 390.36-37.528-4.9283v-15.854l16.412-0.70203 21.116 21.484" fill="#7f624e"/>
  </g>
 </g>
</svg>
