<?xml version="1.0" encoding="UTF-8"?>
<!-- Created with Inkscape (http://www.inkscape.org/) -->
<svg width="606.71mm" height="262.48mm" version="1.1" viewBox="0 0 606.71 262.48" xmlns="http://www.w3.org/2000/svg">
 <defs>
  <clipPath id="clipPath78">
   <path d="m3463.9 16237c-22.77 0.1-34.11 31.3-36.58 55.4-33.34 327.1 2.86 659.6 5.27 988.3 20.8 6.6 41.71 12.9 62.75 18.7-2.11-335.8 27.78-675.6 1.98-1010.7-1.65-21.4-8.38-48.3-29.58-51.4-1.31-0.2-2.59-0.3-3.84-0.3m-33.84 1219.5c-2.06 52-5.44 103.7-10.55 155.3 30.54 10.1 61.38 19.3 92.44 27.6-5.7-55.9-9.66-112-12.29-168.3-23.3-4.4-46.51-9.3-69.6-14.6m-34.66 327.1c-3.83 20.7-8.03 41.3-12.6 61.9-13.78 62.1-31.05 126.7-15.13 188.2 12.57 48.6 69.7 106.7 125.52 106.7 12.54 0 25.01-2.9 36.9-9.6 65.49-36.6 40.98-153.4 27.87-209.7-8.35-35.9-15.65-71.9-22.04-108-47.2-8.1-94.13-17.8-140.52-29.5"/>
  </clipPath>
 </defs>
 <g transform="translate(244.29 30.037)">
  <g>
   <path d="m208.4-30.037-15.081 20.913 0.28222 18.521 14.961 8.2621-0.16227-47.696" fill="#352525"/>
   <path d="m214.91 179.75h-6.5052v-209.78h6.5052v209.78" fill="#4c3434"/>
   <path d="m208.56 172.79h-44.817v-171.82s7.5988-5.9866 22.408-5.9866c16.394 0 22.408 5.9866 22.408 5.9866v171.82" fill="#e5b64e"/>
   <path d="m185.99-5.0219c-1.9756 0-3.817 0.10936-5.5351 0.29281 11.874 1.1994 16.401 5.6938 16.401 5.6938v171.82h11.543v-171.82s-6.0149-5.9866-22.408-5.9866" fill="#c99e47"/>
  </g>
  <g fill="#b77158">
   <path d="m202.52 132.48c0.13053-1.8098 0.0282-3.6371-0.29986-5.4222-7.3695-0.38453-31.976-0.0917-31.976-0.0917s-0.68439 0.77611 0 6.1242c3.0339-2.1343 32.406-2.4059 32.276-0.61031"/>
   <path d="m203.04 140.93c0.13053-1.8098 0.0282-3.6371-0.29986-5.4222-7.3695-0.38453-31.976-0.0917-31.976-0.0917s-0.68439 0.77611 0 6.1242c3.0339-2.1343 32.406-2.4059 32.276-0.6103"/>
   <path d="m172.49 167.55c9.4827-1.1924 19.36-2.346 28.395 0.76906-4e-3 -7.3589-4e-3 -14.718-7e-3 -22.08 0-0.23636-4e-3 -0.48331-0.11642-0.69145-0.127-0.23636-0.37394-0.381-0.61383-0.50447-2.6211-1.337-5.6868-1.3864-8.629-1.3582-3.3796 0.0318-6.7592 0.13405-10.135 0.29986-2.9845 0.14817-6.8404-0.16228-9.6414 0.78669 0.254 1.9156 1.4817 22.687 0.74789 22.779"/>
  </g>
  <g>
   <path d="m173.48 66.783c-1.4993 0-2.0955-1.9226-2.2225-3.4149-1.3758-16.002 0.34925-32.205-1.838-48.119-0.53975-3.9194-1.2912-8.0574 0.20461-11.719 1.2594-3.0939 4.6108-5.0447 7.9234-5.0447 0.42686 0 0.85372 0.03175 1.2735 0.098778 2.3848 0.37747 7.2531 2.7376 6.8615 5.6127-0.3422 2.5153-3.7077 3.0445-5.6903 4.632-2.2472 1.7956-2.6423 5.0094-2.8469 7.8811-1.0901 15.402-1.6087 30.847-1.5558 46.288 7e-3 1.6157-0.49388 3.7853-2.1096 3.7853" fill="#ecc87a"/>
   <path d="m175.09 106.66c-0.0705 0-0.13758-4e-3 -0.20813-0.0106-1.0971-0.10936-1.9403-1.0936-2.2542-2.1484-0.31045-1.0583-0.20462-2.1837-0.11995-3.2844 0.51153-6.6146 0.16933-13.3-1.016-19.83-0.4833-2.6529-1.0689-5.5492 0.21167-7.9199 0.58914-1.0936 1.3088-1.524 2.0426-1.524 1.6087 0 3.2879 2.0637 3.8206 3.7253 0.48684 1.5169 0.52917 3.1327 0.56092 4.7237 0.14111 7.0485 0.13053 14.097-0.0282 21.142-0.0247 1.1395-0.0635 2.3178-0.54681 3.3479-0.45508 0.96661-1.4111 1.778-2.4624 1.778" fill="#ecc87a"/>
   <path d="m245.6 16.233-8.95 52.892s28.448 110.62 29.69 110.62 41.843-1.2418 41.843-1.2418l-62.583-162.27" fill="#84321f"/>
   <path d="m321.08 173.61-29.577 8.1986-45.9-165.57s3.4149-7.1614 13.187-9.8707c10.82-2.9986 16.387 1.6686 16.387 1.6686l45.903 165.58" fill="#aa4724"/>
   <path d="m258.69 6.3905c-1.3018 0.36336-2.4906 0.80433-3.5736 1.2947 8.1562-1.016 12.344 2.4871 12.344 2.4871l45.903 165.58 7.6165-2.1131-45.903-165.58s-5.5704-4.6672-16.387-1.6686" fill="#993e22"/>
   <path d="m353.71 180.39-29.577 8.1986-45.903-165.57s3.4149-7.1614 13.19-9.8707c10.816-2.9986 16.387 1.6686 16.387 1.6686l45.903 165.58" fill="#4f5e40"/>
   <path d="m291.32 13.171c-1.3053 0.36336-2.4906 0.80433-3.5772 1.2947 8.1598-1.016 12.347 2.4871 12.347 2.4871l45.9 165.58 7.62-2.1131-45.903-165.57s-5.5704-4.6708-16.387-1.6722" fill="#3d4731"/>
   <path d="m-164.28 46.487 3.2022 33.225-24.91 95.229h-25.969l43.354-129 4.3226 0.54681" fill="#84321f"/>
   <path d="m-204.72 180.97-23.488-7.0626 40.441-134.49s5.3915-3.4854 13.153-1.1536c8.5908 2.5823 10.335 8.2197 10.335 8.2197l-40.441 134.48" fill="#aa4724"/>
   <path d="m-174.62 38.236c-1.3635-0.40922-2.6518-0.63853-3.853-0.74083 5.6586 2.8081 6.9226 6.8827 6.9226 6.8827l-40.411 134.38 7.2355 2.1766 40.441-134.49s-1.7441-5.6339-10.335-8.2162" fill="#993e22"/>
   <path d="m362.42 200.74h-606.71v-31.408h606.71v31.408" fill="#cca079"/>
   <path d="m59.069 200.74h-303.35l40.32 31.708h526.07l40.322-31.708h-303.36" fill="#9b785d"/>
   <path d="m-119.46 169.33h-44.82v-140.43s7.5999-4.893 22.41-4.893c16.393 0 22.41 4.893 22.41 4.893v140.43" fill="#5b3e3e"/>
   <path d="m-141.87 24.001c-2.1742 0-4.1885 0.10936-6.0505 0.28928 11.467 1.0442 15.853 4.6037 15.853 4.6037v140.43h12.607v-140.43s-6.017-4.893-22.41-4.893" fill="#4c3434"/>
   <path d="m-119.46 42.857c-7.5244-2.9951-16.04-3.175-24.188-2.5259-6.5835 0.52564-13.202 1.5593-19.405 3.9017-0.42051 0.15875-0.82973 0.30692-1.227 0.45861v7.1649c1.6792-0.95956 3.4696-1.7533 5.2712-2.4448 11.038-4.2192 23.335-5.0835 34.855-2.4483 1.5787 0.35983 3.1993 0.83608 4.6941 1.5064v-5.6127" fill="#c69775"/>
   <path d="m-119.46 48.452v-5.6127c-3.991-1.591-8.2614-2.3812-12.607-2.6846v5.5386c2.6617 0.23989 5.3075 0.65264 7.9132 1.2524 1.5787 0.35983 3.1993 0.83256 4.6941 1.5064" fill="#ad8468"/>
   <path d="m-119.51 60.387v-5.6127c-3.9913-1.591-8.2617-2.3812-12.607-2.6811v5.5351c2.6617 0.23989 5.3075 0.65617 7.9132 1.2524 1.5783 0.35983 3.199 0.83608 4.6941 1.5064" fill="#ad8468"/>
   <path d="m-119.46 54.689c-7.5244-2.9951-16.04-3.175-24.188-2.5259-6.5835 0.52564-13.202 1.5593-19.405 3.9017-0.42051 0.15875-0.82973 0.30692-1.227 0.45861v7.1649c1.6792-0.95956 3.4696-1.7533 5.2712-2.4412 11.038-4.2228 23.335-5.0871 34.855-2.4518 1.5787 0.36336 3.1993 0.83608 4.6941 1.5064v-5.6127" fill="#c69775"/>
   <path d="m-119.51 60.387v-5.6127c-3.9913-1.591-8.2617-2.3812-12.607-2.6811v5.5351c2.6617 0.23989 5.3075 0.65617 7.9132 1.2524 1.5783 0.35983 3.199 0.83608 4.6941 1.5064" fill="#ad8468"/>
   <path d="m-125.67 161.7h-30.353v-28.526s8.9376-1.591 15.176-1.6192c7.1572-0.0317 15.176 1.6192 15.176 1.6192v28.526" fill="#c69775"/>
   <path d="m-125.67 133.27s-2.8596-0.58913-6.6866-1.0583c0.0268 0.1517 0.0529 0.29986 0.0741 0.44803 0.55704 3.877-0.0494 7.8528-1.367 11.515-0.75495 2.099-1.747 4.1134-2.9309 6.0043-1.1031 1.7604-2.3633 3.4361-3.8717 4.8683-4.1395 3.9229-9.8316 5.7044-15.571 6.2089v0.53623h30.353v-28.522" fill="#ad8468"/>
  </g>
  <g transform="matrix(.035278 0 0 -.035278 -277.03 669.79)">
   <g clip-path="url(#clipPath78)">
    <path d="m3351.7 16237h243.83v1903.4h-243.83z" fill="#6c5252"/>
   </g>
  </g>
  <g>
   <path d="m-156.4 48.484c-0.20109-2.0285-0.47767-4.0499-0.85055-6.0607 1.6365-0.41275 3.2921-0.75494 4.9572-1.0407-0.35948 2.0355-0.63606 4.0781-0.84561 6.1277-1.0957 0.29281-2.1837 0.61736-3.2611 0.97367" fill="#cca283"/>
   <path d="m-155.93 60.164c0.0155-2.0708-7e-3 -4.1416-0.0893-6.2018 0.81456-0.18697 1.6334-0.35983 2.4553-0.51506-0.0942 2.0144-0.1397 4.0322-0.1524 6.0572-0.74224 0.20461-1.4799 0.42686-2.2137 0.65969" fill="#cca283"/>
   <path d="m-152.89 118.7c-0.78246 0-1.4862-0.59972-1.8263-1.3159-0.35736-0.74789-0.39934-1.6051-0.43497-2.4342-0.18486-4.2651-0.36936-8.5337-0.55351-12.799-0.0473-1.0901 0.58455-2.4271 1.6185-2.4271 0.28258 0 0.59478 0.1023 0.93169 0.33161 1.2531 0.86077 0.78563 3.8911 0.83749 5.1858 0.16052 4.0111 0.32068 8.0186 0.48084 12.03 0.0162 0.39511 0.0162 0.83609-0.25294 1.1289-0.17216 0.18697-0.43004 0.27517-0.68404 0.29633-0.0392 4e-3 -0.078 4e-3 -0.11677 4e-3" fill="#6c5252"/>
   <path d="m-74.642 169.65h-44.82v-140.43s7.5995-4.893 22.41-4.893c16.393 0 22.41 4.893 22.41 4.893v140.43" fill="#5b3e3e"/>
   <path d="m-97.052 24.319c-2.1742 0-4.1885 0.10583-6.0508 0.28575 11.467 1.0478 15.854 4.6073 15.854 4.6073v140.43h12.607v-140.43s-6.0173-4.893-22.41-4.893" fill="#4c3434"/>
   <path d="m-74.642 43.175c-7.5248-2.9986-16.04-3.1785-24.188-2.5259-6.5835 0.52211-13.202 1.5558-19.405 3.8982-0.42087 0.15875-0.82974 0.31044-1.2273 0.46214v7.1649c1.6796-0.95956 3.4699-1.7568 5.2716-2.4448 11.038-4.2228 23.335-5.0871 34.855-2.4483 1.5783 0.35983 3.199 0.83608 4.6941 1.5064v-5.6127" fill="#c69775"/>
   <path d="m-74.642 48.766v-5.6127c-3.991-1.5875-8.2617-2.3812-12.607-2.6811v5.5351c2.6614 0.23989 5.3072 0.65617 7.9132 1.2524 1.5783 0.35983 3.199 0.83608 4.6941 1.5064" fill="#ad8468"/>
   <path d="m-74.692 60.704v-5.6162c-3.991-1.5875-8.2614-2.3777-12.607-2.6811v5.5386c2.6617 0.23989 5.3075 0.65264 7.9135 1.2488 1.5783 0.36336 3.199 0.83608 4.6937 1.5099" fill="#ad8468"/>
   <path d="m-74.642 55.007c-7.5248-2.9951-16.04-3.175-24.188-2.5259-6.5835 0.52564-13.202 1.5558-19.405 3.9017-0.42087 0.15875-0.82974 0.30692-1.2273 0.45861v7.1649c1.6796-0.95956 3.4699-1.7568 5.2716-2.4448 11.038-4.2228 23.335-5.0835 34.855-2.4483 1.5783 0.35983 3.199 0.83608 4.6941 1.5064v-5.6127" fill="#c69775"/>
   <path d="m-74.692 60.704v-5.6162c-3.991-1.5875-8.2614-2.3777-12.607-2.6811v5.5386c2.6617 0.23989 5.3075 0.65264 7.9135 1.2488 1.5783 0.36336 3.199 0.83608 4.6937 1.5099" fill="#ad8468"/>
   <path d="m-80.853 162.01h-30.353v-28.526s8.9376-1.591 15.177-1.6157c7.1568-0.0318 15.176 1.6157 15.176 1.6157v28.526" fill="#c69775"/>
   <path d="m-80.853 133.59s-2.8593-0.58914-6.6866-1.0548c0.02681 0.1517 0.05327 0.29986 0.07444 0.44803 0.55668 3.8735-0.04974 7.8493-1.3674 11.515-0.75459 2.099-1.7466 4.1134-2.9305 6.0043-1.1035 1.7604-2.3636 3.4361-3.8717 4.8648-4.1395 3.9264-9.8319 5.7044-15.571 6.2124v0.53623h30.353v-28.526" fill="#ad8468"/>
   <path d="m-110.01 97.298c-0.80327 0-1.2033-1.1007-1.2905-1.9509-1.1765-11.543 0.10054-23.273 0.18591-34.865 0.73343-0.23283 1.4711-0.45508 2.2133-0.65969-0.0744 11.846 0.98002 23.834 0.0702 35.655-0.0582 0.75142-0.29528 1.7004-1.0435 1.8098-0.0466 0.0071-0.0917 0.01058-0.13547 0.01058m-1.1942-43.018c-0.0727-1.8344-0.19156-3.6583-0.37218-5.4822 1.0777-0.35278 2.1654-0.67733 3.2614-0.97014-0.20144 1.972-0.34114 3.9511-0.43392 5.9337-0.82162 0.15875-1.6404 0.32808-2.4553 0.51858m-1.2224-11.539c-0.13511-0.73025-0.28328-1.457-0.4445-2.1872-0.48648-2.1872-1.0954-4.4662-0.5334-6.6358 0.44309-1.7145 2.4585-3.7641 4.4274-3.7641 0.44273 0 0.883 0.10231 1.3021 0.33514 2.3103 1.2912 1.4457 5.4151 0.98319 7.4013-0.29457 1.2665-0.55245 2.5329-0.77752 3.8065-1.6655 0.28928-3.3204 0.63147-4.9572 1.0442" fill="#6c5252"/>
   <path d="m-111.58 48.798c-0.20073-2.0285-0.47731-4.0464-0.8502-6.0572 1.6369-0.41275 3.2918-0.75494 4.9572-1.0442-0.35984 2.0355-0.63641 4.0816-0.84561 6.1313-1.0961 0.29281-2.1837 0.61736-3.2614 0.97014" fill="#cca283"/>
   <path d="m-111.11 60.482c0.0152-2.0708-8e-3 -4.1416-0.0896-6.2018 0.81492-0.1905 1.6337-0.35983 2.4553-0.51858-0.0942 2.0144-0.1397 4.0358-0.1524 6.0607-0.74224 0.20461-1.4799 0.42686-2.2133 0.65969" fill="#cca283"/>
   <path d="m-108.07 119.02c-0.7821 0-1.4859-0.59972-1.8263-1.3159-0.35701-0.75142-0.39899-1.6051-0.43532-2.4377-0.18415-4.2651-0.36866-8.5302-0.55316-12.795-0.0469-1.0901 0.58455-2.4271 1.6189-2.4271 0.28257 0 0.59513 0.0988 0.93168 0.33161 1.2534 0.86077 0.78529 3.8876 0.8375 5.1858 0.16016 4.0076 0.32067 8.0186 0.48119 12.026 0.0159 0.39864 0.0159 0.83962-0.2533 1.1324-0.17215 0.18697-0.43039 0.27517-0.68403 0.29633-0.0392 0-0.0783 4e-3 -0.11713 4e-3" fill="#6c5252"/>
   <path d="m-29.822 169.96h-44.82v-140.43s7.5999-4.893 22.41-4.893c16.393 0 22.41 4.893 22.41 4.893v140.43" fill="#5b3e3e"/>
   <path d="m245.6 169.96h-30.695v-171.82s5.207-5.9866 15.349-5.9866c11.225 0 15.346 5.9866 15.346 5.9866v171.82" fill="#4f5e40"/>
   <path d="m230.15-7.8441c-1.3511 0-2.6141 0.10936-3.7888 0.29281 8.1315 1.1994 11.229 5.6938 11.229 5.6938v171.82h7.9058v-171.82s-4.1204-5.9866-15.346-5.9866" fill="#3d4731"/>
   <path d="m-52.232 24.636c-2.1742 0-4.1882 0.10583-6.0505 0.28575 11.467 1.0478 15.853 4.6073 15.853 4.6073v140.43h12.607v-140.43s-6.017-4.893-22.41-4.893" fill="#4c3434"/>
   <path d="m-29.822 43.489c-7.5244-2.9951-16.04-3.175-24.188-2.5259-6.5832 0.52564-13.202 1.5593-19.405 3.9017-0.42051 0.15875-0.83009 0.31044-1.2273 0.45861v7.1649c1.6792-0.95956 3.4699-1.7533 5.2712-2.4412 11.038-4.2228 23.335-5.0871 34.855-2.4518 1.5787 0.36336 3.1993 0.83608 4.6941 1.5064v-5.6127" fill="#c69775"/>
   <path d="m-29.822 49.084v-5.6127c-3.991-1.591-8.2614-2.3812-12.607-2.6811v5.5351c2.6617 0.23989 5.3075 0.65617 7.9135 1.2524 1.5783 0.35983 3.199 0.83608 4.6937 1.5064" fill="#ad8468"/>
   <path d="m-29.871 61.018v-5.6127c-3.991-1.5875-8.2613-2.3812-12.607-2.6811v5.5351c2.6617 0.23989 5.3075 0.65617 7.9132 1.2524 1.5787 0.36336 3.199 0.83608 4.6941 1.5064" fill="#ad8468"/>
   <path d="m-29.822 55.324c-7.5244-2.9986-16.04-3.1785-24.188-2.5294-6.5832 0.52564-13.202 1.5593-19.405 3.9017-0.42051 0.15875-0.83009 0.31044-1.2273 0.46214v7.1649c1.6792-0.96308 3.4699-1.7568 5.2712-2.4448 11.038-4.2228 23.335-5.0871 34.855-2.4483 1.5787 0.35983 3.1993 0.83256 4.6941 1.5064v-5.6127" fill="#c69775"/>
   <path d="m-29.871 61.018v-5.6127c-3.991-1.5875-8.2613-2.3812-12.607-2.6811v5.5351c2.6617 0.23989 5.3075 0.65617 7.9132 1.2524 1.5787 0.36336 3.199 0.83608 4.6941 1.5064" fill="#ad8468"/>
   <path d="m-36.033 162.33h-30.353v-28.526s8.938-1.591 15.176-1.6192c7.1572-0.0317 15.176 1.6192 15.176 1.6192v28.526" fill="#c69775"/>
   <path d="m-36.033 133.91s-2.8596-0.58914-6.6866-1.0548c0.02681 0.14817 0.05292 0.29986 0.07408 0.4445 0.55704 3.877-0.04939 7.8528-1.367 11.518-0.75494 2.099-1.747 4.1099-2.9305 6.0008-1.1035 1.7639-2.3636 3.4361-3.8721 4.8683-4.1391 3.9264-9.8316 5.7044-15.571 6.2089v0.53622h30.353v-28.522" fill="#ad8468"/>
   <path d="m-65.189 97.615c-0.80292 0-1.2033-1.1007-1.2901-1.9544-1.1765-11.539 0.10054-23.269 0.18556-34.861 0.73378-0.23636 1.4714-0.45508 2.2137-0.66322-0.07444 11.846 0.98002 23.837 0.06985 35.655-0.05785 0.75494-0.29528 1.7039-1.0435 1.8133-0.04621 0.0071-0.09137 0.01058-0.13547 0.01058m-1.1938-43.021c-0.07267-1.8309-0.19191-3.6583-0.37218-5.4786 1.0774-0.3563 2.1654-0.67733 3.2611-0.97014-0.20108 1.972-0.34078 3.9511-0.43356 5.9337-0.82197 0.15522-1.6408 0.32808-2.4553 0.51506m-1.2227-11.539c-0.13511-0.72672-0.28328-1.457-0.4445-2.1837-0.48613-2.1908-1.0954-4.4662-0.5334-6.6393 0.44309-1.711 2.4585-3.7641 4.4274-3.7641 0.44238 0 0.88265 0.10583 1.3021 0.33867 2.3103 1.2912 1.4457 5.4116 0.98319 7.4013-0.29457 1.2629-0.5521 2.5329-0.77752 3.8065-1.6655 0.28575-3.32 0.63147-4.9572 1.0407" fill="#6c5252"/>
   <path d="m-66.755 49.115c-0.20108-2.0285-0.47766-4.0499-0.85055-6.0607 1.6372-0.40922 3.2918-0.75494 4.9572-1.0407-0.35948 2.0355-0.63606 4.0781-0.84561 6.1313-1.0957 0.29281-2.1837 0.61383-3.2611 0.97014" fill="#cca283"/>
   <path d="m-66.294 60.799c0.01552-2.0743-0.0074-4.1416-0.08925-6.2054 0.81456-0.18697 1.6334-0.35983 2.4553-0.51506-0.09419 2.0144-0.1397 4.0322-0.1524 6.0572-0.74224 0.20814-1.4799 0.42686-2.2137 0.66322" fill="#cca283"/>
   <path d="m-63.253 119.34c-0.78211 0-1.4863-0.59972-1.8263-1.3123-0.35736-0.75142-0.39934-1.6087-0.43498-2.4377-0.18486-4.2651-0.36936-8.5302-0.55351-12.795-0.04727-1.0901 0.5842-2.4271 1.6185-2.4271 0.28258 0 0.59514 0.0988 0.93204 0.33161 1.2531 0.86077 0.78528 3.8876 0.83714 5.1823 0.16051 4.0111 0.32103 8.0222 0.48119 12.03 0.01588 0.39512 0.01588 0.83962-0.25294 1.1289-0.17251 0.18698-0.43039 0.2787-0.68404 0.29634-0.03916 4e-3 -0.07832 4e-3 -0.11712 4e-3" fill="#6c5252"/>
  </g>
  <g fill="#c69775">
   <path d="m-176.96 46.23c3.4988 0.38453 7.3752 1.3264 9.2223 4.3215-0.43991 1.2629-0.8061 2.5541-1.0964 3.8594-0.1972-1.8239-2.2341-2.7587-3.9726-3.3408-2.7665-0.93133-5.5548-1.8662-8.449-2.2366-2.8942-0.37394-5.9365-0.15522-8.5538 1.1359 0.42368-3.1644 0.69391-4.004 3.8675-4.0957 2.9976-0.09172 6.0008 0.02822 8.9821 0.3563"/>
   <path d="m-198.93 159.33c0.37747-1.3088 0.75459-2.6141 1.1321-3.9229 0.0684-0.23636 0.13406-0.50447 0.0152-0.71967-0.0938-0.16933-0.27975-0.26458-0.45543-0.34572-6.5931-3.1327-13.922-4.706-21.22-4.5508-0.19967 4e-3 -0.41557 0.0141-0.57009 0.14111-0.15346 0.127-0.20708 0.33161-0.25223 0.52564-0.32527 1.3899-0.7867 2.8258-0.92252 4.2404 1.137 0.24341 3.0261-0.47272 4.3603-0.43039 2.1146 0.0705 4.2118 0.41275 6.2653 0.91369 1.0308 0.25048 11.804 3.6019 11.647 4.1487"/>
   <path d="m-196.5 151.71c0.37747-1.3053 0.75459-2.6141 1.1321-3.9229 0.0684-0.23636 0.13371-0.50095 0.0152-0.71614-0.0938-0.17286-0.27975-0.26811-0.45543-0.34925-6.5931-3.1327-13.922-4.7061-21.22-4.5508-0.19967 4e-3 -0.41592 0.0141-0.57009 0.14111-0.15346 0.127-0.20708 0.33514-0.25223 0.52564-0.32527 1.3899-0.7867 2.8293-0.92217 4.2404 1.1363 0.24341 3.0254-0.47273 4.36-0.42687 2.1146 0.067 4.2118 0.40923 6.2653 0.91017 1.0308 0.25047 11.804 3.6054 11.647 4.1487"/>
  </g>
  <path d="m142.04 169.65h-129.28s-10.399-4.3991-10.296-22.638c0.10372-18.341 10.667-23.223 10.667-23.223h128.91v7.7682h-13.518l0.12348 30.776h13.395v7.3166" fill="#4f5e40"/>
  <path d="m139.83 162.33h-124.03s-7.4486-2.9528-7.3498-15.194c0.099131-12.308 7.3498-15.582 7.3498-15.582h124.03s-4.4944 5.8385-4.8472 15.977c-0.25047 7.3448 4.8472 14.799 4.8472 14.799" fill="#f7e4bc"/>
  <g fill="#d1c0a1">
   <path d="m12.381 138.72h124.06l-0.62795 2.353z"/>
   <path d="m10.943 148.51h124.06l0.19756 2.3671z"/>
   <path d="m12.106 153.4h123.65l0.69145 2.1484z"/>
  </g>
  <g>
   <path d="m14.33 150.81c-0.18521 4.0499-0.33302 8.2762 1.554 11.952-2.2401 0.10936-4.3843-1.0513-5.7887-2.6317-1.4048-1.584-2.1749-3.5454-2.7711-5.4998-1.3631-4.4732-1.9325-9.271-0.53093-13.734 1.2291-3.9123 5.267-9.5532 10.297-9.8108-2.722 6.0325-2.4617 13.194-2.7601 19.724" fill="#4c3434"/>
   <path d="m138.44 124.05h-87.174s-7.0122-1.8486-6.9427-9.5109c0.06985-7.7082 7.1928-9.7578 7.1928-9.7578h86.924v3.2632h-9.1158l0.0847 12.929h9.0311v3.0762" fill="#aa4724"/>
   <path d="m136.95 120.97h-83.638s-5.0228-1.2382-4.9565-6.3818c0.06703-5.1717 4.9565-6.5476 4.9565-6.5476h83.638s-3.0339 2.4553-3.2667 6.7134c-0.17286 3.0868 3.2667 6.216 3.2667 6.216" fill="#f7e4bc"/>
  </g>
  <g fill="#d1c0a1">
   <path d="m51.004 111.05h83.66l-0.42334 0.98778z"/>
   <path d="m50.034 115.16h83.659l0.13405 0.99484z"/>
   <path d="m50.819 117.22h83.379l0.46567 0.90311z"/>
  </g>
  <g>
   <path d="m52.318 116.13c-0.12453 1.7004-0.22437 3.4784 1.0481 5.0236-1.5106 0.0459-2.9566-0.44097-3.9035-1.1077-0.94721-0.66322-1.4665-1.4887-1.8687-2.3107-0.91899-1.8768-1.3032-3.8947-0.35807-5.7679 0.82868-1.644 3.5518-4.0146 6.9434-4.124-1.8355 2.5365-1.6598 5.5421-1.8613 8.2868" fill="#4c3434"/>
   <path d="m111.25 182.36c-0.0388-4.3603 0.40569-8.7207 0.30339-13.081-0.17286-7.2708-0.54328-14.81-6.724-20.69l-16.849-0.13405c3.3443 1.6828 4.8648 5.6127 5.528 9.2957 1.1571 6.4311 0.57503 13.028 0.68792 19.562 0.11289 6.5334 1.0336 13.346 4.7554 18.718 0.69497-4.2122 2.2401-8.2797 4.512-11.896 1.5522 4.9601 5.4786 9.1158 10.343 10.943-1.9614-3.8947-2.5188-8.3538-2.5576-12.718" fill="#aa4724"/>
   <path d="m236.65 24.971c0 10.139-2.8646 18.355-6.3959 18.355-3.5348 0-6.3994-8.2162-6.3994-18.355 0-10.135 2.8646-18.355 6.3994-18.355 3.5313 0 6.3959 8.2197 6.3959 18.355" fill="#e5b64e"/>
  </g>
  <g fill="#c99e47">
   <path d="m268.27 32.507c-0.49742 6.1666-1.2206 12.312-2.1837 18.426-0.27517 1.7427-0.56798 3.4854-0.87842 5.2211-0.0459 0.24694 0.0635 0.46214 0.30692 0.54328 2.5823 0.88194 4.5508 2.8575 6.2195 4.9424 1.9685 2.4589 3.7359 5.0906 5.5774 7.6482 1.1183 1.5522 2.2366 3.108 3.3584 4.6637 0.2928 0.40922 0.89605 0.16228 0.80433-0.33867-1.1359-6.3182-1.3582-12.795-0.66322-19.181 0.19756-1.8168 0.47272-3.6266 0.81844-5.4257 0.0423-0.21519-0.0353-0.36689-0.20108-0.49742-4.2616-3.2844-7.6835-7.6271-9.9272-12.513-0.64558-1.4041-1.1818-2.854-1.6228-4.3321-0.16228-0.54328-1.0125-0.31044-0.8502 0.23636 1.591 5.3481 4.5085 10.276 8.4208 14.256 1.1042 1.1218 2.2895 2.1555 3.5348 3.115-0.067-0.1658-0.13758-0.33161-0.20461-0.49742-1.2382 6.4382-1.5628 13.042-0.92075 19.572 0.17992 1.8415 0.43744 3.6759 0.76553 5.4998l0.80433-0.33867c-2.0673-2.8751-4.1381-5.7503-6.2054-8.6219-1.6828-2.3389-3.3232-4.7942-5.5139-6.6957-1.1712-1.0195-2.4871-1.838-3.9617-2.3424 0.10583 0.17992 0.20814 0.36336 0.31044 0.54328 1.1007-6.1383 1.972-12.315 2.6035-18.521 0.18345-1.7851 0.34573-3.5701 0.49036-5.3622 0.0423-0.56444-0.83961-0.56092-0.88194 0"/>
   <path d="m273.08 53.483c-0.49389 6.163-1.2171 12.312-2.1802 18.422-0.27517 1.7427-0.56798 3.4854-0.88195 5.2246-0.0423 0.24342 0.067 0.45861 0.31045 0.54328 2.5788 0.88194 4.5508 2.854 6.2195 4.9389 1.9685 2.4589 3.7359 5.0941 5.5739 7.6482 1.1218 1.5558 2.2401 3.1115 3.3584 4.6637 0.29634 0.40922 0.89606 0.16228 0.80786-0.33867-1.1359-6.3182-1.3582-12.795-0.66675-19.177 0.19756-1.8203 0.47625-3.6301 0.82198-5.4257 0.0423-0.21872-0.0353-0.37042-0.20109-0.50094-4.2651-3.2844-7.6835-7.6271-9.9307-12.513-0.64206-1.4041-1.1818-2.8504-1.6228-4.3321-0.15875-0.53975-1.0125-0.31044-0.85019 0.23636 1.5946 5.3481 4.5085 10.28 8.4243 14.256 1.1042 1.1218 2.286 2.1555 3.5313 3.115-0.067-0.16581-0.13405-0.33161-0.20108-0.49742-1.2418 6.4382-1.5628 13.046-0.92075 19.572 0.17992 1.8415 0.43745 3.6795 0.76553 5.4998 0.26811-0.11289 0.53622-0.22578 0.80433-0.33867-2.0673-2.8751-4.1381-5.7468-6.2089-8.6219-1.6792-2.3389-3.3196-4.7907-5.5104-6.6957-1.1712-1.016-2.4871-1.838-3.9617-2.3424 0.10231 0.18344 0.20461 0.36336 0.30692 0.54328 1.1007-6.1383 1.972-12.315 2.607-18.517 0.18345-1.7851 0.34573-3.5736 0.48684-5.3622 0.0459-0.56797-0.83609-0.56444-0.88195 0"/>
   <path d="m284.71 137.21c4.8578-2.4694 10.156-4.0852 15.572-4.7202 1.531-0.17992 3.0692-0.28222 4.6108-0.31044 0.56797-0.0106 0.5715-0.89253 0-0.88195-5.5668 0.10231-11.112 1.1853-16.302 3.2138-1.4711 0.5715-2.9139 1.2206-4.325 1.9368-0.50448 0.25752-0.06 1.016 0.4445 0.762"/>
   <path d="m286.21 141.29c0.56797 0 0.56797-0.88195 0-0.88195s-0.56797 0.88195 0 0.88195"/>
   <path d="m286.29 141.19c3.1221-1.1748 6.3112-2.159 9.5568-2.9351 1.6192-0.38806 3.2526-0.7232 4.8966-1.009 0.82198-0.14111 1.644-0.27164 2.4694-0.38805 0.40216-0.0564 0.80433-0.10936 1.2065-0.15875 0.15875-0.0212 0.96308-0.22225 1.0689-0.0423 0.28928 0.48684 1.0513 0.0423 0.762-0.4445-0.27163-0.45861-0.762-0.51858-1.2524-0.46566-0.70202 0.0776-1.4005 0.17286-2.1026 0.27164-1.3758 0.19755-2.7446 0.42686-4.1063 0.69497-2.7552 0.53975-5.4786 1.2277-8.1598 2.0567-1.5416 0.47625-3.0656 1.0019-4.572 1.5699-0.52564 0.19756-0.29987 1.0513 0.23283 0.8502"/>
   <path d="m291.21 160.49c2.1872-1.457 4.7166-2.2049 7.2637-2.7622 2.794-0.60678 5.6198-1.1007 8.4279-1.6404 1.651-0.3175 3.302-0.63852 4.9883-0.70908-0.10584-0.254-0.20814-0.50447-0.31045-0.75494-0.16227 0.14464-0.32455 0.28575-0.4833 0.42686-0.42686 0.37747 0.19755 1.0019 0.62441 0.62441 0.15875-0.14111 0.32103-0.28575 0.47978-0.42686 0.28575-0.25047 0.0635-0.76905-0.31044-0.75141-3.0057 0.127-5.9937 0.889-8.9394 1.457-2.734 0.52211-5.5174 0.95955-8.1598 1.8486-1.4146 0.47978-2.7799 1.0971-4.0287 1.9262-0.4692 0.31397-0.0282 1.0795 0.44803 0.762"/>
   <path d="m292.62 164.72c3.3796-1.1254 6.8051-2.1131 10.266-2.9457 1.7039-0.41275 3.4184-0.78669 5.1364-1.1254 0.889-0.17286 1.778-0.33867 2.667-0.49389 0.69145-0.11994 1.7286-0.49389 2.3742-0.0847 0.47978 0.30339 0.92075-0.45861 0.4445-0.762-0.49389-0.31397-1.0513-0.3175-1.6157-0.23989-0.67734 0.0917-1.3476 0.21873-2.0214 0.3422-1.4464 0.25753-2.8892 0.53975-4.3251 0.85019-2.8187 0.61031-5.6162 1.3159-8.3855 2.1202-1.6016 0.46214-3.1926 0.96308-4.7731 1.4887-0.53622 0.17992-0.30691 1.0301 0.23284 0.85019"/>
   <path d="m284.14 26.467c0.0529-0.04939 0.10936-0.09878 0.16228-0.14817 0.0388-0.03528 0.27869-0.22931 0.1023-0.09172-0.16228 0.127 0.0317-0.02117 0.0564-0.03528 0.06-0.04233 0.11994-0.08467 0.17991-0.12347 0.28223-0.18697 0.58209-0.35278 0.88548-0.50447 0.15169-0.07761 0.31044-0.14464 0.46566-0.21872-0.27869 0.13406 0 0 0.12347-0.04586 0.32103-0.127 0.64559-0.24342 0.97014-0.35631 1.397-0.47978 2.8046-0.94192 4.2122-1.3899 2.861-0.91017 5.7644-1.7251 8.7312-2.1978 0.21872-0.03528 0.43744-0.06703 0.65617-0.09878-0.0317 0.0035-0.26811 0.03528-0.0565 0.0071 0.13759-0.01764 0.27164-0.03528 0.40922-0.04939 0.41275-0.04939 0.8255-0.08819 1.2382-0.12347 0.85725-0.06703 1.7145-0.09878 2.5718-0.09172 0.92428 0.0035 1.8062-0.81492 1.7639-1.7639-0.0423-0.95956-0.77258-1.7604-1.7639-1.7639-6.3959-0.03528-12.573 1.9826-18.56 4.0252-1.6863 0.57503-3.3161 1.2524-4.6426 2.4765-0.68086 0.62794-0.68439 1.8662 0 2.4941 0.72672 0.66675 1.7709 0.67028 2.4941 0"/>
   <path d="m285.18 33.378c0.92428 0 1.8062-0.81139 1.7639-1.7639-0.0423-0.95603-0.77258-1.7639-1.7639-1.7639-0.92075 0-1.8062 0.81139-1.7639 1.7639 0.0423 0.95603 0.77612 1.7639 1.7639 1.7639"/>
   <path d="m286.02 33.039c0.68439-0.32103 1.3758-0.635 2.0708-0.9278-0.26812 0.11289 0.0917-0.03528 0.17991-0.07056 0.17286-0.07408 0.34925-0.14464 0.52564-0.21519 0.35278-0.13758 0.70556-0.27517 1.0583-0.40922 1.3935-0.52211 2.8046-0.99131 4.2333-1.4005 1.4288-0.41275 2.8751-0.76906 4.3321-1.0689 0.71614-0.14464 1.4323-0.27869 2.1519-0.39864 0.34925-0.05644 0.69498-0.11289 1.0407-0.16228 0.1905-0.02822 0.37747-0.05292 0.56444-0.08114-0.0282 0.0071-0.27516 0.03528-0.067 0.01058 0.13406-0.01411 0.26812-0.03175 0.40217-0.04939 1.6651-0.20461 3.3373-0.32808 5.013-0.38453 0.92075-0.03175 1.8062-0.79022 1.7639-1.7639-0.0423-0.93133-0.77611-1.7992-1.7639-1.7639-6.2054 0.20461-12.397 1.3794-18.228 3.5207-1.7145 0.63147-3.4043 1.3406-5.0588 2.1202-0.83608 0.39158-1.1183 1.6616-0.63147 2.413 0.55386 0.86078 1.5169 1.0548 2.413 0.63147"/>
   <path d="m320.61 157.32c0.10231-0.0988 0.20461-0.19756 0.31397-0.28928 0.10937-0.0952 0.3422-0.24342 0.0882-0.0776 0.27869-0.18345 0.55033-0.37042 0.84314-0.5327 0.25047-0.13758 0.51153-0.25752 0.77258-0.37394-0.3175 0.14111 0.0564-0.0176 0.17992-0.067 0.15875-0.0564 0.3175-0.11289 0.47978-0.1658 1.2912-0.43392 2.6317-0.73378 3.9652-1.016 1.4146-0.30339 2.8399-0.55387 4.2686-0.75848 0.0847-0.0106 0.16933-0.0212 0.254-0.0353-0.0741 0.0106-0.32103 0.0423 0.0388-4e-3 0.16934-0.0212 0.33514-0.0423 0.50448-0.0635 0.36689-0.0423 0.73377-0.0847 1.1007-0.12347 0.73378-0.0741 1.4676-0.13759 2.2013-0.18698 1.6722-0.11289 3.3443-0.15522 5.0165-0.13758 0.92427 0.0106 1.8062-0.81844 1.7639-1.7639-0.0423-0.96308-0.77259-1.7498-1.7639-1.7639-3.0621-0.0353-6.1242 0.1517-9.1616 0.55739-3.0127 0.40217-6.089 0.90311-8.9888 1.845-1.6157 0.52564-3.1468 1.27-4.3709 2.4624-0.66322 0.64558-0.69497 1.8556 0 2.4941 0.71261 0.65616 1.7851 0.68791 2.4941 0"/>
   <path d="m323.39 164.53c0.52211-0.36336 1.076-0.64558 1.6475-0.92075 0.17992-0.0882-0.0494 0.0176-0.0741 0.0282 0.0706-0.0282 0.14111-0.0564 0.21167-0.0847 0.14111-0.0529 0.28575-0.10584 0.42686-0.15875 0.31044-0.11289 0.62441-0.2152 0.94191-0.31045 1.3053-0.40216 2.6282-0.74789 3.9405-1.1112 1.397-0.38805 2.7905-0.78669 4.191-1.1571 0.68439-0.17991 1.3723-0.35278 2.0638-0.50094 0.33161-0.0741 0.66322-0.14111 0.99836-0.20109 0.16581-0.0282 0.33161-0.06 0.49742-0.0847 0.0847-0.0141 0.16581-0.0282 0.25047-0.0388 0.0317-4e-3 0.37042-0.0494 0.18345-0.0282-0.19403 0.0247 0.0811-7e-3 0.0988-7e-3 0.10937-0.0141 0.22225-0.0247 0.33162-0.0353 0.19402-0.0212 0.38805-0.0353 0.58208-0.0494 0.38805-0.0247 0.77964-0.0353 1.1677-0.0317 0.38806 4e-3 0.77611 0.0212 1.1606 0.06 0.0847 7e-3 0.16581 0.0176 0.25047 0.0247-0.18697-0.0176-0.11994-0.0176 0.0247 7e-3 0.22225 0.0353 0.44097 0.0776 0.65969 0.11994 0.89959 0.1905 1.9473-0.26105 2.1696-1.2312 0.20108-0.88194-0.26811-1.9685-1.2312-2.1696-3.1221-0.65264-6.2653-0.21167-9.3239 0.55386-2.8504 0.70908-5.6938 1.5205-8.5125 2.346-1.5452 0.45156-3.108 1.0125-4.438 1.9368-0.75494 0.52211-1.1783 1.5699-0.63147 2.413 0.48331 0.75142 1.6016 1.1959 2.413 0.63147"/>
   <path d="m324.41 139.62c0.86077-2.6106 1.5275-5.2776 1.9967-7.9834h-3.4008c0.82197 2.7552 1.644 5.5069 2.4659 8.2621 0.40569 1.3476 0.80786 2.6988 1.21 4.0464 0.19402 0.64558 0.35983 1.3053 0.58561 1.9403 0.254 0.72319 0.8008 1.2735 1.5804 1.3794 0.74789 0.0988 1.5099-0.25753 1.8697-0.93486 0.29281-0.54681 0.34573-1.2382 0-1.7815l-0.0353-0.0565c-0.49389-0.77611-1.591-1.1606-2.413-0.63147-0.77964 0.50095-1.1606 1.5804-0.63148 2.413l0.0353 0.0565v-1.7815l-0.0388 0.0705c0.35277-0.27163 0.70202-0.53975 1.0548-0.81138l-0.0741 0.0247c0.45155 0.06 0.90311 0.11642 1.3582 0.17639l-0.0705-0.0423c0.21166 0.21166 0.42333 0.42333 0.635 0.63147 0.1023 0.29633 0.13052 0.3563 0.0741 0.17991-0.0247-0.0811-0.0494-0.1658-0.0741-0.25047-0.0423-0.14111-0.0847-0.28222-0.127-0.42333-0.0917-0.30692-0.18345-0.61736-0.2787-0.92781-0.1658-0.56091-0.33514-1.1218-0.50094-1.6863-0.36336-1.2065-0.7232-2.4165-1.083-3.623-0.71261-2.3918-1.4288-4.7801-2.1414-7.1684-0.2152-0.71613-0.92075-1.33-1.7004-1.2947-0.72319 0.0318-1.5663 0.51858-1.7004 1.2947-0.46919 2.7058-1.1359 5.3728-1.9967 7.9834-0.28928 0.87841 0.33514 1.965 1.2312 2.1696 0.97014 0.22225 1.8627-0.29281 2.1696-1.2312"/>
  </g>
 </g>
</svg>
