<?xml version="1.0" encoding="UTF-8"?>
<!-- Created with Inkscape (http://www.inkscape.org/) -->
<svg width="606.71mm" height="205.25mm" version="1.1" viewBox="0 0 606.71 205.25" xmlns="http://www.w3.org/2000/svg">
 <g transform="translate(179.59 -15.218)">
  <path d="m282.35 189.22-30.589-0.28222 0.87842-95.839s5.2176-3.2949 15.325-3.1997c11.187 0.1023 15.265 3.4784 15.265 3.4784l-0.87842 95.843" fill="#aa4724"/>
  <path d="m267.96 89.901c-1.4852-0.01411-2.8575 0.04586-4.131 0.15522 7.8211 0.7867 10.791 3.242 10.791 3.242l-0.87842 95.843 8.6042 0.0811 0.87842-95.843s-4.0781-3.3796-15.265-3.4784" fill="#993e22"/>
  <path d="m283.14 102.91c-5.1153-2.092-10.929-2.2684-16.492-1.8768-4.4944 0.3175-9.0205 0.98072-13.268 2.5435-0.28575 0.10584-0.56797 0.20462-0.83961 0.30339l-0.0459 4.8895c1.1536-0.64205 2.3812-1.1748 3.6124-1.6334 7.56-2.8116 15.96-3.3267 23.805-1.4534 1.0724 0.25753 2.1766 0.58914 3.1926 1.0583l0.0353-3.8312" fill="#c69775"/>
  <path d="m283.06 110.98c-5.1153-2.092-10.926-2.2684-16.492-1.8768-4.4944 0.3175-9.0205 0.98072-13.268 2.5435-0.28575 0.10583-0.56797 0.20461-0.83961 0.30691l-0.0459 4.8895c1.1536-0.64558 2.3812-1.1783 3.6124-1.6369 7.56-2.8116 15.96-3.3232 23.805-1.4534 1.0724 0.25753 2.1766 0.58914 3.1926 1.0583l0.0353-3.8312" fill="#c69775"/>
  <path d="m258.67 139.63c-0.55386 0-0.82197-0.75847-0.87489-1.3406-0.73025-7.8846 0.2152-15.882 0.34572-23.791 0.50095-0.15523 1.0054-0.30339 1.5134-0.43745-0.12347 8.0821 0.51858 16.274-0.17639 24.335-0.0423 0.51153-0.21167 1.1571-0.72319 1.2277-0.0282 4e-3 -0.0564 7e-3 -0.0847 7e-3m-0.55386-29.369c-0.0388-1.2488-0.10583-2.4977-0.21872-3.7394 0.7373-0.23636 1.4817-0.45155 2.2331-0.64205-0.15169 1.3441-0.25753 2.6917-0.33514 4.0464-0.56092 0.1023-1.1218 0.21519-1.6792 0.33514m-0.762-7.8811c-0.0882-0.49742-0.18344-0.99483-0.28928-1.4922-0.3175-1.4993-0.71966-3.0586-0.32103-4.5367 0.31045-1.1606 1.6863-2.54 3.0268-2.54 0.30691 0 0.61383 0.07408 0.90311 0.23989 1.5699 0.89253 0.9525 3.7006 0.62441 5.0553-0.20813 0.86078-0.39158 1.7251-0.55386 2.5929-1.1395 0.18697-2.2684 0.40922-3.3902 0.68086" fill="#b35a3a"/>
  <path d="m257.89 106.52c-0.12348-1.3864-0.29986-2.7658-0.54328-4.1416 1.1218-0.27164 2.2507-0.49389 3.3902-0.68086-0.25752 1.3864-0.45861 2.7799-0.61383 4.1804-0.75142 0.1905-1.4958 0.40569-2.2331 0.64205" fill="#cca283"/>
  <path d="m258.14 114.49c0.0212-1.4146 0.0176-2.8293-0.0247-4.2369 0.55739-0.11995 1.1183-0.23284 1.6792-0.33514-0.0776 1.3758-0.11994 2.7517-0.14111 4.1346-0.508 0.13406-1.0125 0.28222-1.5134 0.43745" fill="#cca283"/>
  <path d="m372.33 193.03h-44.82v-171.82s7.6024-5.9866 22.412-5.9866c16.394 0 22.408 5.9866 22.408 5.9866v171.82" fill="#e5b64e"/>
  <path d="m349.77 15.218c-1.9756 0-3.817 0.10936-5.5351 0.29281 11.874 1.1994 16.401 5.6938 16.401 5.6938v171.82h11.543v-171.82s-6.0149-5.9866-22.408-5.9866" fill="#c99e47"/>
  <g fill="#b77158">
   <path d="m366.29 152.72c0.13406-1.8098 0.0317-3.6371-0.29986-5.4222-7.366-0.38453-31.972-0.0917-31.972-0.0917s-0.68439 0.77258-4e-3 6.1242c3.0339-2.1343 32.406-2.4059 32.276-0.6103"/>
   <path d="m366.81 161.17c0.13405-1.8098 0.0318-3.6371-0.29634-5.4222-7.3695-0.38453-31.976-0.0917-31.976-0.0917s-0.68439 0.77259 0 6.1242c3.0339-2.1343 32.406-2.406 32.272-0.61031"/>
   <path d="m336.26 187.78c9.4827-1.1889 19.36-2.3424 28.395 0.77258-4e-3 -7.3589-7e-3 -14.721-7e-3 -22.08 0-0.23636-4e-3 -0.4833-0.11642-0.69144-0.127-0.23636-0.37395-0.381-0.61736-0.50448-2.6176-1.337-5.6868-1.3864-8.6254-1.3582-3.3796 0.0317-6.7592 0.13406-10.135 0.29986-2.9845 0.14817-6.8404-0.16228-9.6414 0.7867 0.25047 1.9156 1.4817 22.684 0.74789 22.775"/>
  </g>
  <path d="m337.26 87.023c-1.4993-0.0035-2.0955-1.9226-2.2225-3.4149-1.3758-16.002 0.34925-32.205-1.838-48.119-0.53975-3.9194-1.2912-8.0574 0.20461-11.719 1.2594-3.0939 4.6108-5.0447 7.9234-5.0447 0.42686 0 0.85372 0.03175 1.2735 0.09878 2.3812 0.37747 7.2531 2.7376 6.8615 5.6127-0.34573 2.5153-3.7077 3.0445-5.6903 4.632-2.2507 1.7956-2.6458 5.0059-2.8469 7.8811-1.0901 15.402-1.6087 30.847-1.5558 46.288 4e-3 1.6157-0.49389 3.7853-2.1096 3.7853" fill="#ecc87a"/>
  <path d="m338.86 126.9c-0.067 0-0.13759-4e-3 -0.20462-0.0106-1.0971-0.10936-1.9403-1.0936-2.2542-2.1484-0.31397-1.0583-0.20813-2.1837-0.12347-3.2844 0.51506-6.6181 0.17286-13.3-1.016-19.833-0.47978-2.6494-1.0689-5.5457 0.21167-7.9163 0.58914-1.0936 1.3088-1.524 2.0461-1.524 1.6087 0 3.2879 2.0638 3.8206 3.7253 0.48331 1.5169 0.52917 3.1327 0.56092 4.7237 0.14111 7.0485 0.13053 14.097-0.0282 21.142-0.0282 1.1395-0.0635 2.3142-0.55034 3.3479-0.45155 0.96661-1.4076 1.778-2.4624 1.778" fill="#ecc87a"/>
  <path d="m408.16 191.18-35.828-0.27164 1.0125-133.61s6.1101-4.6073 17.949-4.5191c13.106 0.09878 17.879 4.7907 17.879 4.7907l-1.0125 133.61" fill="#6f53ad"/>
  <path d="m391.17 52.775c-1.5769-0.01411-3.0515 0.05997-4.4274 0.19403 9.4862 1.0054 13.077 4.5261 13.077 4.5261l-1.0125 133.61 9.2287 0.0706 1.0125-133.61s-4.7766-4.6919-17.879-4.7907" fill="#5e4a96"/>
  <path d="m380.76 108.54h-0.0141c-1.1959-0.0106-1.6616-1.5064-1.7533-2.667-1.0054-12.453 0.4692-25.044-1.1889-37.43-0.40569-3.0515-0.98072-6.2724 0.23283-9.1122 1.0195-2.3812 3.683-3.8735 6.3147-3.8735 0.3563 0 0.71614 0.02822 1.0689 0.08467 1.9015 0.30692 5.782 2.1696 5.4504 4.4027-0.28928 1.9544-2.981 2.346-4.5755 3.5666-1.8098 1.3864-2.1414 3.8806-2.3213 6.1136-0.96308 11.97-1.4676 23.978-1.5169 35.987-7e-3 1.2524-0.41628 2.9281-1.6969 2.9281" fill="#937ec2"/>
  <path d="m381.8 139.56c-0.06 0-0.11642-4e-3 -0.17639-7e-3 -0.87841-0.0952-1.5452-0.8643-1.7886-1.6863-0.24342-0.82197-0.15522-1.7004-0.0776-2.5541 0.44803-5.1435 0.21519-10.343-0.69497-15.427-0.37042-2.0673-0.82198-4.3215 0.21519-6.156 0.47272-0.84314 1.0478-1.1712 1.6298-1.1712 1.2912 0 2.6282 1.6192 3.0445 2.9175 0.37747 1.1818 0.40216 2.4377 0.4198 3.6759 0.0706 5.4822 0.0212 10.964-0.14817 16.443-0.0282 0.88548-0.0635 1.7992-0.45508 2.5964-0.37042 0.74789-1.1324 1.3688-1.9685 1.3688" fill="#937ec2"/>
  <path d="m327.15 189.72h-44.82v-140.43s7.5988-4.893 22.408-4.893c16.394 0 22.412 4.893 22.412 4.893v140.43" fill="#5b3e3e"/>
  <path d="m304.74 44.389c-2.1731 0-4.1875 0.10936-6.0501 0.28928 11.469 1.0442 15.854 4.6073 15.854 4.6073v140.43h12.608v-140.43s-6.0184-4.8966-22.412-4.8966" fill="#4c3434"/>
  <path d="m327.15 63.245c-7.5248-2.9951-16.041-3.175-24.19-2.5259-6.5828 0.52564-13.201 1.5593-19.403 3.9017-0.42333 0.15875-0.83256 0.30692-1.2277 0.45861v7.1649c1.6792-0.95956 3.4678-1.7533 5.2705-2.4448 11.038-4.2192 23.336-5.0835 34.854-2.4483 1.5804 0.35983 3.1997 0.83608 4.6955 1.5064v-5.6127" fill="#c69775"/>
  <path d="m327.15 68.84v-5.6127c-3.9934-1.591-8.2621-2.3812-12.608-2.6846v5.5386c2.66 0.23989 5.3058 0.65264 7.9128 1.2488 1.5804 0.36336 3.1997 0.83608 4.6955 1.5099" fill="#ad8468"/>
  <path d="m327.1 80.775v-5.6127c-3.9934-1.5875-8.2621-2.3812-12.608-2.6811v5.5351c2.66 0.23989 5.3058 0.65617 7.9128 1.2524 1.5769 0.35983 3.1997 0.83608 4.6955 1.5064" fill="#ad8468"/>
  <path d="m327.15 75.078c-7.5248-2.9951-16.041-3.175-24.19-2.5259-6.5828 0.52564-13.201 1.5593-19.403 3.9017-0.42333 0.15875-0.83256 0.31044-1.2277 0.45861v7.1649c1.6792-0.95956 3.4678-1.7533 5.2705-2.4412 11.038-4.2228 23.336-5.0871 34.854-2.4518 1.5804 0.36336 3.1997 0.83608 4.6955 1.5064v-5.6127" fill="#c69775"/>
  <path d="m327.1 80.775v-5.6127c-3.9934-1.5875-8.2621-2.3812-12.608-2.6811v5.5351c2.66 0.23989 5.3058 0.65617 7.9128 1.2524 1.5769 0.35983 3.1997 0.83608 4.6955 1.5064" fill="#ad8468"/>
  <path d="m320.94 182.09h-30.353v-28.526s8.9394-1.591 15.176-1.6192c7.1579-0.0317 15.176 1.6192 15.176 1.6192v28.526" fill="#c69775"/>
  <path d="m320.94 153.66s-2.861-0.58914-6.6851-1.0583c0.0247 0.15169 0.0529 0.30339 0.0741 0.44803 0.55386 3.877-0.0494 7.8528-1.3688 11.515-0.75495 2.1026-1.7462 4.1134-2.9316 6.0043-1.1007 1.7604-2.3636 3.4361-3.87 4.8683-4.1416 3.9229-9.8319 5.7044-15.572 6.2089v0.53622h30.353v-28.522" fill="#ad8468"/>
  <path d="m291.78 117.37c-0.80433 0-1.203-1.1007-1.2912-1.9544-1.1748-11.539 0.10231-23.269 0.18698-34.861 0.73377-0.23636 1.4711-0.45508 2.2119-0.66322-0.0741 11.846 0.98072 23.834 0.0706 35.655-0.0565 0.75495-0.29281 1.7039-1.0407 1.8133-0.0494 7e-3 -0.0917 0.0106-0.13758 0.0106m-1.1924-43.021c-0.0741-1.8344-0.19403-3.6583-0.37394-5.4786 1.0795-0.3563 2.166-0.68086 3.2632-0.97367-0.20108 1.972-0.34219 3.9511-0.43392 5.9372-0.82197 0.15522-1.6404 0.32808-2.4553 0.51506m-1.2241-11.539c-0.13405-0.73025-0.28222-1.457-0.4445-2.1837-0.48683-2.1908-1.0936-4.4697-0.53269-6.6393 0.4445-1.7145 2.4589-3.7641 4.4274-3.7641 0.44097 0 0.88194 0.10231 1.3018 0.33867 2.3107 1.2912 1.4464 5.4116 0.98425 7.3978-0.29633 1.2665-0.55386 2.5365-0.77964 3.81-1.6651 0.28575-3.3196 0.62794-4.9565 1.0407" fill="#6c5252"/>
  <path d="m290.22 68.872c-0.20109-2.0285-0.47625-4.0499-0.8502-6.0607 1.6369-0.41275 3.2914-0.75494 4.9565-1.0407-0.35983 2.0355-0.635 4.0781-0.84314 6.1277-1.0971 0.29281-2.1837 0.61736-3.2632 0.97367" fill="#cca283"/>
  <path d="m290.68 80.556c0.0141-2.0743-7e-3 -4.1451-0.0882-6.2054 0.81492-0.18697 1.6334-0.35983 2.4553-0.51506-0.0953 2.0144-0.14111 4.0322-0.15522 6.0572-0.74083 0.20814-1.4781 0.42686-2.2119 0.66322" fill="#cca283"/>
  <path d="m293.72 139.09c-0.78317 0-1.4852-0.59972-1.8274-1.3159-0.3563-0.74789-0.39864-1.6051-0.43392-2.4342-0.18344-4.2651-0.37041-8.5302-0.55386-12.795-0.0459-1.0936 0.58561-2.4306 1.6192-2.4306 0.28223 0 0.59267 0.10231 0.93134 0.33162 1.2524 0.8643 0.78669 3.8911 0.83608 5.1858 0.16228 4.0111 0.32103 8.0186 0.48331 12.03 0.0141 0.39511 0.0141 0.83608-0.254 1.1289-0.17287 0.18697-0.43039 0.27517-0.68439 0.29633-0.0388 4e-3 -0.0776 4e-3 -0.11642 4e-3" fill="#6c5252"/>
  <path d="m103.77 51.184 3.8241 53.509s53.82 100.74 55.026 100.45c1.21-0.29633 40.361-11.112 40.361-11.112l-99.212-142.85" fill="#84321f"/>
  <path d="m214.35 186.22-26.793 14.965-83.788-150s1.6263-7.7646 10.481-12.711c9.8002-5.4751 16.316-2.2578 16.316-2.2578l83.785 150.01" fill="#aa4724"/>
  <path d="m114.16 38.526c-1.1783 0.6597-2.2296 1.3688-3.1644 2.1026 7.6835-2.9175 12.58-0.50447 12.58-0.50447l83.785 150 8.4596-1.0689-85.34-152.79s-6.5193-3.2173-16.32 2.2578" fill="#993e22"/>
  <g fill="#c99e47">
   <path d="m170.41 159.46c4.1275-3.5419 8.8829-6.357 13.981-8.255 1.457-0.54328 2.9422-1.0089 4.445-1.404 0.54681-0.14464 0.31397-0.99837-0.23636-0.85373-5.394 1.4217-10.537 3.7994-15.106 7.0026-1.2806 0.90311-2.5188 1.8662-3.7077 2.8857-0.43039 0.37042 0.19403 0.99131 0.62442 0.62442"/>
   <path d="m172.89 162.96c2.7481-1.8803 5.6127-3.5913 8.5796-5.1082 1.4676-0.75494 2.9633-1.464 4.4768-2.1237 0.77258-0.33514 1.5487-0.65969 2.3283-0.97014 0.39864-0.15875 0.79375-0.31044 1.1959-0.46214 0.15522-0.06 0.84667-0.42686 0.99483-0.27516 0.39511 0.40569 1.0195-0.21872 0.62442-0.62442-0.39864-0.40569-0.92781-0.29633-1.4076-0.11994-0.67381 0.24694-1.3441 0.51152-2.0108 0.77964-1.27 0.51152-2.5294 1.0548-3.7747 1.6298-2.5365 1.1783-5.0165 2.4871-7.4154 3.9229-1.3723 0.82197-2.7164 1.6863-4.0393 2.5894-0.46567 0.3175-0.0247 1.083 0.44802 0.762"/>
   <path d="m182.22 180.54c1.7674-1.9156 4.0217-3.235 6.3394-4.3709 2.6211-1.2806 5.2987-2.4448 7.9516-3.6583 1.5028-0.68792 3.0092-1.3723 4.6002-1.8344-0.16581-0.21519-0.33162-0.43039-0.49742-0.64558-0.12347 0.17639-0.24342 0.35278-0.36689 0.52917-0.32456 0.46566 0.44097 0.90663 0.762 0.4445 0.11994-0.17639 0.24342-0.35278 0.36689-0.52917 0.22225-0.32456-0.14464-0.75142-0.49742-0.64911-2.8892 0.83608-5.6127 2.2895-8.3397 3.5348-2.5224 1.1536-5.1153 2.2296-7.4648 3.7148-1.27 0.80081-2.4589 1.7357-3.4749 2.8399-0.38453 0.41628 0.23636 1.0407 0.62089 0.62442"/>
   <path d="m184.6 184.32c2.988-1.8768 6.0537-3.6301 9.1863-5.2458 1.5699-0.81139 3.1538-1.584 4.7554-2.3248 0.8008-0.37042 1.6051-0.73378 2.413-1.0866 0.41275-0.17992 0.8255-0.36689 1.2418-0.53622 0.381-0.15522 0.75848-0.28928 1.1642-0.15522 0.53975 0.17991 0.77258-0.67381 0.23636-0.8502-0.60678-0.20108-1.1994-0.0247-1.7674 0.21167-0.64558 0.26811-1.2876 0.55033-1.9262 0.83608-1.3088 0.57856-2.6106 1.1853-3.8982 1.8098-2.6035 1.263-5.1611 2.6211-7.6694 4.064-1.4111 0.81139-2.8046 1.651-4.1804 2.5153-0.47978 0.29986-0.0353 1.0654 0.4445 0.762"/>
  </g>
  <path d="m67.882 40.022-17.082 28.818 35.183 130.7h36.625l-34.301-126.51-20.426-33.002" fill="#3d4731"/>
  <path d="m143.36 197.4-29.577 8.1986-45.903-165.57s3.4149-7.1614 13.19-9.8707c10.816-2.9986 16.387 1.6686 16.387 1.6686l45.903 165.58" fill="#4f5e40"/>
  <path d="m80.97 30.18c-1.3053 0.35983-2.4906 0.80433-3.5736 1.2947 8.1562-1.016 12.344 2.4871 12.344 2.4871l45.9 165.58 7.62-2.1131-45.903-165.58s-5.5704-4.6672-16.387-1.6686" fill="#3d4731"/>
  <g fill="#c99e47">
   <path d="m73.787 43.476c0.05292-0.04939 0.10936-0.09878 0.16228-0.14817 0.03881-0.03528 0.2787-0.22931 0.10231-0.09172-0.16228 0.127 0.03175-0.02117 0.05644-0.03528 0.05997-0.04233 0.11994-0.08467 0.17992-0.12347 0.28222-0.18697 0.58208-0.35278 0.88547-0.50447 0.1517-0.07761 0.31044-0.14464 0.46567-0.21872-0.2787 0.13406 0 0 0.12347-0.04586 0.32103-0.127 0.64558-0.24342 0.97014-0.35631 1.397-0.47978 2.8046-0.94192 4.2122-1.3899 2.861-0.91017 5.7644-1.7251 8.7312-2.1978 0.21872-0.03528 0.43744-0.06703 0.65617-0.09878-0.03175 0.0035-0.26811 0.03175-0.05644 0.0071 0.13758-0.01764 0.27164-0.03528 0.40922-0.04939 0.41275-0.04939 0.8255-0.09172 1.2382-0.12347 0.85725-0.06703 1.7145-0.09878 2.5718-0.09172 0.92428 0.0035 1.8062-0.81492 1.7639-1.7639-0.04233-0.96308-0.77258-1.7604-1.7639-1.7639-6.3959-0.03528-12.573 1.9826-18.56 4.0252-1.6863 0.57503-3.3161 1.2524-4.6426 2.4765-0.68086 0.62794-0.68086 1.8662 0 2.4941 0.72672 0.66675 1.7709 0.67028 2.4941 0"/>
   <path d="m74.828 50.387c0.92428 0 1.8098-0.81139 1.7639-1.7639-0.04233-0.95603-0.77258-1.7639-1.7639-1.7639-0.92075 0-1.8062 0.81139-1.7639 1.7639 0.04586 0.95603 0.77611 1.7639 1.7639 1.7639"/>
   <path d="m75.675 50.048c0.68439-0.32103 1.3758-0.635 2.0708-0.9278-0.26811 0.11289 0.09172-0.03528 0.17992-0.07056 0.17286-0.07408 0.34925-0.14464 0.52564-0.21519 0.35278-0.13758 0.70556-0.27517 1.0583-0.40922 1.3935-0.52211 2.8046-0.99131 4.2333-1.4005 1.4288-0.41275 2.8751-0.76906 4.3321-1.0689 0.71614-0.14464 1.4323-0.27869 2.1519-0.39864 0.34925-0.05644 0.69497-0.11289 1.0442-0.16228 0.18697-0.02822 0.37394-0.05644 0.56092-0.08114-0.02822 0.0035-0.27517 0.03528-0.06703 0.01058 0.13406-0.01411 0.26811-0.03528 0.40217-0.04939 1.6651-0.20461 3.3373-0.33161 5.013-0.38453 0.92075-0.03175 1.8062-0.79022 1.7639-1.7639-0.04233-0.93133-0.77611-1.7992-1.7639-1.7639-6.2054 0.20461-12.397 1.3794-18.228 3.5207-1.7145 0.63147-3.4043 1.3406-5.0588 2.1202-0.83608 0.39158-1.1183 1.6616-0.63147 2.413 0.55386 0.86078 1.5169 1.0513 2.413 0.63147"/>
   <path d="m110.26 174.33c0.1023-0.0988 0.20461-0.19755 0.31397-0.2928 0.10936-0.0917 0.34219-0.23989 0.0882-0.0776 0.28223-0.17992 0.55034-0.36689 0.84314-0.52917 0.25048-0.13758 0.51153-0.25753 0.77259-0.37394-0.3175 0.14111 0.0564-0.0212 0.17991-0.067 0.15875-0.0564 0.3175-0.11289 0.47978-0.16933 1.2912-0.43039 2.6317-0.73025 3.9652-1.0125 1.4146-0.30339 2.8399-0.55386 4.2721-0.75847 0.0811-0.0106 0.16581-0.0212 0.25047-0.0353-0.0741 0.0106-0.3175 0.0423 0.0388-4e-3 0.16581-0.0212 0.33514-0.0423 0.50447-0.0635 0.36689-0.0423 0.73378-0.0847 1.1007-0.12348 0.73378-0.0741 1.4676-0.13758 2.2013-0.18697 1.6722-0.11289 3.3443-0.15522 5.0165-0.13758 0.92428 0.0106 1.8062-0.81845 1.7639-1.7639-0.0423-0.96308-0.77611-1.7533-1.7639-1.7639-3.0621-0.0353-6.1242 0.15169-9.1616 0.55739-3.0127 0.40217-6.0889 0.90311-8.9888 1.845-1.6157 0.52564-3.1468 1.27-4.3709 2.4624-0.66322 0.64558-0.69497 1.8556 0 2.4941 0.71261 0.65617 1.785 0.68792 2.4941 0"/>
   <path d="m113.04 181.54c0.52211-0.36336 1.076-0.64558 1.6475-0.92075 0.17992-0.0882-0.0494 0.0176-0.0741 0.0282 0.0705-0.0282 0.14111-0.0564 0.21166-0.0847 0.14111-0.0529 0.28575-0.10936 0.42686-0.15875 0.31045-0.11288 0.62795-0.21519 0.94192-0.31044 1.3053-0.40217 2.6282-0.74789 3.9405-1.1112 1.397-0.38806 2.7905-0.78669 4.191-1.1571 0.68439-0.17992 1.3723-0.35278 2.0638-0.50095 0.33161-0.0741 0.66322-0.14111 0.99836-0.20108 0.1658-0.0282 0.33161-0.06 0.49742-0.0847 0.0847-0.0141 0.1658-0.0282 0.25047-0.0388 0.0317-7e-3 0.37041-0.0494 0.18344-0.0282-0.19403 0.0247 0.0811-7e-3 0.0988-0.0106 0.10936-0.0106 0.22225-0.0247 0.33161-0.0353 0.19403-0.0176 0.38806-0.0318 0.58208-0.0459 0.38806-0.0247 0.77964-0.0353 1.1677-0.0318 0.38805 4e-3 0.77611 0.0212 1.1606 0.06 0.0847 7e-3 0.1658 0.0176 0.24694 0.0247-0.18344-0.0176-0.11641-0.0176 0.0282 7e-3 0.22225 0.0353 0.44098 0.0741 0.6597 0.11994 0.89958 0.1905 1.9473-0.26105 2.1696-1.2312 0.20109-0.88195-0.26458-1.9685-1.2312-2.1696-3.1221-0.65263-6.2618-0.21166-9.3239 0.55386-2.8504 0.70909-5.6938 1.5205-8.5125 2.346-1.5452 0.45155-3.108 1.0125-4.4379 1.9368-0.75495 0.52211-1.1783 1.5699-0.63147 2.413 0.4833 0.75141 1.6016 1.1959 2.413 0.63147"/>
   <path d="m114.06 156.63c0.86078-2.6106 1.5275-5.2776 1.9967-7.9834h-3.4008c0.82197 2.7517 1.6439 5.5069 2.4659 8.2621 0.4057 1.3476 0.80786 2.6988 1.21 4.0464 0.19403 0.64558 0.35983 1.3053 0.58561 1.9403 0.254 0.7232 0.80081 1.2735 1.5804 1.3794 0.74789 0.0988 1.5099-0.25753 1.8697-0.93487 0.2928-0.5468 0.34572-1.2382 0-1.7815l-0.0353-0.0564c-0.49389-0.77611-1.591-1.1606-2.413-0.63147-0.77611 0.50094-1.1606 1.5804-0.63147 2.413l0.0353 0.0564v-1.7815l-0.0388 0.0705c0.35278-0.27164 0.70203-0.53975 1.0548-0.81139l-0.0741 0.0247c0.45156 0.0564 0.90311 0.11641 1.3582 0.17639l-0.0706-0.0423c0.21167 0.21167 0.42334 0.41981 0.635 0.63148 0.10231 0.29633 0.13053 0.3563 0.0741 0.17991-0.0247-0.0847-0.0494-0.1658-0.0741-0.25047-0.0423-0.14111-0.0847-0.28222-0.127-0.42333-0.0917-0.31045-0.18344-0.61736-0.27516-0.92781-0.16934-0.56092-0.33867-1.1218-0.50448-1.6863-0.36336-1.2065-0.72319-2.4165-1.083-3.6266-0.71262-2.3883-1.4288-4.7766-2.1414-7.1649-0.21519-0.71614-0.92075-1.33-1.7004-1.2947-0.7232 0.0317-1.5663 0.51858-1.7004 1.2947-0.4692 2.7058-1.136 5.3728-1.9967 7.9834-0.28927 0.87842 0.33514 1.965 1.2312 2.1696 0.97014 0.22225 1.8627-0.29281 2.1696-1.2312"/>
  </g>
  <path d="m23.329 189.06v-44.82h-171.82s-5.9866 7.6024-5.9866 22.412c0 16.394 5.9866 22.408 5.9866 22.408h171.82" fill="#e5b64e"/>
  <path d="m-154.48 166.5c0-1.9756 0.10936-3.8171 0.2928-5.5351 1.1994 11.874 5.6938 16.401 5.6938 16.401h171.82v11.543h-171.82s-5.9866-6.0149-5.9866-22.408" fill="#c99e47"/>
  <g fill="#b77158">
   <path d="m-16.975 183.02c-1.8098 0.13405-3.6371 0.0317-5.4222-0.29634-0.38453-7.3695-0.09172-31.976-0.09172-31.976s0.77611-0.68439 6.1242 0c-2.1343 3.0339-2.4059 32.406-0.6103 32.272"/>
   <path d="m-8.5229 183.54c-1.8098 0.13053-3.6371 0.0282-5.4222-0.29986-0.38453-7.3695-0.09172-31.976-0.09172-31.976s0.77611-0.68439 6.1242 0c-2.1343 3.0339-2.4059 32.406-0.61031 32.276"/>
   <path d="m18.091 152.99c-1.1924 9.4827-2.3424 19.36 0.76906 28.395-7.3589-4e-3 -14.718-4e-3 -22.077-7e-3 -0.23636 0-0.48683-4e-3 -0.69497-0.11642-0.23636-0.127-0.381-0.37394-0.50447-0.61383-1.337-2.6211-1.3864-5.6868-1.3582-8.6289 0.035278-3.3796 0.13406-6.7592 0.29986-10.135 0.14817-2.9845-0.15875-6.8404 0.78669-9.6414 1.9156 0.254 22.687 1.4817 22.779 0.74788"/>
  </g>
  <path d="m-145.59 166.21c-2.727 0-4.9212-4.5896-5.2846-6.8827-0.58209-3.69 1.457-7.7752 4.9459-9.1969 1.6016-0.65617 3.295-0.87842 5.0236-0.87842 2.219 0 4.4909 0.37042 6.6957 0.67381 15.914 2.1872 32.117 0.46213 48.119 1.838 1.4922 0.127 3.4149 0.72319 3.4149 2.2225 0.0035 1.6051-2.1449 2.1096-3.7606 2.1096h-0.02469c-0.70908-4e-3 -1.4252-4e-3 -2.1343-4e-3 -14.732 0-29.46 0.51858-44.154 1.5593-2.8716 0.20461-6.0819 0.59619-7.8811 2.8469-1.5875 1.9826-2.1167 5.3481-4.632 5.6903-0.10936 0.0141-0.21872 0.0212-0.32808 0.0212" fill="#ecc87a"/>
  <path d="m-59.139 158.72c-3.3055 0-6.6111-0.0317-9.9201-0.0988-1.591-0.0318-3.2068-0.0741-4.7237-0.56092-2.4165-0.77611-5.6903-3.9829-2.2013-5.8632 1.0654-0.57503 2.2401-0.77611 3.4466-0.77611 1.4781 0 3.0127 0.29986 4.4732 0.56445 4.5649 0.82902 9.211 1.2453 13.85 1.2453 1.9967 0 3.9934-0.0776 5.9831-0.2293 0.53622-0.0423 1.0795-0.0882 1.6192-0.0882 0.56444 0 1.1218 0.0494 1.6616 0.20814 1.0548 0.31397 2.0391 1.1571 2.1484 2.2542 0.11642 1.1324-0.7373 2.1872-1.7674 2.6705-1.0301 0.4833-2.2084 0.52211-3.3479 0.5468-3.7394 0.0847-7.4789 0.127-11.222 0.127" fill="#ecc87a"/>
  <path d="m23.252 144.46v-35.828h-133.61s-4.6531 6.0748-4.6531 17.914c0 13.102 4.6531 17.914 4.6531 17.914h133.61" fill="#6f53ad"/>
  <path d="m-115.02 126.42c0-1.5769 0.0847-3.0515 0.22578-4.4238 0.93486 9.4932 4.4274 13.109 4.4274 13.109h133.61v9.2287h-133.61s-4.6531-4.8084-4.6531-17.914" fill="#5e4a96"/>
  <path d="m-108.1 126.2c-2.1167 0-3.8276-3.6689-4.1063-5.5033-0.45508-2.9492 1.1289-6.2124 3.8453-7.3519 1.2453-0.52211 2.5612-0.70202 3.9052-0.70202 1.7251 0 3.4925 0.29633 5.207 0.53975 12.375 1.7462 24.977 0.37041 37.419 1.4676 1.1606 0.10231 2.6564 0.57856 2.6564 1.778 0 1.2841-1.6686 1.6863-2.9245 1.6863h-0.01764c-0.55386-4e-3 -1.1042-4e-3 -1.6545-4e-3 -11.458 0-22.916 0.41628-34.343 1.2453-2.2331 0.1658-4.7307 0.47977-6.1277 2.2754-1.2347 1.5875-1.6475 4.2757-3.6019 4.5508-0.0882 0.0106-0.17286 0.0176-0.25752 0.0176" fill="#937ec2"/>
  <path d="m-40.883 120.21c-2.5682 0-5.14-0.0282-7.7082-0.0811-1.2382-0.0247-2.4941-0.06-3.6724-0.44803-1.8803-0.62089-4.4274-3.1821-1.7145-4.6884 0.82903-0.45861 1.7427-0.61736 2.6811-0.61736 1.1501 0 2.3424 0.23636 3.4784 0.44803 3.5525 0.66322 7.1614 0.99836 10.774 0.99836 1.5522 0 3.1009-0.0635 4.6496-0.18697 0.41628-0.0317 0.83961-0.0706 1.2594-0.0706 0.43744 0 0.87136 0.0423 1.2912 0.16933 0.82197 0.25048 1.584 0.92428 1.6722 1.8027 0.09172 0.90311-0.57503 1.7462-1.3758 2.1343-0.8008 0.38453-1.718 0.41628-2.6035 0.43745-2.9069 0.067-5.8208 0.1023-8.7312 0.1023" fill="#937ec2"/>
  <path d="m23.252 108.85v-35.828h-159.82s-5.5668 6.0748-5.5668 17.914c0 13.102 5.5668 17.914 5.5668 17.914h159.82" fill="#4f5e40"/>
  <path d="m-142.13 90.811c0-1.5769 0.0988-3.0515 0.27164-4.4238 1.1148 9.4932 5.2952 13.113 5.2952 13.113h159.82v9.2287h-159.82s-5.5668-4.8119-5.5668-17.918" fill="#3d4731"/>
  <path d="m427.12 220.47h-606.71v-31.408h606.71v31.408" fill="#cca079"/>
  <path d="m67.882 189.72h-44.82v-140.43s7.6024-4.893 22.412-4.893c16.394 0 22.408 4.893 22.408 4.893v140.43" fill="#5b3e3e"/>
  <path d="m45.473 44.389c-2.1766 0-4.1875 0.10936-6.0501 0.28928 11.465 1.0442 15.854 4.6073 15.854 4.6073v140.43h12.605v-140.43s-6.0149-4.8966-22.408-4.8966" fill="#4c3434"/>
  <path d="m67.882 63.245c-7.5248-2.9951-16.041-3.175-24.186-2.5259-6.5828 0.52564-13.204 1.5593-19.406 3.9017-0.41981 0.15875-0.82903 0.30692-1.2277 0.45861v7.1649c1.6792-0.95956 3.4713-1.7533 5.2705-2.4448 11.038-4.2192 23.336-5.0835 34.858-2.4483 1.5769 0.35983 3.1997 0.83608 4.6919 1.5064v-5.6127" fill="#c69775"/>
  <path d="m67.882 68.84v-5.6127c-3.9899-1.591-8.2621-2.3812-12.605-2.6846v5.5386c2.6599 0.23989 5.3058 0.65264 7.9128 1.2488 1.5769 0.36336 3.1997 0.83608 4.6919 1.5099" fill="#ad8468"/>
  <path d="m67.832 80.775v-5.6127c-3.9899-1.5875-8.2621-2.3812-12.608-2.6811v5.5351c2.6635 0.23989 5.3093 0.65617 7.9163 1.2524 1.5769 0.35983 3.1962 0.83608 4.6919 1.5064" fill="#ad8468"/>
  <path d="m67.882 75.078c-7.5248-2.9951-16.041-3.175-24.186-2.5259-6.5828 0.52564-13.204 1.5593-19.406 3.9017-0.41981 0.15875-0.82903 0.31044-1.2277 0.45861v7.1649c1.6792-0.95956 3.4713-1.7533 5.2705-2.4412 11.038-4.2228 23.336-5.0871 34.858-2.4518 1.5769 0.36336 3.1997 0.83608 4.6919 1.5064v-5.6127" fill="#c69775"/>
  <path d="m67.832 80.775v-5.6127c-3.9899-1.5875-8.2621-2.3812-12.608-2.6811v5.5351c2.6635 0.23989 5.3093 0.65617 7.9163 1.2524 1.5769 0.35983 3.1962 0.83608 4.6919 1.5064" fill="#ad8468"/>
  <path d="m61.673 182.09h-30.353v-28.526s8.9359-1.591 15.176-1.6192c7.1543-0.0317 15.176 1.6192 15.176 1.6192v28.526" fill="#c69775"/>
  <path d="m61.673 153.66s-2.861-0.58914-6.6887-1.0583c0.02822 0.15169 0.05292 0.30339 0.07408 0.44803 0.55739 3.877-0.04939 7.8528-1.3652 11.515-0.75494 2.1026-1.7462 4.1134-2.9316 6.0043-1.1042 1.7604-2.3636 3.4361-3.8735 4.8683-4.1381 3.9229-9.8284 5.7044-15.568 6.2089v0.53622h30.353v-28.522" fill="#ad8468"/>
  <path d="m32.516 117.37c-0.80433 0-1.203-1.1007-1.2912-1.9544-1.1748-11.539 0.1023-23.269 0.18697-34.861 0.73378-0.23636 1.4711-0.45508 2.2119-0.66322-0.07408 11.846 0.98072 23.834 0.07056 35.655-0.05644 0.75495-0.29633 1.7039-1.0442 1.8133-0.04586 7e-3 -0.09172 0.0106-0.13406 0.0106m-1.1959-43.021c-0.07056-1.8344-0.1905-3.6583-0.37042-5.4786 1.076-0.3563 2.1661-0.68086 3.2597-0.97367-0.20108 1.972-0.33867 3.9511-0.43392 5.9372-0.82197 0.15522-1.6404 0.32808-2.4553 0.51506m-1.2206-11.539c-0.13758-0.73025-0.28575-1.457-0.4445-2.1837-0.48683-2.1908-1.0971-4.4697-0.5327-6.6393 0.44097-1.7145 2.4553-3.7641 4.4274-3.7641 0.44097 0 0.88194 0.10231 1.3018 0.33867 2.3107 1.2912 1.4429 5.4116 0.98072 7.3978-0.2928 1.2665-0.55033 2.5365-0.77611 3.81-1.6651 0.28575-3.3196 0.62794-4.9565 1.0407" fill="#6c5252"/>
  <path d="m30.949 68.872c-0.20108-2.0285-0.47978-4.0499-0.85019-6.0607 1.6369-0.41275 3.2914-0.75494 4.9565-1.0407-0.35983 2.0355-0.635 4.0781-0.84667 6.1277-1.0936 0.29281-2.1837 0.61736-3.2597 0.97367" fill="#cca283"/>
  <path d="m31.412 80.556c0.01411-2.0743-0.01058-4.1451-0.09172-6.2054 0.81492-0.18697 1.6334-0.35983 2.4553-0.51506-0.09172 2.0144-0.13758 4.0322-0.1517 6.0572-0.74083 0.20814-1.4781 0.42686-2.2119 0.66322" fill="#cca283"/>
  <path d="m34.453 139.09c-0.78317 0-1.4887-0.59972-1.8274-1.3159-0.3563-0.74789-0.39864-1.6051-0.43744-2.4342-0.18344-4.2651-0.36689-8.5302-0.55033-12.795-0.04939-1.0936 0.58208-2.4306 1.6157-2.4306 0.28575 0 0.59619 0.10231 0.93486 0.33162 1.2524 0.8643 0.78317 3.8911 0.83608 5.1858 0.15875 4.0111 0.32103 8.0186 0.47978 12.03 0.01764 0.39511 0.01764 0.83608-0.25047 1.1289-0.17286 0.18697-0.43039 0.27517-0.68439 0.29633-0.03881 4e-3 -0.07761 4e-3 -0.11642 4e-3" fill="#6c5252"/>
  <g fill="#c99e47">
   <path d="m-14.277 78.789c-0.71967 6.7557-1.0866 13.554-1.0724 20.348 0.0035 1.8274 0.07408 3.7289 0.74083 5.4539 0.33161 0.85725 1.1994 1.5452 2.1696 1.2312 0.83608-0.27164 1.5875-1.2488 1.2312-2.1696-0.13053-0.34573-0.24342-0.69145-0.33161-1.0513-0.04586-0.17639-0.08114-0.35631-0.11642-0.53622-0.01411-0.0776-0.02469-0.15523-0.03881-0.23284-0.08467-0.49389 0.01058 0.20814-0.01411-0.0776-0.05997-0.76905-0.10583-1.531-0.11289-2.3001-0.01058-1.6404 0.01411-3.2808 0.04939-4.9212 0.07761-3.3408 0.24342-6.6816 0.49742-10.015 0.14817-1.9121 0.32103-3.8206 0.52564-5.7291 0.09878-0.92075-0.88194-1.8027-1.7639-1.7639-1.0407 0.04586-1.6581 0.77611-1.7639 1.7639"/>
   <path d="m-7.6162 78.803c-0.59972 7.5318-0.89253 15.092-0.86783 22.648 0.00353 0.52564 0.00706 1.0513 0.010583 1.5769 0.00706 0.66322-0.028222 1.337 0.32456 1.9297 0.53269 0.90311 1.7251 1.2453 2.6423 0.71261 0.90664-0.52916 1.2453-1.7251 0.69497-2.6317-0.47978-0.79022-1.6051-1.1571-2.413-0.63147-0.79375 0.508-1.1465 1.5663-0.635 2.413l0.038806 0.06c-0.059972-0.45155-0.11994-0.90664-0.17992-1.3582 0.038806-0.0952 0.077611-0.1905 0.11642-0.28575 0.21167-0.21167 0.42333-0.42334 0.635-0.635l-0.074083 0.0423c0.29633-0.0811 0.59267-0.16228 0.889-0.23989l-0.077611-4e-3c0.29633 0.0811 0.59267 0.16228 0.889 0.24342l-0.084667-0.0564c0.21167 0.21166 0.41981 0.42333 0.63147 0.635 0.045861 0.067 0.10936 0.93133 0.13758 0.4198 0.00706-0.0882-0.00353-0.17639-0.00353-0.26458 0-0.20461-0.00353-0.40922-0.00353-0.61383-0.00353-0.4057-0.00706-0.81492-0.00706-1.2241-0.00353-0.81845-0.00353-1.6334 0-2.4518 0.010583-1.6334 0.03175-3.2667 0.070556-4.9001 0.074083-3.2667 0.21167-6.5334 0.40217-9.7966 0.11289-1.8627 0.24342-3.7289 0.39158-5.588 0.074083-0.92428-0.86431-1.8062-1.7639-1.7639-1.0195 0.04586-1.6863 0.77611-1.7639 1.7639"/>
   <path d="m13.797 79.018c-0.26811 6.8227-0.16933 13.656 0.31044 20.468 0.13406 1.9191 0.29633 3.8382 0.49036 5.7538 0.09172 0.91369 0.74436 1.8098 1.7639 1.7639 0.87842-0.0388 1.8627-0.77963 1.7639-1.7639-0.68439-6.791-1.0019-13.621-0.94192-20.447 0.01764-1.9262 0.06703-3.8488 0.14111-5.775 0.03528-0.92075-0.83608-1.8062-1.7639-1.7639-0.98778 0.04586-1.7251 0.77611-1.7639 1.7639"/>
   <path d="m-125.37 80.817c-1.9861 0.93839-2.3495 3.5631-2.4377 5.4998-0.0953 2.1096 0.4445 4.2228 1.8874 5.8067 1.2876 1.4111 3.182 2.1766 5.0059 2.6035 2.092 0.49036 4.2721 0.73025 6.417 0.85372 3.7218 0.21167 8.4173 0.20108 10.964-3.0162 1.2382-1.5628 1.8274-3.5772 1.6157-5.5668-0.21167-2.0038-1.0583-3.8029-2.4553-5.2599-3.4537-3.5948-8.7348-3.9123-13.339-2.8963-0.90312 0.19756-1.5134 1.2947-1.2312 2.1696 0.30692 0.94897 1.203 1.4429 2.1696 1.2312 0.45509-0.09878 0.9137-0.1905 1.3758-0.26106 0.0494-0.0071 0.39158-0.05644 0.17286-0.02822-0.2152 0.02822 0.127-0.01411 0.17639-0.02117 0.24694-0.02469 0.49036-0.04939 0.7373-0.06703 0.46567-0.03175 0.93134-0.04233 1.397-0.03175 0.21873 0.0035 0.43745 0.01411 0.65617 0.03175 0.10936 0.0071 0.21872 0.01411 0.32456 0.02469 0.14111 0.01411 0.36336 0.03881 0.1023 0.0035 0.83961 0.11289 1.6545 0.33514 2.4483 0.63147 0.22225 0.08114 0.14111 0.04586 0.0529 0.01058-0.0494-0.01764-0.10231-0.0388-0.10584-0.03528 0.0212-0.01058 0.20109 0.09172 0.24342 0.10936 0.17992 0.08467 0.3563 0.17639 0.53269 0.27164 0.32809 0.17992 0.64206 0.38806 0.9525 0.5962 0.27517 0.18697-4e-3 -0.02117-0.0388-0.03528 0.0635 0.02822 0.14816 0.11642 0.20461 0.16581 0.15169 0.127 0.29633 0.25753 0.44097 0.39511 0.127 0.11994 0.24695 0.24694 0.36689 0.37394 0.06 0.0635 0.11642 0.13053 0.17286 0.19756 0.17992 0.20814 0.1517 0.05997 0.0106 0 0.10584 0.04586 0.23989 0.33161 0.30339 0.42686 0.10584 0.1658 0.20814 0.33514 0.29986 0.508 0.0423 0.07761 0.0847 0.15522 0.11995 0.23636 0.0282 0.05292 0.15875 0.30692 0.0459 0.08114-0.10936-0.22225 7e-3 0.02469 0.0318 0.08467 0.0353 0.09878 0.0706 0.20108 0.10231 0.30339 0.0529 0.16228 0.0988 0.32808 0.13405 0.49389 0.0247 0.10231 0.0459 0.20814 0.067 0.31397 0.0106 0.0635 0.0423 0.3422 0.0141 0.08114-0.0247-0.27164 0.0176 0.2787 0.0212 0.3422 0.0106 0.1905 0.0106 0.381 4e-3 0.57503-7e-3 0.1517 0.0106 0.36689-0.0423 0.508 0.13758-0.37747 0.0212-0.17286-7e-3 -0.02822-0.0141 0.08114-0.0318 0.16581-0.0529 0.24694-0.0388 0.1658-0.0847 0.32808-0.13758 0.48683-0.0247 0.08114-0.0564 0.15875-0.0811 0.23989-0.0318 0.09525 0 0.03175 0.0282-0.03175 0.0318-0.07056 0.0564-0.14111-0.0212 0.01411-0.0741 0.15169-0.14816 0.29986-0.23283 0.44803-0.0529 0.08819-0.10936 0.17639-0.16581 0.26458-0.0353 0.05292-0.18344 0.28222-0.0459 0.07761 0.13406-0.20461-0.0176 0.01764-0.06 0.06703-0.0564 0.0635-0.11289 0.127-0.17286 0.1905-0.13758 0.14464-0.28575 0.27517-0.43745 0.40569-0.17991 0.16228-0.10583 0.09878-0.0353 0.03528 0.0423-0.03528 0.0811-0.06703 0.0811-0.06703l-0.2152 0.14817c-0.1658 0.10936-0.33514 0.20814-0.51153 0.29986-0.0776 0.04233-0.15522 0.08114-0.23283 0.11642-0.0564 0.02822-0.3175 0.14111-0.0917 0.04586 0.22578-0.09172-0.0423 0.01411-0.0988 0.03528-0.10231 0.03881-0.20814 0.07408-0.31397 0.10936-0.36336 0.11642-0.73378 0.21167-1.1112 0.28222-0.17639 0.03528-0.35631 0.0635-0.53622 0.09525-0.14112 0.02117-0.0318 0.01058 0.0529 0 0.0706-0.01058 0.127-0.02117 7e-3 -0.01058-0.11289 0.01058-0.22578 0.02822-0.3422 0.0388-0.80433 0.07408-1.6157 0.08819-2.4236 0.07761-0.97719-0.01058-1.9509-0.05644-2.921-0.13758-0.48683-0.03881-0.97367-0.08819-1.457-0.14464-0.11289-0.01411-0.22578-0.03175-0.3422-0.04233-0.13758-0.01411-0.0882-0.0071-0.0282 0 0.0635 0.0071 0.13758 0.01764-0.0141-0.0035-0.254-0.03881-0.51153-0.07408-0.76553-0.11642-0.79375-0.12347-1.584-0.26811-2.3601-0.47625-0.35983-0.09878-0.71967-0.21167-1.0724-0.34219-0.0811-0.03175-0.16227-0.0635-0.24341-0.09525-0.11289-0.04586-0.0529-0.01411 0.0176 0.01411 0.0741 0.03528 0.15522 0.06703 0.0423 0.0071-0.17286-0.08819-0.35278-0.16581-0.52211-0.26106-0.18697-0.10231-0.37042-0.21519-0.54681-0.33514-0.0564-0.0388-0.15522-0.09525-0.20814-0.14817 0.29987 0.3175 0.0353 0.01764-0.0353-0.04586-0.14111-0.13053-0.2787-0.26458-0.4057-0.40922-0.0388-0.04233-0.21872-0.25753-0.067-0.06703 0.16581 0.20108-0.1023-0.15875-0.13052-0.20814-0.0917-0.14464-0.28223-0.381-0.30339-0.55386 0.0388 0.28928 0.06 0.15522 0.0176 0.03528-0.0459-0.13406-0.0917-0.26458-0.13406-0.39864-0.0564-0.20108-0.10583-0.40922-0.14111-0.61383-0.0212-0.11642-0.12347-0.40569-0.0106-0.02469-0.0318-0.10936-0.0247-0.23989-0.0318-0.35278-0.0318-0.45508-0.0247-0.9137 7e-3 -1.3688 7e-3 -0.09525 0.0141-0.1905 0.0212-0.28575 0.0106-0.09878 0.0564-0.53975 7e-3 -0.10231 0.0212-0.20461 0.06-0.40569 0.0988-0.60678 0.0353-0.17992 0.0741-0.36336 0.127-0.54328 0.0212-0.07761 0.0494-0.15875 0.0741-0.23636 0.0529-0.19403 7e-3 -0.11289-0.0282-0.02822-0.0353 0.08114-0.0564 0.16228 0.0353-0.0071 0.0423-0.06703 0.0811-0.14111 0.11642-0.20814 0.0882-0.13053 0.0882-0.13406-4e-3 -0.01764-0.0917 0.11642-0.0882 0.11289 0.0106 0 0.20814-0.07761-0.11289-0.20461-0.0952 0.04586-4e-3 -0.04233 0.28223-0.15875 0.30692-0.17286 0.83961-0.39511 1.1183-1.6616 0.635-2.413-0.55739-0.86078-1.5205-1.0548-2.413-0.635"/>
  </g>
  <path d="m-133.86 90.586c-2.5365 0-4.579-3.6689-4.9142-5.5033-0.54328-2.9492 1.3511-6.2124 4.5967-7.3519 1.4922-0.52211 3.0692-0.70203 4.6743-0.70203 2.0638 0 4.1769 0.29633 6.23 0.53975 3.3549 0.39511 6.7275 0.63147 10.107 0.77258h-0.13053c-1.4852 0-2.981 0.18344-4.4097 0.50094-0.90312 0.19756-1.5134 1.2947-1.2312 2.1696 0.26106 0.80081 0.94192 1.2806 1.7286 1.2806 0.14464 0 0.29281-0.01764 0.44097-0.04939 0.45509-0.09878 0.9137-0.1905 1.3758-0.26106 0.0247-0.0035 0.11641-0.01764 0.17991-0.02822 0.0635-0.0071 0.14817-0.01764 0.16934-0.02117 0.24694-0.02469 0.49036-0.04939 0.7373-0.06703 0.35631-0.02117 0.71614-0.03528 1.0724-0.03528 0.10936 0 0.21872 0 0.32455 0.0035 0.21873 0.0035 0.43745 0.01411 0.65617 0.03175 0.10936 0.0071 0.21872 0.01411 0.32456 0.02469 0.0882 0.0071 0.20813 0.02117 0.22225 0.02117h-7e-3c0.80081 0.11642 1.5769 0.33161 2.3354 0.61383 0.0353 0.01411 0.0635 0.02117 0.0847 0.03175 0.0459 0.02117 0.0882 0.04586 0.10583 0.05292 0.17992 0.08467 0.3563 0.17639 0.53269 0.27164 0.10231 0.05644 0.20109 0.11289 0.30339 0.17639-4.5261 0.18344-9.0488 0.41275-13.568 0.68792-0.55386 0.03175-1.1254 0.07408-1.6933 0.13053 0.0106-0.0035 0.0212-0.0071 0.0247-0.01058 0.83961-0.39511 1.1183-1.6616 0.635-2.413-0.36689-0.5715-0.91369-0.84667-1.5028-0.84667-0.29986 0-0.61031 0.07055-0.91017 0.21167-1.524 0.71967-2.092 2.4306-2.3142 4.064-0.5962 0.29281-1.1289 0.66322-1.5699 1.1395-1.4746 1.584-1.9685 4.2721-4.3074 4.5473-0.10231 0.01058-0.20461 0.01764-0.30339 0.01764m30.424-7.7117c-0.2787-0.39864-0.58914-0.77611-0.93134-1.1359-2.0955-2.1802-4.8578-3.1538-7.7364-3.3584 11.172 0.40217 22.43-0.16581 33.584 0.65617 1.3899 0.1023 3.175 0.57856 3.1785 1.778 0 1.2841-1.9967 1.6863-3.496 1.6863h-0.02469c-0.6597 0-1.3194-0.0035-1.9791-0.0035-7.5353 0-15.067 0.127-22.595 0.37747m-5.9126-0.34572c-0.0388-0.01411-0.0741-0.02822-0.0811-0.02822h4e-3c0.0141 0 0.0423 0.01058 0.0776 0.02822" fill="#7b8670"/>
  <path d="m-127.68 84.881c0.22225-1.6334 0.79022-3.3443 2.3142-4.064 0.29986-0.14111 0.61031-0.21167 0.91017-0.21167 0.58914 0 1.1359 0.27517 1.5028 0.84667 0.48331 0.75142 0.20461 2.0179-0.635 2.413-4e-3 0.0035-0.0141 0.0071-0.0247 0.01058-1.4429 0.15169-2.8787 0.4198-4.0675 1.0054m19.329-1.8239c-0.1023-0.0635-0.20108-0.11994-0.30339-0.17639-0.17639-0.09525-0.35277-0.18697-0.53269-0.27164-0.0176-0.0071-0.06-0.03175-0.10583-0.05292-0.0212-0.01058-0.0494-0.01764-0.0847-0.03175-0.75847-0.28222-1.5346-0.49742-2.3354-0.61383h7e-3c-0.0141 0-0.13406-0.01411-0.22225-0.02117-0.10584-0.01058-0.2152-0.01764-0.32456-0.02469-0.21872-0.01764-0.43744-0.02822-0.65617-0.03175-0.10583-0.0035-0.21519-0.0035-0.32455-0.0035-0.35631 0-0.71614 0.01411-1.0724 0.03528-0.24694 0.01764-0.49036 0.04233-0.7373 0.06703-0.0212 0.0035-0.10584 0.01411-0.16934 0.02117-0.0635 0.01058-0.15522 0.02469-0.17991 0.02822-0.46214 0.07056-0.92075 0.16228-1.3758 0.26106-0.14816 0.03175-0.29633 0.04939-0.44097 0.04939-0.78669 0-1.4676-0.47978-1.7286-1.2806-0.28222-0.87489 0.32808-1.972 1.2312-2.1696 1.4288-0.3175 2.9245-0.50094 4.4097-0.50094h0.13053c0.35277 0.01411 0.70908 0.02822 1.0619 0.03881 2.8787 0.20461 5.6409 1.1783 7.7364 3.3584 0.3422 0.35983 0.65264 0.73731 0.93134 1.1359-1.6404 0.05644-3.2773 0.11642-4.9142 0.18344m-1.0795-0.55739c7e-3 0 0.0423 0.01411 0.0811 0.02822-0.0353-0.01764-0.0635-0.02822-0.0776-0.02822h-4e-3" fill="#d7b675"/>
  <path d="m-53.46 84.603c-3.0727 0-6.1454-0.02822-9.2181-0.08114-1.4817-0.02469-2.9845-0.05997-4.3956-0.44803-2.2507-0.62089-5.2917-3.1821-2.0496-4.6884 0.99131-0.45861 2.0814-0.61736 3.2068-0.61736 1.3758 0 2.8011 0.23636 4.1592 0.44803 4.251 0.66322 8.569 0.99836 12.887 0.99836 1.8556 0 3.7112-0.0635 5.5598-0.18344 0.50094-0.03528 1.0089-0.07056 1.5099-0.07056 0.52564 0 1.0442 0.03881 1.5452 0.16581 0.98072 0.25047 1.8944 0.92428 2.0002 1.8027 0.10583 0.90311-0.68792 1.7462-1.6475 2.1343-0.95956 0.38453-2.0532 0.41628-3.1115 0.43744-3.4819 0.06703-6.9638 0.10231-10.446 0.10231" fill="#7b8670"/>
  <path d="m126.45 51.78c-0.48683 0-0.93839 0.09878-1.337 0.29633-1.4676 0.71967-2.2789 2.8011-2.226 5.7115 0.0564 3.1432 1.0724 6.8756 2.861 10.513 3.048 6.2089 7.7223 10.714 11.116 10.714 0.48684 0 0.93839-0.09878 1.337-0.29633 1.4676-0.71967 2.2789-2.8011 2.226-5.715-0.06-3.1397-1.076-6.8721-2.861-10.509-3.0515-6.2089-7.7258-10.714-11.116-10.714zm10.414 28.646c-3.9652 0-9.0558-4.7308-12.382-11.504-1.8768-3.8171-2.9457-7.7611-3.0057-11.105-0.0635-3.5348 1.0054-6.0219 3.0127-7.0062 0.59619-0.2928 1.2559-0.44097 1.9614-0.44097 3.9617 0 9.0558 4.7308 12.382 11.504 1.8768 3.8171 2.9422 7.7611 3.0021 11.105 0.067 3.5313-1.0054 6.0219-3.0127 7.0062-0.59267 0.2928-1.2524 0.44097-1.9579 0.44097" fill="#c99e47"/>
  <g fill="#e5b64e">
   <path d="m378.21 149.04c1.0936-0.82903 2.4412-0.93839 3.7677-0.94545 1.6545-7e-3 3.3091 0.0423 4.9636 0.0635 3.3443 0.0459 6.7098-0.0212 10.051 0.18697 1.7145 0.10584 3.4678 0.35278 5.0588 1.0301 0.44097 0.18345 0.94544 0.13053 1.2065-0.3175 0.21872-0.37041 0.127-1.0195-0.31398-1.2065-3.175-1.3441-6.6146-1.33-10.001-1.3758-3.5842-0.0494-7.1684-0.13405-10.753-0.14464-1.6757-4e-3 -3.4854 0.13759-4.8683 1.1853-0.37747 0.28927-0.57855 0.762-0.3175 1.2065 0.21873 0.37394 0.8255 0.60677 1.2065 0.3175"/>
   <path d="m376.31 185.17c3.3443-1.1536 6.7451-2.3566 10.276-2.7905 3.5101-0.43039 7.0379-0.0423 10.467 0.77964 1.9756 0.47625 3.9158 1.083 5.835 1.7462 0.45155 0.15522 0.96661-0.17639 1.0866-0.61383 0.13406-0.48684-0.1658-0.93134-0.61736-1.0866-3.489-1.2065-7.0556-2.2049-10.735-2.6035-3.6901-0.40217-7.3342 0.0176-10.904 0.98778-1.9861 0.53975-3.9335 1.21-5.8773 1.8803-0.44803 0.15523-0.74789 0.60325-0.61384 1.0866 0.11995 0.43744 0.63148 0.77258 1.083 0.61383"/>
   <path d="m383.89 156.55c0.28222-0.76905 1.2559-1.0689 2.0002-1.2065 0.97013-0.17286 2.0426-0.1023 2.9916 0.16581 0.94192 0.26458 1.7956 0.79728 2.3036 1.651 0.45156 0.75847 0.64206 1.711 0.45861 2.5788-0.35278 1.658-1.7709 2.6282-3.1291 3.4749-1.4605 0.91016-3.0656 1.7498-4.1522 3.1221-0.80434 1.0195-1.1501 2.1661-1.2912 3.4502-0.17286 1.5699-0.25753 3.1574-0.38453 4.7308-0.0353 0.47625 0.43745 0.88194 0.88195 0.88194l10.573 0.0423c1.1359 4e-3 1.1395-1.7604 0-1.7639l-10.573-0.0423c0.29633 0.29633 0.58914 0.58914 0.88194 0.88195 0.11995-1.4993 0.21872-2.9986 0.35984-4.4979 0.0988-1.0407 0.381-1.9756 1.0266-2.7093 1.2171-1.3794 3.0021-2.1308 4.5156-3.1962 1.7357-1.2206 3.1538-2.8963 3.115-5.1329-0.0459-2.5823-1.8556-4.6143-4.318-5.2246-2.3777-0.58913-5.9796-0.35983-6.9603 2.3248-0.16228 0.44803 0.18344 0.96661 0.61736 1.0866 0.49036 0.13405 0.92075-0.16934 1.083-0.61737"/>
  </g>
 </g>
</svg>
