<?xml version="1.0" encoding="UTF-8" standalone="no"?>
<!-- Created with Inkscape (http://www.inkscape.org/) -->

<svg
   width="52.669mm"
   height="53.279mm"
   version="1.1"
   viewBox="0 0 52.669 53.279"
   id="svg34"
   sodipodi:docname="analysis.svg"
   inkscape:version="1.1.1 (3bf5ae0d25, 2021-09-20)"
   xmlns:inkscape="http://www.inkscape.org/namespaces/inkscape"
   xmlns:sodipodi="http://sodipodi.sourceforge.net/DTD/sodipodi-0.dtd"
   xmlns="http://www.w3.org/2000/svg"
   xmlns:svg="http://www.w3.org/2000/svg">
  <defs
     id="defs38" />
  <sodipodi:namedview
     id="namedview36"
     pagecolor="#ffffff"
     bordercolor="#666666"
     borderopacity="1.0"
     inkscape:pageshadow="2"
     inkscape:pageopacity="0.0"
     inkscape:pagecheckerboard="0"
     inkscape:document-units="mm"
     showgrid="false"
     inkscape:zoom="3.5705516"
     inkscape:cx="99.564448"
     inkscape:cy="100.68472"
     inkscape:window-width="1920"
     inkscape:window-height="1013"
     inkscape:window-x="-9"
     inkscape:window-y="29"
     inkscape:window-maximized="1"
     inkscape:current-layer="svg34" />
  <g
     transform="translate(-92.211 -106.51)"
     id="g32">
    <path
       d="m114.79 106.54s-16.503-0.73021-19.278 5.7687-4.3083 21.322-2.5558 28.552 1.9716 15.116 9.7849 13.655c7.8133-1.4604 10.88 2.1176 12.122 3.9432 1.2414 1.8255 10.807 2.4097 16.722-2.4097 5.9148-4.8194 13.509 0.51115 13.29-5.6957-0.21906-6.2069-4.3813-19.935-2.7018-25.485 1.6795-5.5497-11.757-18.109-19.643-18.182-7.8864-0.073-7.7403-0.14605-7.7403-0.14605z"
       fill="#c8beb7"
       id="path2"
       style="fill:#e5d5ff" />
    <g
       id="g18">
      <rect
         x="102.38"
         y="113.44"
         width="29.72"
         height="16.028"
         fill="#fff"
         stroke="#000"
         stroke-linejoin="round"
         stroke-opacity=".39918"
         stroke-width=".3"
         id="rect4" />
      <circle
         cx="124.41"
         cy="121.29"
         r="4.856"
         fill="#fd5"
         id="circle6" />
      <path
         d="m129.29 121.13a4.929 5.0619 0 0 1-4.7123 5.057l-0.21674-5.057z"
         fill="#f0f"
         id="path8" />
      <rect
         x="105.39"
         y="123.63"
         width="1.4443"
         height="3.6273"
         fill="#faa"
         id="rect10" />
      <rect
         x="107.31"
         y="122.66"
         width="1.4443"
         height="4.5899"
         fill="#80ff80"
         id="rect12" />
      <rect
         x="109.23"
         y="121.79"
         width="1.4443"
         height="5.4662"
         fill="#59f"
         id="rect14" />
      <rect
         x="111.14"
         y="121.27"
         width="1.4443"
         height="5.9822"
         fill="#f5d"
         id="rect16" />
    </g>
    <g
       fill="#a66083"
       id="g26">
      <path
         d="m104.17 145.17s-2.2461 2.2203-2.7366 2.3494c-0.49052 0.12908-1.6523 0.87778-1.8846 0.64543-0.23236-0.23236-0.33562-0.0258-0.59379-0.46471-0.25817-0.43889-0.05163-1.1876-0.41307-2.1686-0.36144-0.98105-1.4974-4.3889-1.0069-5.7314 0.49052-1.3425 3.3562-8.6229 3.3562-8.6229s0.28399-0.59379 0.38726-0.80033-0.25817-4.5696 0.28399-5.0085l0.54216-0.43889 1.6265-0.80033s0.80033 0.23235-0.10327 0.85196c-0.9036 0.61962-1.6781 1.6781-1.136 2.3752s0.87779 1.6007 1.2134 1.7297c0.33562 0.12909 0.12908 1.0069 0.12908 1.0069s-0.67124 0.23236-0.77451 1.4458-0.12908 4.3631-0.12908 4.3631l0.69706 4.4405z"
         id="path20"
         style="fill:#ffbacc;fill-opacity:1" />
      <path
         d="m115.65 126.89 0.1643 6.8275 6.4807-0.073-0.3286-7.1926z"
         id="path22"
         style="fill:#ffbacc;fill-opacity:1" />
      <path
         d="m131.25 147.13 1.3683 1.6007s0.54216 0.10327 1.3425 0.51634c0.80033 0.41308 1.7297 0.72288 2.0912 0.5938 0.36144-0.12909 0.82615-1.4974 0.82615-1.4974s-0.0774-1.4974 0.1549-1.7556c0.23236-0.25817 0.30981-4.1049 0.30981-4.1049s-2.0654-9.6556-2.969-10.327-0.36144-0.28399-0.36144-0.28399v-7.5386s0.54216-0.23236-0.98105-0.56798-2.3235-0.7487-2.3235-0.7487-1.3167-0.20653-0.0774 0.77452c1.2392 0.98105 1.7814 0.64543 1.4716 2.9432-0.30981 2.2977-0.23236 2.5559-0.67125 2.4526s-0.7487 1.2909-0.23235 1.833c0.51634 0.54216 0.56797 4.3373 0.56797 4.3373l-0.20653 3.3046z"
         id="path24"
         style="fill:#ffbacc;fill-opacity:1" />
    </g>
    <path
       d="m115.43 130.79s0.56797 0.80033 1.8072 1.0327c1.2392 0.23235 3.2271 0.0774 3.2271 0.0774s1.136-0.1549 1.5232-0.56798c0.38726-0.41307 0.56798-0.49052 0.56798-0.49052l7.203 3.1239s2.2203 2.0654 3.8209 3.95c1.6007 1.8846 2.685 2.3494 2.3752 3.4079-0.3098 1.0585-5.3183 6.351-5.3183 6.351l-1.3167-1.2909 0.12908 2.9948s-2.5301 0.67124-4.0275 0.46471c-1.4974-0.20654-8.3131 3.7951-8.3131 3.7951s-3.1497 1.3167-5.1118-1.7039-3.1497-3.0464-3.1497-3.0464-2.7366 0.0258-2.5301-1.3425c0.20653-1.3683 0.49052-3.4595 0.10326-3.2271-0.38725 0.23235-1.2908 1.4199-1.2908 1.4199s-3.6918-1.8588-3.8726-2.7624-1.0069-5.2409-1.0069-5.2409l6.2736-4.8536z"
       fill="#000080"
       id="path28" />
    <path
       d="m117.93 128.15s-1.6065 0.40162-2.5923-2.0081c-0.98579-2.4097-1.497-3.5416-1.57-4.0527-0.073-0.51115-0.40162-2.7018 0.0365-3.505 0.43813-0.80324-0.80324-2.5923-0.25557-3.6146 0.54766-1.0223-0.10953-2.3002 2.7383-2.3732 2.8478-0.073 5.002 1.2049 5.6592 0.47465 0.6572-0.73022 0.40162-1.9716 0.40162-1.9716s1.7525 0.32859 2.0446 1.643c0.29208 1.3144 0.29208 2.0446 0.29208 2.0446s-0.14604 0.76673-0.40162 0.91277c-0.25557 0.14604-1.4604 0.80324-1.4604 0.80324s2.5192 1.0223 2.0081 2.9939c-0.51115 1.9716-2.0081 6.0608-2.0081 6.0608s-0.29209 1.8986-1.4604 2.1542c-1.1684 0.25557-3.432 0.43813-3.432 0.43813z"
       stroke="#000"
       stroke-width=".26458px"
       id="path30" />
  </g>
</svg>
