<?xml version="1.0" encoding="UTF-8" standalone="no"?>
<svg
   width="311.43198"
   height="369.27695"
   version="1.1"
   viewBox="0 0 311.43198 369.27694"
   id="svg59"
   sodipodi:docname="person.svg"
   inkscape:version="1.1.1 (3bf5ae0d25, 2021-09-20)"
   xmlns:inkscape="http://www.inkscape.org/namespaces/inkscape"
   xmlns:sodipodi="http://sodipodi.sourceforge.net/DTD/sodipodi-0.dtd"
   xmlns="http://www.w3.org/2000/svg"
   xmlns:svg="http://www.w3.org/2000/svg">
  <sodipodi:namedview
     id="namedview33"
     pagecolor="#ffffff"
     bordercolor="#666666"
     borderopacity="1.0"
     inkscape:pageshadow="2"
     inkscape:pageopacity="0.0"
     inkscape:pagecheckerboard="0"
     showgrid="false"
     inkscape:zoom="3.8940963"
     inkscape:cx="114.40395"
     inkscape:cy="64.328147"
     inkscape:window-width="1920"
     inkscape:window-height="1013"
     inkscape:window-x="-9"
     inkscape:window-y="29"
     inkscape:window-maximized="1"
     inkscape:current-layer="svg59" />
  <defs
     id="defs11">
    <style
       id="style2">.prefix__b{fill:#fbbebe}.prefix__c{fill:#464353}.prefix__d,.prefix__i{opacity:.1}.prefix__e{fill:#009688}.prefix__g{fill:#3f3d56}.prefix__k{fill:none;stroke:#3f3d56;stroke-miterlimit:10;stroke-width:3px}.prefix__l{fill:#3acc6c}.prefix__m{fill:#ff6584}</style>
    <linearGradient
       id="prefix__a"
       x1="282"
       x2="282"
       y1="582.91998"
       y2="259.17001"
       gradientTransform="matrix(0.90984,0,0,1.0991,-101.23511,-280.28158)"
       gradientUnits="userSpaceOnUse">
      <stop
         stop-color="gray"
         stop-opacity=".251"
         offset="0"
         id="stop4" />
      <stop
         stop-color="gray"
         stop-opacity=".122"
         offset=".54"
         id="stop6" />
      <stop
         stop-color="gray"
         stop-opacity=".102"
         offset="1"
         id="stop8" />
    </linearGradient>
  </defs>
  <path
     id="path1382"
     class="prefix__b"
     d="m 114.49653,8.4084961 c -7.74698,-0.1215019 -18.139051,1.8976099 -23.669926,5.9121099 -2.339,1.692 -3.93936,4.121125 -5.56836,6.453124 -3,4.309001 -6.401312,8.611672 -11.195312,11.013672 -1.817,0.912 -3.890609,1.5995 -5.099609,3.1875 -0.71469,1.073148 -1.178633,2.293417 -1.357422,3.570313 -0.750892,3.791705 -1.189861,7.638558 -1.3125,11.501953 -0.01032,-0.06437 -0.02008,-0.128824 -0.0293,-0.193359 0,0.574112 -0.03383,1.149945 -0.05664,1.726562 -0.0126,0.203724 -0.02432,0.407502 -0.03516,0.611328 -0.143749,2.291974 0.234915,4.586664 1.107422,6.710938 0.113403,0.231679 0.261132,0.449278 0.392578,0.673828 0.112478,0.193098 0.215033,0.390267 0.335937,0.580078 0.258522,0.403571 0.520692,0.803754 0.785157,1.203125 0.204678,0.311072 0.406751,0.622254 0.591796,0.939453 0.0042,0.0073 0.0094,0.0142 0.01367,0.02148 0.0012,0.002 0.0027,0.0038 0.0039,0.0059 0.06171,0.106394 0.117871,0.214617 0.175781,0.322265 0.05539,0.102493 0.110925,0.204711 0.162109,0.308594 0.05931,0.12078 0.111305,0.2442 0.164063,0.367188 0.179318,0.417439 0.326581,0.845959 0.402344,1.298828 0.271,1.657 -0.340641,3.306703 -0.556641,4.970703 -0.216,1.664 0.159219,3.634734 1.699219,4.427734 0.829117,0.311758 1.694986,0.51526 2.576172,0.605469 10.418555,13.369678 6.911271,9.645005 22.656297,19.177787 0.211436,0.60007 0.410695,1.20436 0.597656,1.8125 0.912,3.12 1.349531,6.392091 -0.230469,9.121101 -1.125792,1.93366 -3.020631,3.1297 -5.136719,3.95703 -0.312901,-0.39891 -0.676647,-0.74723 -1.148437,-0.98242 -1.831,-0.919 -4.03036,0.19492 -5.56836,1.54492 -2.785,2.5 -5.062609,6.07692 -8.724609,6.91992 -1.323,0.306 -2.784766,0.24297 -3.884766,1.04297 -0.730486,0.67463 -1.341929,1.46766 -1.808593,2.3457 -1.627929,2.3009 -4.306341,3.62579 -7.123047,3.52344 -1.274,-0.063 -2.784297,-0.35569 -3.654297,0.57031 -0.647,0.7 -0.700578,1.78364 -1.392578,2.43164 -0.94,0.912 -2.464438,0.46597 -3.773438,0.41797 -2.514539,0.0646 -4.834794,1.36731 -6.199219,3.48047 -1.301932,2.1178 -2.243121,4.43711 -2.785156,6.86328 0.01844,0.0411 0.03626,0.082 0.05469,0.12305 -0.160429,0.11939 -0.313777,0.24779 -0.455078,0.39062 -0.67808,0.71034 -1.203813,1.55178 -1.544922,2.47266 -5.627292,12.68171 -8.951315,26.26417 -9.816406,40.11133 0.01479,0.67496 -0.141066,1.34273 -0.453126,1.9414 -0.307044,0.39865 -0.648881,0.76925 -1.021484,1.10743 -1.431274,1.69626 -1.132234,4.24884 0.652344,5.56835 0.195623,-0.3686 0.441637,-0.68999 0.720703,-0.97851 -0.0725,0.30057 -0.144008,0.60023 -0.195313,0.86914 -0.278554,2.01417 -0.306762,4.05507 -0.08398,6.07617 l 2,28.73047 c 0.188,2.708 0.375953,5.40838 0.626953,8.10938 0.48,5.24199 1.199891,10.44271 2.087891,15.63671 0.03836,0.24257 0.108627,0.47899 0.208984,0.70313 -5.691049,1.78166 -10.764356,4.98402 -12.873047,10.37305 -0.738,1.866 -1.071562,3.88482 -1.976562,5.67382 -1,1.963 -2.638609,3.52755 -3.724609,5.43555 -1.873,3.3 -1.948438,7.34417 -1.273438,11.07617 1.321888,7.24238 5.302476,13.7069 10.541016,18.97071 -0.228616,-0.0233 -0.45789,-0.0395 -0.6875,-0.0488 -0.03709,-0.004 -0.0742,-0.008 -0.111328,-0.0117 -0.03259,0.008 -0.06514,0.0154 -0.09766,0.0234 -0.702429,0.0906 -1.394453,0.24885 -2.066406,0.47265 -0.205209,0.0663 -0.408422,0.13857 -0.609375,0.2168 -0.651456,0.24662 -1.277976,0.55464 -1.871094,0.91992 -0.03983,0.0193 -0.07955,0.0388 -0.11914,0.0586 -0.06397,0.0447 -0.12777,0.0896 -0.191407,0.13476 -1.12548,0.6976 -2.206354,1.46471 -3.236328,2.29688 -0.339152,0.27695 -0.672557,0.56086 -1,0.85156 -0.787067,0.68589 -1.539929,1.41007 -2.255859,2.16992 -0.282886,0.28767 -0.56028,0.5807 -0.832031,0.87891 -0.916588,1.04186 -1.764098,2.14251 -2.537109,3.29492 -0.147728,0.23961 -0.292272,0.48117 -0.433594,0.72461 -0.611946,0.9736 -1.170707,1.97963 -1.673828,3.01367 -0.186102,0.38245 -0.364524,0.7686 -0.535157,1.1582 -0.459406,1.05108 -0.861685,2.12622 -1.2050777,3.22071 -0.094771,0.26894 -0.1859247,0.53915 -0.2734375,0.81054 -0.3796647,1.34789 -0.6700085,2.71936 -0.8691406,4.10547 -0.045048,0.35479 -0.084116,0.71031 -0.1171875,1.06641 -0.1226032,1.09351 -0.1884467,2.19264 -0.1972656,3.29297 -0.0069,0.40037 -0.00625,0.80083 0.00195,1.20117 0.030722,1.41693 0.1560006,2.83023 0.375,4.23047 0.106536,0.73807 0.2724386,1.46634 0.4960937,2.17773 0.064485,0.20011 0.1335136,0.39873 0.2070313,0.5957 0.1914017,0.53741 0.4157864,1.0625 0.6718749,1.57227 0.08608,0.17768 0.175943,0.3535 0.269531,0.52734 0.360094,0.66211 0.773573,1.29377 1.236328,1.88868 1.37318,1.47542 3.129213,2.5404 5.072266,3.07617 v -0.0137 l 0.002,0.002 c 1.217347,0.36399 3.736328,0.69922 3.736328,0.69922 11.457989,6.21018 22.767549,-2.40953 25.451172,-3.57813 2.846003,-0.0405 5.691816,0.0932 8.521484,0.40039 4.139334,0.334 8.284261,0.54915 12.433594,0.64649 6.749,0.16 10.538656,-1.62033 14.847656,-6.61133 l 0.002,-0.01 c 1.06812,-1.23862 1.960014,-2.61885 2.650391,-4.10156 3.700124,-0.20696 7.695021,-0.52312 10.619141,-0.75976 0.01462,0.1288 0.02632,0.25791 0.04102,0.38671 0.161,1.406 0.403578,2.95894 1.517579,3.83594 0.629237,0.4239 1.340599,0.71071 2.08789,0.8418 7.031006,1.712 14.154536,3.42383 21.394536,3.42383 3.39998,-0.0684 6.79339,-0.3286 10.16406,-0.7793 l 12.54688,-1.43359 c 3.75692,0.50564 7.47006,1.29567 11.10742,2.36328 3.676,1.232 7.11308,3.07739 10.70508,4.52539 8.354,3.355 17.34209,4.55251 26.24609,5.72851 1.518,0.195 3.25791,0.33283 4.37891,-0.70117 1.448,-1.344 0.96764,-3.68137 0.55664,-5.60937 -0.11775,-0.77754 -0.20505,-1.55939 -0.26172,-2.34375 5.95028,1.55586 11.77474,3.55829 17.42383,5.99023 0.33687,0.14587 0.67601,0.29224 1.01367,0.43945 0.28051,1.50116 1.69053,2.71142 3.04101,4.33594 0.44137,0.6841 0.95758,1.31691 1.53907,1.88672 0.66349,0.43239 1.41966,0.70207 2.20703,0.78711 9.41027,1.73642 19.01497,2.16756 28.54297,1.28125 1.94654,-0.26491 3.91489,-0.33231 5.875,-0.20117 1.44046,0.19387 2.86167,0.51078 4.24804,0.94726 l 8.06055,2.26954 c 5.938,1.68399 12.02259,3.38885 18.18359,3.00585 1.25109,-0.0756 2.49405,-0.25197 3.7168,-0.52734 4.873,-1.114 9.411,-3.81534 11.75,-8.15234 3.191,-5.917 1.66466,-13.16735 -0.15234,-19.65235 -0.54789,-2.52765 -1.48763,-4.95408 -2.78516,-7.1914 -1.294,-1.84293 -2.82766,-3.50533 -4.56055,-4.94336 -5.047,-4.519 -11.24945,-9.149 -17.93945,-8 -2.07062,0.44958 -4.072,1.17341 -5.95117,2.15234 0.006,0.005 0.012,0.009 0.0176,0.0137 -0.0163,0.007 -0.0325,0.0143 -0.0488,0.0215 -0.975,0.446 -1.95899,0.89744 -2.95899,1.27344 -2.82723,1.17137 -5.94712,1.44148 -8.93359,0.77343 -1.531,-0.404 -2.95775,-1.13475 -4.46875,-1.59375 -0.75979,-0.22999 -1.52497,-0.38027 -2.29492,-0.48242 1.48823,-0.66448 2.95355,-1.38374 4.35937,-2.23242 7.542,-4.553 13.53422,-12.81508 12.69922,-21.58008 -0.41181,-2.94831 -1.19539,-5.83259 -2.33203,-8.58398 l -2.67383,-7.32422 c -1.155,-3.181 -2.37293,-6.41278 -4.46093,-9.05078 -2.47837,-2.85343 -5.61902,-5.05517 -9.14649,-6.41211 -7.414,-3.195 -15.53125,-4.31521 -23.53125,-5.40821 -0.18938,-0.0255 -0.38025,-0.0455 -0.57031,-0.0703 0.003,-0.087 0.0254,-0.16813 0.0254,-0.25586 v -82.91406 c 0,-4.41538 -3.55532,-7.96875 -7.9707,-7.96875 h -8.13086 l -1.39258,-8.43359 c -1.33,-8 -2.69897,-16.15047 -6.41797,-23.35547 -2.443,-4.72 -6.32083,-9.21739 -11.54883,-10.15039 -1.03014,-0.0927 -2.0424,-0.32806 -3.00781,-0.69922 -1.532,-0.738 -2.36697,-2.3961 -3.54297,-3.6211 -3.035,-3.147 -7.97797,-3.19882 -12.04297,-4.79882 -3.592,-1.392 -6.53078,-4.07215 -9.80078,-6.11915 -3.27,-2.047 -7.34289,-3.48087 -10.96289,-2.17187 -0.0249,0.2656 -0.0568,0.53279 -0.082,0.79883 l -2.29492,-1.05274 c -2.57166,-1.01612 -4.96244,-2.44069 -7.08008,-4.218749 -2.583,-2.415 -3.95925,-5.613672 -5.03125,-9.013672 -0.12235,-0.386171 -0.23375,-0.781076 -0.34961,-1.171875 4.41218,-4.485497 7.40524,-10.171371 8.60547,-16.347656 l 0.58789,1.878906 c 0.487,1.58 1.30948,3.438625 3.02148,3.640625 0.18487,0.02282 0.36596,0.01683 0.54297,-0.0039 0.0121,-0.0014 0.0251,0.0016 0.0371,0 1.33584,-0.156466 2.40987,-1.471954 2.61914,-2.783204 0.10677,-1.242382 -0.0333,-2.493614 -0.41211,-3.68164 l -0.006,-0.01758 c -0.0707,-0.272876 -0.15082,-0.543221 -0.24023,-0.810547 -0.55449,-2.472144 -0.59099,-4.965446 -0.35938,-7.464844 0.005,0.0547 0.006,0.109376 0.0117,0.164063 0.4,-4.49 1.70586,-9.006891 2.63086,-13.462891 0.77273,-3.383381 1.04516,-6.861789 0.8086,-10.324219 -0.009,0.05991 -0.0181,0.119811 -0.0273,0.179688 -0.30349,-3.662099 -1.42386,-7.132452 -3.93359,-9.892578 -1.747,-1.914 -4.04678,-3.341375 -5.67578,-5.359375 -1.518,-1.894 -2.37232,-4.220125 -3.94531,-6.078125 -4.351,-5.131 -15.51052,-9.0920941 -22.35352,-9.7460941 -0.97688,-0.105125 -2.03001,-0.1662364 -3.13672,-0.1835938 z"
     style="fill:none;stroke:#333333;stroke-width:16.8;stroke-miterlimit:4;stroke-dasharray:none;stroke-opacity:0.399177"
     sodipodi:nodetypes="cccccccccccccccccccccsccccccccccccccccccccccccccccccccccccccccccccccccccscccccccccccccccccccccccccccccccccccccccccccccccccccccccccccscccccccssscccccccscccccccccscccccccccccccccc" />
  <path
     d="m 300.90089,332.52242 c -0.56509,-2.54446 -3.59138,-4.9849 -4.87279,-7.2546 1.68681,4.19356 -2.63204,-2.8957 -4.3674,-4.34901 -5.047,-4.581 -9.18861,-9.1668 -15.87861,-8.0108 -2.06905,0.45773 -4.13238,2.85731 -6.0092,3.8412 -0.975,0.453 -2.3412,1.86799 -3.3442,2.25099 -2.82198,1.17984 -7.61033,-0.0883 -10.59419,-0.76079 -1.532,-0.411 -2.18861,-1.5984 -3.69861,-2.0574 -0.71734,-0.2154 -0.48764,-2.49216 -1.23,-2.59159 1.45973,-0.65345 2.87598,-1.39999 4.24,-2.235 7.5,-4.595 11.24401,-13.4136 10.40901,-22.2966 -0.41012,-2.97474 -0.6776,-5.3728 -1.8114,-8.1534 l -3.5076,-6.3016 c -1.156,-3.2 -2.032,-5.95341 -4.141,-8.61341 -2.46924,-2.87534 1.81339,14.56101 -8.2412,-4.9332 -7.414,-3.223 -14.50252,-6.10932 -22.50152,-7.20932 l -0.22329,-1.47147 -1.99019,-83.90921 c -0.0729,-3.07481 -1.74584,-3.33221 -4.67021,-4.285 l -10.6404,-3.46679 c -3.48349,2.64515 -2.49335,-5.50163 -2.61179,-8.9564 -1.323,-8.082 -2.694,-13.93561 -6.418,-21.21061 -2.437,-4.762 -4.32381,-6.41901 -9.55181,-7.35101 -1.02747,-0.094 -5.7606,-2.31979 -6.72358,-2.69019 -1.532,-0.752 -0.76201,-3.3218 -1.93801,-4.5538 -3.035,-3.181 -7.5216,-0.27681 -11.5866,-1.91981 -3.592,-1.427 -6.53,-4.6918 -9.8,-6.7598 -3.27,-2.068 -5.10108,-4.45836 -8.72108,-3.11536 -0.0115,0.26353 -4.90533,1.898 -2.44132,-0.40923 l -2.2608,-0.5584 c -2.57254,-1.02814 -4.70444,-3.494025 -6.8162,-5.2872 -2.583,-2.437 -4.9882,-9.390585 -3.10701,-11.090192 -0.11233,-0.358649 -0.22133,-0.718331 -0.327,-1.079 4.44977,-4.539817 7.46205,-10.290981 8.66,-16.534 l 0.564,1.831 c 0.12712,0.411278 0.276,0.815514 0.446,1.211 0.2878,0.764954 0.76708,1.443254 1.392,1.97 0.17844,0.139962 0.37528,0.254705 0.585,0.341 0.19268,0.0763 0.39431,0.127719 0.6,0.153 0.28902,0.0356 0.58221,0.0142 0.863,-0.063 -0.28549,-3.65575 1.02444,-10.62917 1.417,-14.687 0.41664,-3.603623 1.08189,-7.174134 1.991,-10.686 l 0.146,-0.634 c 0.056,-0.244 0.111,-0.487 0.16,-0.738 0.111,-0.5 0.223,-1 0.327,-1.511 l 0.251,-1.281 0.188,-1.142 v -0.142 c 0.39098,-2.587112 -2.3198,-3.12505 -2.54869,-5.731508 -0.1881,-3.618849 -1.56573,-7.074354 -3.919,-9.83 -1.747,-1.942 -4.0841,-3.889598 -5.7061,-5.929598 -1.518,-1.907 -3.016,-3.425403 -4.589,-5.298403 -4.344,-5.186 -13.4456,-6.293012 -20.2846,-6.989012 -7.839,-0.7939998 -16.519625,-0.8754916 -22.842625,3.754508 -2.339,1.706 -3.490602,3.374504 -5.119602,5.713504 -2.993,4.351 -6.904598,9.593796 -11.700598,12.036796 -1.81,0.919 -2.697305,3.187894 -3.901305,4.788894 -0.716506,1.085387 -3.042344,-1.18128 -3.219792,0.107114 -0.922299,4.532807 -2.558146,7.860425 -2.589596,12.486005 l 0.417299,1.836299 c 0.0143,1.734248 -0.707489,3.254562 -0.0054,4.840401 0.111,0.237 0.237,0.466 0.369,0.7 l 0.084,0.146 c 0.842118,1.203573 1.587136,2.472243 2.228,3.794 0.159624,0.37026 0.274114,0.758384 0.341,1.156 0.05824,1.888876 0.742058,3.623266 0.934795,3.861099 -0.491777,-0.09037 -0.710666,2.3452 -0.465098,3.8418 0.192885,0.884837 -0.111466,1.355923 0.678303,1.799101 0.396502,0.190181 0.818605,0.321562 1.253,0.39 0.439,0.077 0.884,0.125 1.316,0.223 0.554983,0.126618 1.09091,0.325657 1.594,0.592 0.482192,0.230572 0.933689,0.520484 1.344,0.863 0.203008,0.184504 0.395953,0.379786 0.578,0.585 0.367814,0.421127 0.698702,0.873128 0.989,1.351 0.148667,0.246 0.288,0.496667 0.418,0.752 0.498699,1.007529 0.897277,2.061584 1.19,3.147 0.181,0.647 0.334,1.3 0.466,1.956 0.063,0.292 0.118,0.585 0.167,0.87 0.049,0.285 0.1,0.578 0.139,0.863 0.189954,-0.01069 0.377459,-0.04806 0.557,-0.111 1.024645,-0.559064 1.731741,-1.562077 1.914,-2.715 0.056,-0.195 0.1,-0.383 0.146,-0.571 0.16,-0.7 0.327,-1.462 0.487,-2.193 2.742773,5.826724 7.165652,10.6999 12.7,13.993 0.195,0.578 0.383,1.149 0.55,1.733 0.912,3.154 3.530015,7.587902 1.949012,10.344902 -1.203374,1.88301 -5.604938,5.74661 -7.725577,6.45139 -0.30525,-0.40685 -2.105171,-0.14989 -2.556278,-0.38485 -1.831,-0.919 -0.263126,0.73975 -1.801126,2.11075 -2.785,2.52 -5.190188,4.72572 -8.852188,5.55372 -1.323,0.306 -1.695494,2.01445 -2.795494,2.82145 -0.726408,0.68435 -2.424123,-0.87645 -2.889506,0.006 -1.615004,2.31843 0.447513,46.4649 -9.845765,5.27506 -1.274,-0.063 0.87,-0.933 0,0 -0.647,0.7 -0.904898,1.92403 -1.596898,2.58103 -0.933,0.919 -4.279843,1.56251 -5.581843,1.50751 -2.53247,0.0643 -3.909317,-1.73384 -5.246682,0.41767 -1.299599,2.15399 -1.150707,3.73329 -1.695494,6.18927 l -0.953318,-0.45736 c -0.178584,0.13023 -0.393689,0.77157 -0.553396,0.92436 -0.67476,0.719 -1.288616,1.6573 -1.628792,2.58279 -5.629706,12.8172 -9.361255,25.52885 -10.224565,39.50129 0.01359,0.68091 1.676316,1.71798 1.369843,2.32617 -0.311355,0.3975 -2.450337,1.16443 -2.819933,1.50845 -1.394224,1.70639 -2.3913,3.19771 -0.643,4.539 0.200293,-0.36325 0.451128,-0.69624 0.745,-0.989 -0.077,0.32 -0.146,0.633 -0.195,0.919 -0.279731,2.0309 -0.305596,4.08871 -0.077,6.126 0.659333,9.672 1.326,19.337 2,28.995 0.188,2.736 0.376,5.465 0.627,8.194 0.487333,5.28133 2.636007,12.67562 3.540674,17.91562 0.03866,0.23586 -1.0655,-0.10829 -1.00223,0.12219 -5.674,1.8 -9.406883,4.77628 -11.529883,10.21528 -0.738,1.88 -1.072,3.78981 -1.977,5.59281 -1,1.977 -2.245134,3.80668 -3.331134,5.74268 -1.873,3.328 -3.953427,6.02242 -3.271427,9.75342 1.316,7.275 5.249,13.777 10.442,19.068 l 0.360804,1.15711 c -1.69682,0.18805 -4.014014,0.63871 -5.443363,1.57227 -10.985,6.418 -17.6374407,19.16462 -15.3464407,31.73762 0.333517,2.49075 1.3287332,4.84654 2.8819997,6.822 1.366316,1.48679 3.122085,2.56076 5.068,3.1 1.217074,0.3676 2.470382,0.6023 3.738,0.7 8.563,0.7 16.854,-3.272 25.437,-3.606 2.843563,-0.0443 5.687112,0.0893 8.514,0.4 4.133333,0.34333 8.275333,0.56133 12.426,0.654 6.746,0.16 10.54,-1.636 14.842,-6.676 1.057249,-1.25361 1.93993,-2.64457 2.624,-4.135 3.662,-0.209 7.706,-0.529 10.63,-0.766 l 0.042,0.4 c 0.16,1.392 0.4,2.993 1.518,3.871 0.62648,0.43192 1.338621,0.72387 2.088,0.856 7.031005,1.727 14.146005,3.481 21.386005,3.481 3.39765,-0.0686 6.78871,-0.32907 10.157,-0.78 l 12.719,-1.469 c 3.70641,0.46985 7.364,1.26662 10.93,2.381 3.676,1.246 7.108,3.1 10.7,4.567 8.354,3.383 17.334,4.595 26.231,5.778 1.518,0.2 3.258,0.341 4.379,-0.7 1.448,-1.392 0.968,-3.717 0.557,-5.667 -0.167,-0.8 -0.292,-1.6 -0.39,-2.409 6.00369,1.58325 11.87776,3.62251 17.571,6.1 l 1,0.439 c 0.292,1.518 1.692,2.729 3.035,4.365 0.44096,0.6903 0.95675,1.32984 1.538,1.907 0.66451,0.43148 1.41991,0.70325 2.207,0.794 9.39183,1.74993 18.98159,2.18342 28.493,1.288 1.94692,-0.26455 3.9156,-0.33156 5.876,-0.2 1.43996,0.19625 2.86048,0.51542 4.246,0.954 l 8.054,2.311 c 5.938,1.7 12.016,3.418 18.177,3.035 1.24907,-0.0786 2.48977,-0.2578 3.71,-0.536 4.873,-1.128 9.412,-3.85 11.751,-8.229 3.311,-5.962 2.012,-12.518 0.23,-19.062 z"
     fill="url(#prefix__a)"
     id="path13"
     style="fill:url(#prefix__a)"
     sodipodi:nodetypes="cccccccccccccccccsscccccccsccccccccccccccccccccccccccccccccccccccccccccccccccscccccccccccccccccccccccccccccccccccccccccccccccccccccccccccccccccccccccccccc" />
  <path
     class="prefix__b"
     d="m 75.323885,330.39842 c -1.469,-3.342 -2.861,-7.184 -1.392,-10.526 a 8.945,8.945 0 0 1 4.629,-4.351 22.276,22.276 0 0 1 6.265,-1.545 87.438,87.438 0 0 1 20.368005,-0.278 c 0.494,3.912 -0.55,7.88 -1.448,11.661 -0.814,3.481 -1.281,4 -4.873005,4.177 -2.324,0.122 -22.999,2.092 -23.549,0.862 z"
     id="path15" />
  <ellipse
     class="prefix__c"
     cx="137.31488"
     cy="280.01843"
     rx="99.550003"
     ry="27.846001"
     fill="#deaa87"
     id="ellipse17" />
  <ellipse
     class="prefix__d"
     cx="141.18488"
     cy="277.66843"
     rx="99.550003"
     ry="27.846001"
     id="ellipse19" />
  <path
     class="prefix__b"
     d="m 155.16489,133.00842 a 30.972,30.972 0 0 1 -15.97,14.508 40.084,40.084 0 0 1 -12.677,2.409 36.111,36.111 0 0 1 -13.993,-1.706 c -5.959,-2.158 -10.909,-6.572 -14.619005,-11.716 -3.71,-5.144 -6.265,-11.02 -8.486,-16.944 -1.17,-3.084 -2.283,-6.37 -1.733,-9.628 3.585,-0.814 7.511,-2.012 9.363,-5.193 1.58,-2.729 1.142,-6.000002 0.23,-9.120002 a 47.117,47.117 0 0 0 -0.856,-2.6 c -0.7,-2.019 -3.1,-5.855 -1.392,-7.581 1.065,-1.093 5.527005,-1.65 7.066005,-2.36 4.741,-2.186 9.113,-5.346 14.32,-6.384 4.5,-0.9 9.154,-0.056 13.651,0.877 a 4.49,4.49 0 0 1 1.685,0.606 4.052,4.052 0 0 1 1.253,1.88 c 1.281,3.119 2.033,6.565 3.063,9.816 1.072,3.4 2.45,6.6 5.033,9.015 a 25.694,25.694 0 0 0 7.08,4.219002 l 6.168,2.826 a 8.11,8.11 0 0 1 2.917,1.887 7.386,7.386 0 0 1 1.392,3.787 35.378,35.378 0 0 1 -3.495,21.407 z"
     id="path21" />
  <path
     class="prefix__d"
     d="m 136.04489,89.873418 a 32.023,32.023 0 0 1 -38.755005,5.75 47.117,47.117 0 0 0 -0.856,-2.6 c -0.7,-2.019 -3.1,-5.855 -1.392,-7.581 1.065,-1.093 5.527005,-1.65 7.066005,-2.36 4.741,-2.186 9.113,-5.346 14.32,-6.384 4.5,-0.9 9.154,-0.056 13.652,0.877 a 4.49,4.49 0 0 1 1.685,0.606 4.052,4.052 0 0 1 1.253,1.88 c 1.245,3.115 1.997,6.561 3.027,9.812 z"
     id="path23" />
  <circle
     class="prefix__b"
     cx="112.95489"
     cy="66.295418"
     r="32.022999"
     id="circle25" />
  <path
     class="prefix__e"
     d="m 210.51489,170.21842 -2.631,-15.942 c -1.33,-8 -2.7,-16.151 -6.419,-23.356 -2.443,-4.72 -6.321,-9.217 -11.549,-10.15 a 11.174,11.174 0 0 1 -3.007,-0.7 c -1.532,-0.738 -2.367,-2.395 -3.543,-3.62 -3.035,-3.147 -7.978,-3.2 -12.043,-4.8 -3.592,-1.392 -6.53,-4.072 -9.8,-6.119 -3.27,-2.047 -7.344,-3.481 -10.964,-2.172 -0.585,6.231 -1.2,12.6 -3.85,18.274 a 27.345,27.345 0 0 1 -41.257,10.285 c -6.200005,-4.671 -10.178005,-11.876 -12.029005,-19.416 -0.453,-1.838 -0.968,-3.947 -2.659,-4.79 -1.831,-0.919 -4.031,0.195 -5.569,1.545 -2.785,2.5 -5.061,6.077 -8.723,6.92 -1.323,0.306 -2.785,0.244 -3.885,1.044 a 8.841,8.841 0 0 0 -1.81,2.346 8.354,8.354 0 0 1 -7.122,3.523 c -1.274,-0.063 -2.785,-0.355 -3.655,0.571 -0.647,0.7 -0.7,1.782 -1.392,2.43 -0.94,0.912 -2.464,0.466 -3.773,0.418 a 7.612,7.612 0 0 0 -6.2,3.481 22.453,22.453 0 0 0 -2.785,6.864 c 7.609,16.944 14.57,33.91 22.179,50.854 a 4.337,4.337 0 0 1 0.55,2.088 5.089,5.089 0 0 1 -0.947,2.089 c -3.731,5.994 -3.613,13.533 -3.2,20.578 0.413,7.045 0.912,14.487 -2.235,20.8 -0.856,1.733 -1.97,3.321 -2.785,5.054 -1.907,3.926 -2.6,16.485 -1.483,20.7 H 215.30889 c -3,-8.249 -1.859,-24.8 -1.232,-33.561 0.439,-6.126 -0.7,-12.245 -1.183,-18.371 -1.066,-12.507 -0.314,-24.376 -2.382,-36.867 z"
     fill="#59f"
     id="path27"
     style="fill:#000080" />
  <path
     class="prefix__b"
     d="m 33.791885,188.45842 a 24.644,24.644 0 0 0 -0.084,6.077 l 2,28.73 c 0.188,2.708 0.376,5.409 0.627,8.11 0.48,5.242 1.2,10.442 2.088,15.636 a 2.785,2.785 0 0 0 2.854,2.708 c 8.806,1.866 17.9,1.789 26.892,1.281 13.714,-0.766 27.407,-2.513 41.143005,-2.214 3.536,0.077 7.658,0 9.8,-2.785 2.142,-2.785 0.9,-7.289 -1.9,-9.537 -2.8,-2.248 -6.6,-2.785 -10.192,-2.785 -4.755,-0.049 -9.509005,0.627 -14.250005,0.348 a 70.6,70.6 0 0 1 -12.823,-2.36 l -11.835,-2.945 a 45.621,45.621 0 0 1 3.112,-10.366 c 2.325,-6.036 4.5,-12.273 4.539,-18.74 0.039,-6.467 -2.395,-13.269 -7.692,-16.972 -4.358,-3.042 -9.969,-3.606 -15.281,-3.481 -3.864,0.111 -10.54,-0.815 -14.069,0.7 -2.792,1.223 -4.407,5.859 -4.929,8.595 z"
     id="path29" />
  <path
     class="prefix__c"
     d="m 218.56489,254.14842 c 2.318,-0.884 4.873,-0.564 7.358,-0.23 8,1.093 16.116,2.214 23.53,5.409 a 23.1,23.1 0 0 1 9.147,6.412 c 2.088,2.638 3.307,5.869 4.462,9.05 l 2.673,7.324 a 35.255,35.255 0 0 1 2.332,8.584 c 0.835,8.765 -5.158,17.028 -12.7,21.581 -7.542,4.553 -16.415,6.175 -25.061,7.873 -8.646,1.698 -17.327,3.578 -25.939,5.569 a 104.43,104.43 0 0 1 -12.2,2.4 c -9.217,1.044 -18.852,-0.494 -27.609,2.555 -3.481,1.218 -6.9,3.028 -10.512,3.871 a 65.389,65.389 0 0 1 -7.268,1.107 l -16.575,1.894 a 90.416,90.416 0 0 1 -10.164,0.78 c -7.24,0 -14.362,-1.713 -21.393005,-3.425 a 5.41,5.41 0 0 1 -2.088,-0.842 c -1.114,-0.877 -1.357,-2.43 -1.518,-3.836 q -1.065,-9.335 -1.866,-18.692 c -0.167,-2.026 -0.292,-4.219 0.815,-5.924 1.392,-2.088 4.107,-2.743 6.586005,-3.147 a 171.87,171.87 0 0 1 31.8,-2.207 c 4.045,-4.045 10.714,-4.066 16.011,-6.265 a 47.62,47.62 0 0 0 5.646,-3.07 73.791,73.791 0 0 1 31,-9.795 28.856,28.856 0 0 0 6.342,-0.9 c 4.1,-1.274 7.839,-4.741 12.05,-3.892 0.522,-1.441 0.884,-3.369 2.088,-4.358 0.6,-0.508 1.337,-0.849 1.887,-1.392 1.163,-1.177 1.267,-3.028 1.093,-4.671 -0.174,-1.643 -0.564,-3.328 -0.139,-4.929 a 6.815,6.815 0 0 1 0.773,-1.719 c 2.091,-3.611 5.244,-5.463 9.439,-5.115 z"
     fill="#deaa87"
     id="path31" />
  <path
     d="m 218.56489,254.14842 c 2.318,-0.884 4.873,-0.564 7.358,-0.23 8,1.093 16.116,2.214 23.53,5.409 a 23.1,23.1 0 0 1 9.147,6.412 c 2.088,2.638 3.307,5.869 4.462,9.05 l 2.673,7.324 a 35.255,35.255 0 0 1 2.332,8.584 c 0.835,8.765 -5.158,17.028 -12.7,21.581 -7.542,4.553 -16.415,6.175 -25.061,7.873 -8.646,1.698 -17.327,3.578 -25.939,5.569 a 104.43,104.43 0 0 1 -12.2,2.4 c -9.217,1.044 -18.852,-0.494 -27.609,2.555 -3.481,1.218 -6.9,3.028 -10.512,3.871 a 65.389,65.389 0 0 1 -7.268,1.107 l -16.575,1.894 a 90.416,90.416 0 0 1 -10.164,0.78 c -7.24,0 -14.362,-1.713 -21.393005,-3.425 a 5.41,5.41 0 0 1 -2.088,-0.842 c -1.114,-0.877 -1.357,-2.43 -1.518,-3.836 q -1.065,-9.335 -1.866,-18.692 c -0.167,-2.026 -0.292,-4.219 0.815,-5.924 1.392,-2.088 4.107,-2.743 6.586005,-3.147 a 171.87,171.87 0 0 1 31.8,-2.207 c 4.045,-4.045 10.714,-4.066 16.011,-6.265 a 47.62,47.62 0 0 0 5.646,-3.07 73.791,73.791 0 0 1 31,-9.795 28.856,28.856 0 0 0 6.342,-0.9 c 4.1,-1.274 7.839,-4.741 12.05,-3.892 0.522,-1.441 0.884,-3.369 2.088,-4.358 0.6,-0.508 1.337,-0.849 1.887,-1.392 1.163,-1.177 1.267,-3.028 1.093,-4.671 -0.174,-1.643 -0.564,-3.328 -0.139,-4.929 a 6.815,6.815 0 0 1 0.773,-1.719 c 2.091,-3.611 5.244,-5.463 9.439,-5.115 z"
     opacity="0.05"
     id="path33" />
  <path
     class="prefix__g"
     d="m 81.727885,334.70842 c -4.309,4.991 -8.1,6.773 -14.849,6.613 q -6.224,-0.146 -12.433,-0.647 a 69.767,69.767 0 0 0 -8.521,-0.4 c -8.59,0.334 -16.882,4.267 -25.451,3.578 a 18.042,18.042 0 0 1 -3.738,-0.7 10.881,10.881 0 0 1 -5.073,-3.07 13.866,13.866 0 0 1 -2.8819997,-6.76 31.845,31.845 0 0 1 14.9819997,-32.447 10.986,10.986 0 0 1 4.762,-1.692 11.285,11.285 0 0 1 4.817,1.058 l 0.1,0.042 a 36.43,36.43 0 0 1 11.932,7.964 6.725,6.725 0 0 0 1.824,1.469 6.266,6.266 0 0 0 2.151,0.4 l 9.147,0.578 a 21.675,21.675 0 0 1 4.595,0.633 36.525,36.525 0 0 1 4.831,2.089 c 4.922,2.2 10.38,2.785 15.7,3.634 a 2.347,2.347 0 0 1 1.392,0.557 2.179,2.179 0 0 1 0.432,0.9 17.759,17.759 0 0 1 -3.717,16.193 z"
     id="path35" />
  <path
     class="prefix__d"
     d="m 33.442885,300.28842 a 54.924,54.924 0 0 0 -9.154,11.445 57.279,57.279 0 0 0 -7.477,22.653 42.048,42.048 0 0 0 -0.077,8.778 10.88,10.88 0 0 1 -5.072,-3.077 13.866,13.866 0 0 1 -2.8819997,-6.76 31.845,31.845 0 0 1 14.9819997,-32.447 10.984,10.984 0 0 1 4.762,-1.692 11.286,11.286 0 0 1 4.817,1.058 z"
     id="path37" />
  <path
     class="prefix__b"
     d="m 210.60489,317.60842 c 5.117,-0.139 10.86,-0.4 14.619,3.049 3.585,3.258 4.059,8.632 4.3,13.471 l 0.272,5.618 a 11.222,11.222 0 0 1 -0.536,5.068 c -1.225,2.785 -4.588,4.128 -7.658,3.968 -3.07,-0.16 -5.889,-1.5 -8.695,-2.715 a 122.32,122.32 0 0 0 -23.669,-7.456 q 0.4,-5.827 1.323,-11.6 c 0.425,-2.666 0.494,-7.129 2.276,-9.342 1.887,-2.339 4.344,-1.072 6.906,-0.64 a 55.437,55.437 0 0 0 10.867,0.578 z"
     id="path39" />
  <path
     class="prefix__c"
     d="m 75.386885,261.15842 c 0,0.7 -1.093,0 -1.19,-0.745 -0.766,-5.632 -5.235,-10.275 -10.442,-12.531 -5.207,-2.256 -11.138,-2.374 -16.777,-1.838 -8.528,0.808 -18.1,4.072 -21.219,12.043 -0.738,1.866 -1.072,3.885 -1.977,5.674 -1,1.963 -2.638,3.529 -3.724,5.437 -1.873,3.3 -1.949,7.344 -1.274,11.076 1.817,9.955 8.625,18.469 16.875,24.365 8.25,5.896 17.891,9.419 27.5,12.593 a 476.99,476.99 0 0 0 77.972005,18.619 74.926,74.926 0 0 1 12.726,2.625 c 3.676,1.232 7.115,3.077 10.707,4.525 8.354,3.355 17.341,4.553 26.245,5.729 1.518,0.195 3.258,0.334 4.379,-0.7 1.448,-1.344 0.968,-3.683 0.557,-5.611 a 30.178,30.178 0 0 1 3.557,-21.414 c 1.49,-2.506 3.425,-5.075 3.147,-7.978 -0.334,-3.383 -3.7,-5.778 -7.059,-6.321 -3.359,-0.543 -6.767,0.258 -10.136,0.7 a 5.43,5.43 0 0 1 -3.446,-0.341 6.886,6.886 0 0 1 -1.351,-1.2 15.267,15.267 0 0 0 -17.78,-2.485 c -1.246,0.7 -3.133,-0.856 -4.428,-1.441 l -14.64,-6.627 c -16.819,-7.609 -33.722,-15.253 -51.515005,-20.07 a 10.82,10.82 0 0 1 -3.968,-1.65 c -0.884,-0.7 -1.518,-1.643 -2.332,-2.416 -1.775,-1.678 -4.247,-2.346 -6.377,-3.536 -2.13,-1.19 -4.518,-4.089 -4.03,-6.482 z"
     fill="#deaa87"
     id="path41" />
  <path
     class="prefix__g"
     d="m 301.08489,352.13842 c -2.339,4.337 -6.878,7.038 -11.751,8.152 a 23.322,23.322 0 0 1 -3.717,0.529 c -6.161,0.383 -12.245,-1.323 -18.183,-3.007 l -8.061,-2.269 a 25.45,25.45 0 0 0 -4.247,-0.947 29.141,29.141 0 0 0 -5.876,0.2 104.14,104.14 0 0 1 -28.542,-1.281 5.032,5.032 0 0 1 -2.207,-0.787 10.963,10.963 0 0 1 -1.539,-1.887 c -2.193,-2.638 -4.553,-4.177 -1.956,-7.658 1.5,-2.019 4.274,-3.028 5.437,-5.346 1.163,-2.318 0.418,-5.611 -0.272,-8.006 -0.94,-3.307 -4.031,-4.734 -5.138,-7.769 -0.828,-2.29 0.564,-4.95 2.659,-6.2 a 11.047,11.047 0 0 1 7.1,-1.023 c 2.416,0.32 4.783,1 7.212,1.19 7.143,0.571 14.445,-3.112 21.3,-1.037 1.511,0.459 2.938,1.19 4.469,1.594 a 14.863,14.863 0 0 0 8.932,-0.773 c 1,-0.376 1.984,-0.828 2.959,-1.274 a 23.829,23.829 0 0 1 5.952,-2.151 c 6.69,-1.149 12.893,3.481 17.94,8 a 25.367,25.367 0 0 1 4.56,4.943 24.813,24.813 0 0 1 2.785,7.191 c 1.848,6.445 3.372,13.698 0.184,19.616 z"
     id="path43" />
  <path
     class="prefix__d"
     d="m 301.08489,352.13842 c -2.339,4.337 -6.878,7.038 -11.751,8.152 a 22.757,22.757 0 0 0 2.471,-11.946 c -0.418,-6.62 -3.328,-12.858 -7.038,-18.358 a 65.023,65.023 0 0 0 -7.755,-9.447 c -2.214,-2.228 -4.936,-4 -7.317,-6.036 a 23.821,23.821 0 0 1 5.952,-2.151 c 6.69,-1.149 12.893,3.481 17.94,8 a 25.363,25.363 0 0 1 4.56,4.943 24.811,24.811 0 0 1 2.785,7.191 c 1.817,6.485 3.344,13.735 0.153,19.652 z"
     id="path45" />
  <path
     class="prefix__e"
     d="m 45.449885,137.36842 a 7.206,7.206 0 0 0 -1.545,2.471 116.86,116.86 0 0 0 -9.816,40.112 4.01,4.01 0 0 1 -0.453,1.942 8.5,8.5 0 0 1 -1.023,1.107 3.843,3.843 0 0 0 0.654,5.569 c 1.149,-2.165 3.9,-2.868 6.342,-3.056 11.7,-0.926 23.133,4.518 34.87,4.107 -0.828,-2.861 -2.019,-5.611 -2.694,-8.507 -2.986,-12.858 4.462,-26.857 -0.1,-39.242 -0.912,-2.478 -2.437,-4.915 -4.838,-6 a 12.887,12.887 0 0 0 -3.1,-0.821 c -2.966,-0.536 -8.869,-2.826 -11.737,-1.907 -1.058,0.341 -1.476,1.337 -2.353,1.935 -1.33,0.856 -3.098,1.169 -4.207,2.29 z"
     fill="#59f"
     id="path47"
     style="fill:#000080" />
  <rect
     class="prefix__g"
     x="70.136887"
     y="162.70842"
     width="155.24001"
     height="98.852997"
     rx="7.9699998"
     fill="#ccc"
     id="rect49"
     style="fill:#cccccc" />
  <circle
     cx="147.40488"
     cy="212.13841"
     r="4.177"
     fill="#ffffff"
     id="circle51" />
  <path
     class="prefix__g"
     d="m 90.826885,14.320818 c -2.339,1.692 -3.94,4.121 -5.569,6.453 -3,4.309 -6.4,8.611 -11.194,11.013 -1.817,0.912 -3.891,1.6 -5.1,3.188 a 8.59,8.59 0 0 0 -1.358,3.571 70.766,70.766 0 0 0 -1.434,13.645 15.165,15.165 0 0 0 1.107,6.711 c 0.954,1.949 2.673,3.6 3.028,5.722 0.271,1.657 -0.341,3.307 -0.557,4.971 -0.216,1.664 0.16,3.634 1.7,4.427 a 10.3,10.3 0 0 0 2.576,0.606 c 4.629,1.03 6.182,6.46 6.885,10.95 1.573,-0.091 2.283,-1.894 2.611,-3.362 l 4.824,-21.448 c 0.522,-2.325 1.392,-5.019 3.71,-5.834 1.552,-0.536 3.251,-0.035 4.873,0.1 6.370005,0.522 11.758005,-4.4 17.989005,-5.757 a 22.972,22.972 0 0 1 6.063,-0.4 c 4.915,0.244 10.63,2.262 11.674,6.85 0.174,0.745 0.278,1.636 0.975,2 0.697,0.364 1.427,0.056 2.158,0 3.119,-0.313 4.957,3.2 5.855,6.063 l 3.272,10.442 c 0.487,1.58 1.309,3.439 3.021,3.641 1.58,0.195 2.924,-1.3 3.161,-2.785 a 12.2,12.2 0 0 0 -0.62,-4.511 c -1.538,-6.857 0.815,-13.874 2.249,-20.745 1.434,-6.871 1.692,-14.765 -3.119,-20.056 -1.747,-1.914 -4.045,-3.342 -5.674,-5.36 -1.518,-1.894 -2.374,-4.219 -3.947,-6.077 -4.351,-5.131 -15.51,-9.092 -22.353,-9.746 -7.815,-0.841 -20.485005,1.14 -26.806005,5.728 z"
     id="path53" />
  <g
     class="prefix__i"
     transform="translate(-11.710115,-121.77158)"
     id="g57">
    <path
       d="m 159.68,194.78 c -1.713,-0.209 -2.534,-2.088 -3.021,-3.641 q -1.636,-5.228 -3.272,-10.442 c -0.9,-2.875 -2.736,-6.384 -5.855,-6.063 -0.731,0.077 -1.518,0.362 -2.158,0 -0.64,-0.362 -0.8,-1.26 -0.975,-2 -1.044,-4.595 -6.76,-6.606 -11.674,-6.85 a 23.275,23.275 0 0 0 -6.063,0.4 c -6.231,1.392 -11.619,6.265 -17.989,5.757 -1.643,-0.132 -3.342,-0.634 -4.873,-0.1 -2.346,0.808 -3.188,3.481 -3.71,5.834 l -4.821,21.435 c -0.327,1.476 -1.037,3.279 -2.611,3.362 -0.7,-4.483 -2.256,-9.913 -6.885,-10.944 a 10.943,10.943 0 0 1 -2.576,-0.606 3.021,3.021 0 0 1 -1.344,-1.5 c -0.125,0.647 -0.271,1.295 -0.355,1.942 -0.209,1.657 0.16,3.634 1.7,4.428 a 10.3,10.3 0 0 0 2.576,0.606 c 4.629,1.03 6.182,6.46 6.885,10.95 1.573,-0.09 2.283,-1.894 2.611,-3.362 l 4.824,-21.448 c 0.522,-2.325 1.392,-5.019 3.71,-5.834 1.552,-0.536 3.251,-0.035 4.873,0.1 6.37,0.522 11.758,-4.4 17.989,-5.757 a 22.972,22.972 0 0 1 6.063,-0.4 c 4.915,0.244 10.63,2.262 11.674,6.85 0.174,0.745 0.278,1.636 0.975,2 0.697,0.364 1.427,0.056 2.158,0 3.119,-0.313 4.957,3.2 5.855,6.063 q 1.629,5.228 3.272,10.442 c 0.487,1.58 1.309,3.439 3.021,3.641 1.58,0.195 2.924,-1.3 3.161,-2.785 a 9.454,9.454 0 0 0 -0.418,-3.7 2.875,2.875 0 0 1 -2.743,1.608 z M 82.032,181.525 c -0.355,-2.123 -2.088,-3.773 -3.028,-5.722 a 11.451,11.451 0 0 1 -1.03,-4.177 c 0,0.78 -0.07,1.559 -0.077,2.346 a 15.165,15.165 0 0 0 1.107,6.711 c 0.773,1.58 2.047,2.973 2.687,4.581 a 10.484,10.484 0 0 0 0.341,-3.738 z m 82.438,-14.814 c -1.267,6.07 -3.244,12.252 -2.631,18.337 0.4,-4.49 1.706,-9.008 2.631,-13.464 a 35.5,35.5 0 0 0 0.808,-10.324 42.565,42.565 0 0 1 -0.808,5.451 z"
       id="path55" />
  </g>
</svg>
