<?xml version="1.0" encoding="UTF-8" standalone="no"?>
<!-- Created with Inkscape (http://www.inkscape.org/) -->

<svg
   width="101.95625mm"
   height="104.38577mm"
   viewBox="0 0 101.95625 104.38576"
   version="1.1"
   id="svg65478"
   inkscape:version="1.1.1 (3bf5ae0d25, 2021-09-20)"
   sodipodi:docname="project.svg"
   xmlns:inkscape="http://www.inkscape.org/namespaces/inkscape"
   xmlns:sodipodi="http://sodipodi.sourceforge.net/DTD/sodipodi-0.dtd"
   xmlns="http://www.w3.org/2000/svg"
   xmlns:svg="http://www.w3.org/2000/svg">
  <sodipodi:namedview
     id="namedview65480"
     pagecolor="#ffffff"
     bordercolor="#666666"
     borderopacity="1.0"
     inkscape:pageshadow="2"
     inkscape:pageopacity="0.0"
     inkscape:pagecheckerboard="0"
     inkscape:document-units="mm"
     showgrid="false"
     inkscape:zoom="1.2810466"
     inkscape:cx="44.885175"
     inkscape:cy="193.98202"
     inkscape:window-width="1920"
     inkscape:window-height="1013"
     inkscape:window-x="-9"
     inkscape:window-y="29"
     inkscape:window-maximized="1"
     inkscape:current-layer="layer5"
     fit-margin-top="0"
     fit-margin-left="0"
     fit-margin-right="0"
     fit-margin-bottom="0" />
  <defs
     id="defs65475" />
  <g
     inkscape:groupmode="layer"
     id="layer5"
     inkscape:label="drawing"
     style="display:inline"
     transform="translate(-54.771651,-103.20581)">
    <path
       style="fill:#f4d7ee;stroke:none;stroke-width:0.264583px;stroke-linecap:butt;stroke-linejoin:miter;stroke-opacity:1"
       d="m 108.63839,104.71418 c -1.85884,0 -61.34145,-9.087616 -53.079976,17.3491 8.261474,26.43672 19.001391,40.27469 13.83797,54.9388 -5.163423,14.66412 18.381779,32.83936 38.209316,30.36092 19.82754,-2.47844 34.90473,-6.81572 36.9701,-19.82754 2.06537,-13.01182 -2.27191,-21.68637 5.16342,-31.80667 7.43533,-10.12031 11.97914,-25.1975 -2.47844,-35.3178 -14.45758,-10.12031 -38.62239,-15.69681 -38.62239,-15.69681 z"
       id="path107175" />
    <path
       style="fill:none;stroke:#000000;stroke-width:0.264583px;stroke-linecap:butt;stroke-linejoin:miter;stroke-opacity:1"
       d="m 84.783379,178.91255 v 4.59544 l 1.537522,0.72602 1.515203,-0.47464 v -30.19451 l -8.443145,0.14604 0.146042,38.01698 1.588225,0.52941 1.350904,-0.42901 -0.0091,-37.2685 2.300187,0.10953 z"
       id="path65618" />
    <path
       style="fill:#253646;fill-opacity:1;stroke:none;stroke-width:0.264583px;stroke-linecap:butt;stroke-linejoin:miter;stroke-opacity:1"
       d="m 84.783379,178.91255 v 4.59544 c 1.226618,0.79564 1.746929,0.66042 3.052725,0.25138 v -30.19451 l -8.443145,0.14604 0.146042,38.01698 c 1.170087,0.58206 1.77106,0.47135 2.939129,0.1004 l -0.0091,-37.2685 2.300187,0.10953 z"
       id="path65620"
       sodipodi:nodetypes="cccccccccc" />
    <path
       style="fill:#253646;fill-opacity:1;stroke:none;stroke-width:0.264583px;stroke-linecap:butt;stroke-linejoin:miter;stroke-opacity:1"
       d="m 129.38068,178.80928 v 4.59544 c -1.22662,0.79564 -1.74693,0.66042 -3.05272,0.25138 v -30.19451 l 8.44314,0.14604 -0.19767,38.36551 c -1.17009,0.58206 -1.71943,0.44553 -2.8875,0.0746 l 0.009,-37.59121 -2.30018,0.10953 z"
       id="path65702"
       sodipodi:nodetypes="cccccccccc" />
    <path
       style="fill:#28546f;fill-opacity:1;stroke:none;stroke-width:0.264583px;stroke-linecap:butt;stroke-linejoin:miter;stroke-opacity:1"
       d="m 71.978093,151.90786 -0.02582,2.91733 h 70.506517 l 0.0258,-2.91733 z"
       id="path71677" />
    <path
       style="fill:#3a6987;fill-opacity:1;stroke:none;stroke-width:0.264583px;stroke-linecap:butt;stroke-linejoin:miter;stroke-opacity:1"
       d="m 71.978093,151.90786 h 70.506497 l -8.67213,-6.52144 -54.802866,0.14604 z"
       id="path75491"
       sodipodi:nodetypes="ccccc" />
    <rect
       style="fill:#ffffff;fill-opacity:1;stroke:#000000;stroke-width:1.03547;stroke-linejoin:round;stroke-miterlimit:4;stroke-dasharray:none;stroke-opacity:1"
       id="rect84293"
       width="47.956242"
       height="21.923719"
       x="80.044136"
       y="117.68715" />
    <rect
       style="display:inline;fill:#c6afe9;fill-opacity:1;stroke:none;stroke-width:3.68179;stroke-linejoin:round;stroke-miterlimit:4;stroke-dasharray:none;stroke-opacity:1"
       id="rect105385-0"
       width="20.486425"
       height="10.616794"
       x="89.17691"
       y="120.46561" />
    <rect
       style="display:inline;fill:#ffaacc;fill-opacity:1;stroke:none;stroke-width:0.191912;stroke-linejoin:round;stroke-miterlimit:4;stroke-dasharray:none;stroke-opacity:1"
       id="rect106299-2"
       width="0.1460436"
       height="38.938316"
       x="119.77874"
       y="-127.47726"
       transform="rotate(90)" />
    <rect
       style="fill:#eed7f4;fill-opacity:1;stroke:none;stroke-width:0.206217;stroke-linejoin:round;stroke-miterlimit:4;stroke-dasharray:none;stroke-opacity:1"
       id="rect105075"
       width="7.9706984"
       height="20.879808"
       x="80.568245"
       y="118.21288" />
    <rect
       style="display:inline;fill:#eed7f4;fill-opacity:1;stroke:none;stroke-width:0.124817;stroke-linejoin:round;stroke-miterlimit:4;stroke-dasharray:none;stroke-opacity:1"
       id="rect105075-7"
       width="38.938316"
       height="1.5658554"
       x="88.53894"
       y="118.21288" />
    <rect
       style="display:inline;fill:#d5d5ff;fill-opacity:1;stroke:none;stroke-width:0.44068;stroke-linejoin:round;stroke-miterlimit:4;stroke-dasharray:none;stroke-opacity:1"
       id="rect105303-1-2"
       width="8.7281332"
       height="0.35699707"
       x="111.35724"
       y="118.92007"
       inkscape:transform-center-x="-13.497231"
       inkscape:transform-center-y="0.10953271" />
    <rect
       style="display:inline;fill:#aa87de;fill-opacity:1;stroke:none;stroke-width:0.224132;stroke-linejoin:round;stroke-miterlimit:4;stroke-dasharray:none;stroke-opacity:1"
       id="rect105476-8-4-3"
       width="2.2577751"
       height="0.35699999"
       x="89.845406"
       y="134.15637" />
    <rect
       style="display:inline;fill:#afafe9;fill-opacity:1;stroke:none;stroke-width:0.222124;stroke-linejoin:round;stroke-miterlimit:4;stroke-dasharray:none;stroke-opacity:1"
       id="rect105476-8-4-6"
       width="2.2175024"
       height="0.35699999"
       x="111.91132"
       y="120.54229" />
    <rect
       style="display:inline;fill:#afafe9;fill-opacity:1;stroke:none;stroke-width:0.364152;stroke-linejoin:round;stroke-miterlimit:4;stroke-dasharray:none;stroke-opacity:1"
       id="rect105476-8-4-6-9"
       width="5.9598699"
       height="0.35699999"
       x="112.78758"
       y="121.48185" />
    <rect
       style="display:inline;fill:#afafe9;fill-opacity:1;stroke:none;stroke-width:0.335714;stroke-linejoin:round;stroke-miterlimit:4;stroke-dasharray:none;stroke-opacity:1"
       id="rect105476-8-4-6-93"
       width="5.0653529"
       height="0.35699999"
       x="112.78758"
       y="123.32445" />
    <rect
       style="display:inline;fill:#afafe9;fill-opacity:1;stroke:none;stroke-width:0.270747;stroke-linejoin:round;stroke-miterlimit:4;stroke-dasharray:none;stroke-opacity:1"
       id="rect105476-8-4-6-5"
       width="3.294574"
       height="0.35699999"
       x="111.91132"
       y="124.22749" />
    <rect
       style="display:inline;fill:#afafe9;fill-opacity:1;stroke:none;stroke-width:0.366376;stroke-linejoin:round;stroke-miterlimit:4;stroke-dasharray:none;stroke-opacity:1"
       id="rect105476-8-4-6-6"
       width="6.0328918"
       height="0.35699999"
       x="112.78758"
       y="126.03357" />
    <rect
       style="display:inline;fill:#afafe9;fill-opacity:1;stroke:none;stroke-width:0.34171;stroke-linejoin:round;stroke-miterlimit:4;stroke-dasharray:none;stroke-opacity:1"
       id="rect105476-8-4-6-2"
       width="5.2479076"
       height="0.35699999"
       x="112.78758"
       y="122.40314" />
    <rect
       style="display:inline;fill:#afafe9;fill-opacity:1;stroke:none;stroke-width:0.398759;stroke-linejoin:round;stroke-miterlimit:4;stroke-dasharray:none;stroke-opacity:1"
       id="rect105476-8-4-6-0"
       width="7.1464744"
       height="0.35699999"
       x="112.78758"
       y="125.11227" />
    <rect
       style="display:inline;fill:#afafe9;fill-opacity:1;stroke:none;stroke-width:0.288188;stroke-linejoin:round;stroke-miterlimit:4;stroke-dasharray:none;stroke-opacity:1"
       id="rect105476-8-4-6-55"
       width="3.7327049"
       height="0.35699999"
       x="112.78758"
       y="126.95486" />
    <rect
       style="display:inline;fill:#afafe9;fill-opacity:1;stroke:none;stroke-width:0.288188;stroke-linejoin:round;stroke-miterlimit:4;stroke-dasharray:none;stroke-opacity:1"
       id="rect105476-8-4-6-55-3"
       width="3.7327049"
       height="0.35699999"
       x="112.78758"
       y="127.87617" />
    <rect
       style="display:inline;fill:#afafe9;fill-opacity:1;stroke:none;stroke-width:0.234576;stroke-linejoin:round;stroke-miterlimit:4;stroke-dasharray:none;stroke-opacity:1"
       id="rect105476-8-4-6-55-3-2"
       width="2.4730787"
       height="0.35699999"
       x="111.91132"
       y="128.83398" />
    <rect
       style="display:inline;fill:#afafe9;fill-opacity:1;stroke:none;stroke-width:0.247222;stroke-linejoin:round;stroke-miterlimit:4;stroke-dasharray:none;stroke-opacity:1"
       id="rect105476-8-4-6-55-5"
       width="2.7469106"
       height="0.35699999"
       x="111.91132"
       y="130.67657" />
    <rect
       style="display:inline;fill:#afafe9;fill-opacity:1;stroke:none;stroke-width:0.288188;stroke-linejoin:round;stroke-miterlimit:4;stroke-dasharray:none;stroke-opacity:1"
       id="rect105476-8-4-6-55-6"
       width="3.7327049"
       height="0.35699999"
       x="113.08823"
       y="131.89969" />
    <rect
       style="display:inline;fill:#afafe9;fill-opacity:1;stroke:none;stroke-width:0.248042;stroke-linejoin:round;stroke-miterlimit:4;stroke-dasharray:none;stroke-opacity:1"
       id="rect105476-8-4-6-55-7"
       width="2.765166"
       height="0.35699999"
       x="111.91132"
       y="129.75528" />
    <path
       style="fill:#ffbacc;fill-opacity:1;stroke:none;stroke-width:0.265;stroke-linecap:butt;stroke-linejoin:miter;stroke-miterlimit:4;stroke-dasharray:none;stroke-opacity:1"
       d="m 91.678875,139.43514 -2.519251,6.718 c 0,0 -0.219064,1.24137 0.365109,2.44623 0.584174,1.20486 1.177478,2.2363 1.533459,2.54664 0.355981,0.31034 0.492897,0.62981 1.095327,0.50202 l 0.60243,-0.12778 1.341774,-0.76673 3.724113,-3.65109 17.477364,-0.25473 c 0,0 3.32472,4.16139 4.31052,4.50825 0.98579,0.34685 1.42392,0.1643 1.42392,0.1643 0,0 2.64704,-2.75658 2.30019,-4.60038 -0.34685,-1.8438 -2.51925,-7.92286 -2.51925,-7.92286 l -11.09932,-8.96343 c 0,0 -0.40162,-0.12779 -0.4929,-0.8215 -0.0913,-0.6937 -0.0182,-4.58211 -0.0182,-4.58211 l 2.53751,-2.48274 c 0,0 0.49289,0.0913 0.63894,-1.1501 0.14604,-1.24137 0.60469,-2.82131 -0.48609,-2.08553 -1.09077,0.73579 -2.65584,0.63456 -2.65584,0.63456 l -8.39701,0.10973 c 0,0 -1.336039,-1.02623 -0.9746,0.25817 0.36144,1.2844 1.2005,2.55589 1.2005,2.55589 0,0 0.11617,0.19363 0.23235,0.12263 0.11618,-0.071 0.41307,-0.27108 0.41307,-0.27108 l 1.73621,3.58213 -0.0129,3.36913 -0.46471,0.80033 z"
       id="path84587"
       sodipodi:nodetypes="ccsssccccscsccsccssccscsccccc" />
    <rect
       style="display:inline;fill:#ffaacc;fill-opacity:1;stroke:none;stroke-width:0.141648;stroke-linejoin:round;stroke-miterlimit:4;stroke-dasharray:none;stroke-opacity:1"
       id="rect106299"
       width="0.1460436"
       height="21.212833"
       x="110.70106"
       y="118.25882" />
    <rect
       style="display:inline;fill:#ffaacc;fill-opacity:1;stroke:none;stroke-width:0.140563;stroke-linejoin:round;stroke-miterlimit:4;stroke-dasharray:none;stroke-opacity:1"
       id="rect106299-1"
       width="0.1460436"
       height="20.889229"
       x="88.429405"
       y="118.20083" />
    <rect
       style="display:inline;fill:#aa87de;fill-opacity:1;stroke:none;stroke-width:0.37854;stroke-linejoin:round;stroke-miterlimit:4;stroke-dasharray:none;stroke-opacity:1"
       id="rect105476-8-4-9"
       width="6.4401464"
       height="0.35699999"
       x="89.845406"
       y="132.62469" />
    <rect
       style="display:inline;fill:#aa87de;fill-opacity:1;stroke:none;stroke-width:0.37702;stroke-linejoin:round;stroke-miterlimit:4;stroke-dasharray:none;stroke-opacity:1"
       id="rect105476-8-4-1"
       width="6.3885121"
       height="0.35699999"
       x="89.845406"
       y="133.39053" />
    <path
       style="fill:#000080;stroke:none;stroke-width:0.264583px;stroke-linecap:butt;stroke-linejoin:miter;stroke-opacity:1"
       d="m 103.09766,129.78713 c 3.02123,1.08955 3.60161,0.79719 6.54458,-0.0365 0,0 2.97564,0.36511 5.83262,1.50607 4.5825,1.40511 4.03002,3.53602 6.15208,8.05066 -1.48672,2.91459 -2.16253,3.51311 -5.2028,4.07097 l -19.852801,-0.073 c -3.569362,-0.21458 -4.025234,-0.89829 -5.586169,-4.0162 1.075942,-3.47569 1.139358,-6.53775 5.033756,-7.74346 1.75,-0.5418 3.820353,-1.47814 6.898014,-1.9134 z"
       id="path84802"
       sodipodi:nodetypes="cccccccscc" />
    <rect
       style="display:inline;fill:#d5d5ff;fill-opacity:1;stroke:none;stroke-width:0.480369;stroke-linejoin:round;stroke-miterlimit:4;stroke-dasharray:none;stroke-opacity:1"
       id="rect105303-1"
       width="10.371123"
       height="0.35699707"
       x="89.249893"
       y="118.92007"
       inkscape:transform-center-x="3.8310606"
       inkscape:transform-center-y="0.10953271" />
    <path
       style="fill:#000000;stroke:none;stroke-width:0.264583px;stroke-linecap:butt;stroke-linejoin:miter;stroke-opacity:1"
       d="m 103.50841,111.10268 c -0.21907,-0.0365 -1.97159,0.3651 -2.08112,0.98579 -0.10954,0.62069 -1.862059,3.06692 -1.862059,3.06692 0,0 -1.277882,0.73021 -0.438131,2.15414 0.83975,1.42392 1.71601,2.84785 1.97159,4.45433 0.25557,1.60648 0,2.19065 1.27788,3.46854 1.27788,1.27788 1.13184,1.20486 1.78904,1.38741 0.65719,0.18256 4.41781,0 4.41781,0 0,0 0.25558,0.21907 0.9858,-0.43813 2.25095,-2.47606 2.67349,-6.07633 2.81134,-9.89445 -0.14604,-1.05882 0,-1.89857 -1.60648,-3.28599 -1.60648,-1.38741 -2.62879,-1.64299 -3.43203,-1.09532 -0.80324,0.54766 -1.56997,-1.46044 -3.83364,-0.80324 z"
       id="path85611"
       sodipodi:nodetypes="cscsssscccssc" />
    <path
       style="display:inline;fill:#212178;stroke:none;stroke-width:0.264583px;stroke-linecap:butt;stroke-linejoin:miter;stroke-opacity:1"
       d="m 96.808659,167.42987 c -0.11866,0.0365 -1.396542,0.29209 -1.551715,0.89452 -0.15517,0.60243 -0.03651,1.3509 0.173427,1.56084 0.209938,0.20994 1.679503,1.15009 3.86103,0.95841 2.181529,-0.19168 2.181529,-0.19168 2.181529,-0.19168 l 5.84174,-0.24645 c 0,0 4.39044,0.41075 5.64094,0.41075 1.25049,0 3.51417,-0.10953 3.90666,-0.53854 0.39249,-0.429 0.77586,-0.70283 0.73022,-1.39654 -0.0456,-0.69371 0,-0.62068 -0.6572,-1.07707 -0.65719,-0.45639 -20.126631,-0.37424 -20.126631,-0.37424 z"
       id="path87329" />
    <path
       style="display:inline;fill:#002255;stroke:none;stroke-width:0.264583px;stroke-linecap:butt;stroke-linejoin:miter;stroke-opacity:1"
       d="m 96.352271,162.61956 c 0,0 -0.83975,2.04461 -0.620686,3.10343 0.219067,1.05881 0,1.78903 1.13184,2.51925 1.131838,0.73022 1.935078,1.3509 4.089225,1.13184 2.15414,-0.21907 4.92897,-0.36511 4.92897,-0.36511 0,0 4.56386,0.87626 6.64498,0.47464 2.08112,-0.40162 4.23527,-1.09533 4.41782,-2.04462 0.18256,-0.94928 0.073,-3.32248 -0.40162,-4.19874 -0.47464,-0.87626 -20.190529,-0.62069 -20.190529,-0.62069 z"
       id="path86862"
       sodipodi:nodetypes="cssscsssc" />
    <path
       style="display:inline;fill:#253646;fill-opacity:1;stroke:none;stroke-width:0.264583px;stroke-linecap:butt;stroke-linejoin:miter;stroke-opacity:1"
       d="m 95.316759,168.19845 c 0,0 -1.549027,1.67811 -1.419943,3.12387 0.129088,1.44576 0.490527,2.40099 1.187588,2.73661 0.697063,0.33563 1.549027,0.9036 3.433675,0.98105 1.884651,0.0775 6.376831,-0.12908 6.376831,-0.12908 l 9.19088,0.12908 c 0,0 3.17551,-0.18071 3.95002,-1.2134 0.77452,-1.03268 1.11014,-2.60753 0.46471,-3.95002 -0.64543,-1.34249 -1.01332,-1.64583 -1.01332,-1.64583 0,0 0.18938,1.6747 -0.79388,2.07181 -1.08925,0.43992 -8.08075,0.72288 -9.16507,-0.3098 -1.08432,-1.03269 -2.53008,0.28399 -2.53008,0.28399 0,0 -4.86083,0.51215 -6.480089,0.36144 -1.342665,-0.12497 -3.459492,-0.18072 -3.201322,-2.43972 z"
       id="path87709"
       sodipodi:nodetypes="csscccsscsscsc" />
    <path
       style="display:inline;fill:#1b313f;fill-opacity:1;stroke:none;stroke-width:0.264583px;stroke-linecap:butt;stroke-linejoin:miter;stroke-opacity:1"
       d="m 95.768098,147.94218 c 0,0 0.949283,-6.38941 2.263674,-7.95938 1.314395,-1.56997 5.075018,-4.05271 7.083118,-4.05271 2.0081,0 4.30828,-0.51115 6.93707,1.64299 2.62878,2.15414 3.94318,2.99389 4.70991,7.63078 0.76673,4.63688 1.86205,13.98367 1.86205,13.98367 0,0 -0.0365,2.6653 -1.42392,3.94318 -1.38742,1.27788 -4.27178,2.9939 -6.53545,2.9939 -2.26368,0 -2.30019,0.0365 -2.30019,0.0365 l -0.073,9.67539 -3.72412,0.10953 -0.14604,-9.67539 c 0,0 -7.192646,-0.6572 -8.799127,-3.21296 -1.606478,-2.55576 -1.168347,-3.94318 -0.83975,-7.92287 0.328599,-3.97968 0.985795,-7.19264 0.985795,-7.19264 z"
       id="path85888" />
    <path
       style="display:inline;fill:#253646;fill-opacity:1;stroke:none;stroke-width:0.264583px;stroke-linecap:butt;stroke-linejoin:miter;stroke-opacity:1"
       d="m 105.04187,175.36187 0.14604,11.68348 -4.12573,1.46044 c 0,0 -0.98216,0.37216 -1.459783,0.92723 -0.477615,0.55507 -2.594618,3.33041 -3.45949,3.95002 -0.864873,0.61961 -1.729748,0.83906 -1.432851,1.07141 0.296897,0.23235 0.490527,0.33562 0.490527,0.33562 0,0 -0.180721,0.80033 0.232351,1.26504 0.413076,0.46471 0.877782,1.00687 1.61357,0.50343 0.735787,-0.50343 0.903599,-0.70997 0.80033,-1.29085 -0.103267,-0.58089 -0.413073,-1.01978 -0.413073,-1.01978 l 2.943149,-3.11096 c 0,0 1.01978,-1.13595 1.63939,-1.23922 0.61961,-0.10327 2.62043,-0.81324 3.12387,-1.01978 0.50343,-0.20653 0.47761,-0.19362 0.47761,-0.19362 l 0.0904,7.66768 0.0387,0.14199 h 0.24526 l -0.0258,0.24526 c 0,0 -0.23236,0.21945 -0.21945,0.87778 0.0129,0.65834 0.33563,1.30377 0.49053,1.39413 0.1549,0.0904 0.7616,0.25817 0.99396,0.12908 0.23235,-0.12908 0.73579,-0.55506 0.70997,-1.03268 -0.0258,-0.47762 0.20653,-1.12305 -0.28399,-1.44576 -0.49052,-0.32271 -0.51634,-0.33562 -0.51634,-0.33562 l -0.0129,-7.66768 3.98874,1.39412 c 0,0 0.46471,0.19363 0.99396,0.78742 0.52925,0.5938 3.26586,3.40786 3.26586,3.40786 0,0 -0.50343,0.36144 -0.41307,1.03269 0.0904,0.67124 0.28399,1.32958 0.86487,1.41994 0.58089,0.0904 1.39412,-0.0387 1.60066,-0.65834 0.20654,-0.61961 0.21945,-0.98105 0.16781,-1.07141 -0.0516,-0.0904 0.4518,-0.36144 0.4518,-0.56798 0,-0.20653 -0.38725,-0.29689 -0.38725,-0.29689 0,0 -2.50426,-2.18155 -2.54299,-2.23318 -0.0387,-0.0516 -1.8201,-2.36227 -1.8201,-2.36227 0,0 -0.41308,-0.40016 -1.47158,-0.86487 -1.0585,-0.46471 -4.19528,-1.72975 -4.19528,-1.72975 l -0.0129,-11.66933 z"
       id="path90020" />
    <path
       style="display:inline;fill:#220055;fill-opacity:1;stroke:none;stroke-width:0.264583px;stroke-linecap:butt;stroke-linejoin:miter;stroke-opacity:1"
       d="m 110.53676,185.84049 c 0,0 0.23732,0.87626 0.80324,1.33265 0.56592,0.45639 1.0223,0.63894 1.36916,0.62069 0.34685,-0.0183 0.94928,-0.0548 1.1866,-0.71197 0.23732,-0.65719 0.23732,-1.25962 0.23732,-1.25962 z"
       id="path99378" />
    <path
       style="display:inline;fill:#220055;fill-opacity:1;stroke:none;stroke-width:0.264583px;stroke-linecap:butt;stroke-linejoin:miter;stroke-opacity:1"
       d="m 98.634202,185.85875 c 0,0 0.07302,0.98579 0.328599,1.25963 0.255577,0.27383 0.858007,0.83975 1.551709,0.58417 0.69371,-0.25558 1.35091,-0.45638 1.46044,-1.04056 0.10953,-0.58417 -0.31034,-1.11358 -0.31034,-1.11358 z"
       id="path99196" />
    <path
       style="display:inline;fill:#002255;fill-opacity:1;stroke:none;stroke-width:0.264583px;stroke-linecap:butt;stroke-linejoin:miter;stroke-opacity:1"
       d="m 109.18054,174.36874 0.95524,10.76573 c 0.6123,1.95175 4.13714,1.95472 4.33727,0.9036 0.12909,-1.13595 0.49053,-12.00495 0.49053,-12.00495 l -16.80694,-0.80033 0.154903,12.46966 c 1.018176,1.549 3.820317,1.42132 4.363087,-0.15491 l 1.4974,-11.30789 z"
       id="path94703"
       sodipodi:nodetypes="ccccccccc" />
    <path
       style="display:inline;fill:#000000;stroke:none;stroke-width:0.264583px;stroke-linecap:butt;stroke-linejoin:miter;stroke-opacity:1"
       d="m 127.78816,145.24037 c 0,0 -0.8215,0.87626 -0.60243,1.36916 0.29103,1.16358 0.90399,0.63215 1.92217,1.03208 0,0 1.18578,1.1273 1.9845,1.32287 1.22166,0.29912 2.58541,-0.40273 2.5731,-1.25206 -0.0116,-0.80103 -1.09441,-2.23473 -2.79217,-2.78239 -1.69776,-0.54767 -2.20891,-0.25558 -3.08517,0.31034 z"
       id="path103416"
       sodipodi:nodetypes="cccsssc" />
    <path
       style="display:inline;fill:#999999;stroke:none;stroke-width:0.264583px;stroke-linecap:butt;stroke-linejoin:miter;stroke-opacity:1"
       d="m 129.65022,145.40923 c -0.76547,-1.46024 -1.98083,0.66701 -2.30931,0.0776 0.60396,-0.67635 2.54926,-1.73828 2.30931,-0.0776 z"
       id="path103990"
       sodipodi:nodetypes="ccc" />
    <rect
       style="display:inline;fill:#ffffff;fill-opacity:1;stroke:none;stroke-width:0.199626;stroke-linejoin:round;stroke-miterlimit:4;stroke-dasharray:none;stroke-opacity:1"
       id="rect105303"
       width="1.7910616"
       height="0.35699707"
       x="81.38179"
       y="119.30408" />
    <rect
       style="display:inline;fill:#ffffff;fill-opacity:1;stroke:none;stroke-width:0.199626;stroke-linejoin:round;stroke-miterlimit:4;stroke-dasharray:none;stroke-opacity:1"
       id="rect105303-0"
       width="1.7910616"
       height="0.35699707"
       x="81.38179"
       y="124.15318" />
    <rect
       style="display:inline;fill:#aa87de;fill-opacity:1;stroke:none;stroke-width:0.205476;stroke-linejoin:round;stroke-miterlimit:4;stroke-dasharray:none;stroke-opacity:1"
       id="rect105385"
       width="1.8975573"
       height="0.35699999"
       x="81.38179"
       y="119.9968" />
    <rect
       style="display:inline;fill:#aa87de;fill-opacity:1;stroke:none;stroke-width:0.316374;stroke-linejoin:round;stroke-miterlimit:4;stroke-dasharray:none;stroke-opacity:1"
       id="rect105423"
       width="4.498631"
       height="0.35699999"
       x="81.38179"
       y="120.68954" />
    <rect
       style="display:inline;fill:#aa87de;fill-opacity:1;stroke:none;stroke-width:0.238019;stroke-linejoin:round;stroke-miterlimit:4;stroke-dasharray:none;stroke-opacity:1"
       id="rect105470"
       width="2.546212"
       height="0.35699999"
       x="81.38179"
       y="121.38226" />
    <rect
       style="display:inline;fill:#aa87de;fill-opacity:1;stroke:none;stroke-width:0.196729;stroke-linejoin:round;stroke-miterlimit:4;stroke-dasharray:none;stroke-opacity:1"
       id="rect105472"
       width="1.7394273"
       height="0.35699999"
       x="81.38179"
       y="122.075" />
    <rect
       style="display:inline;fill:#aa87de;fill-opacity:1;stroke:none;stroke-width:0.276793;stroke-linejoin:round;stroke-miterlimit:4;stroke-dasharray:none;stroke-opacity:1"
       id="rect105474"
       width="3.4433565"
       height="0.35699999"
       x="81.38179"
       y="122.76773" />
    <rect
       style="display:inline;fill:#aa87de;fill-opacity:1;stroke:none;stroke-width:0.219827;stroke-linejoin:round;stroke-miterlimit:4;stroke-dasharray:none;stroke-opacity:1"
       id="rect105476"
       width="2.171864"
       height="0.35699999"
       x="81.38179"
       y="123.46045" />
    <rect
       style="display:inline;fill:#aa87de;fill-opacity:1;stroke:none;stroke-width:0.219827;stroke-linejoin:round;stroke-miterlimit:4;stroke-dasharray:none;stroke-opacity:1"
       id="rect105476-3"
       width="2.171864"
       height="0.35699999"
       x="81.38179"
       y="124.84591" />
    <rect
       style="display:inline;fill:#aa87de;fill-opacity:1;stroke:none;stroke-width:0.313827;stroke-linejoin:round;stroke-miterlimit:4;stroke-dasharray:none;stroke-opacity:1"
       id="rect105476-8"
       width="4.4264121"
       height="0.35699999"
       x="81.38179"
       y="125.53864" />
    <rect
       style="display:inline;fill:#aa87de;fill-opacity:1;stroke:none;stroke-width:0.313827;stroke-linejoin:round;stroke-miterlimit:4;stroke-dasharray:none;stroke-opacity:1"
       id="rect105476-8-4"
       width="4.4264121"
       height="0.35699999"
       x="89.193176"
       y="131.77274" />
    <rect
       style="display:inline;fill:#aa87de;fill-opacity:1;stroke:none;stroke-width:0.219827;stroke-linejoin:round;stroke-miterlimit:4;stroke-dasharray:none;stroke-opacity:1"
       id="rect105476-5"
       width="2.171864"
       height="0.35699999"
       x="81.38179"
       y="126.23137" />
    <rect
       style="display:inline;fill:#aa87de;fill-opacity:1;stroke:none;stroke-width:0.219827;stroke-linejoin:round;stroke-miterlimit:4;stroke-dasharray:none;stroke-opacity:1"
       id="rect105476-5-2"
       width="2.171864"
       height="0.35699999"
       x="82.354958"
       y="126.80294" />
    <rect
       style="display:inline;fill:#aa87de;fill-opacity:1;stroke:none;stroke-width:0.279118;stroke-linejoin:round;stroke-miterlimit:4;stroke-dasharray:none;stroke-opacity:1"
       id="rect105476-5-2-1"
       width="3.5014451"
       height="0.35699999"
       x="82.354958"
       y="127.45353" />
    <rect
       style="display:inline;fill:#aa87de;fill-opacity:1;stroke:none;stroke-width:0.217198;stroke-linejoin:round;stroke-miterlimit:4;stroke-dasharray:none;stroke-opacity:1"
       id="rect105476-5-2-3"
       width="2.1202297"
       height="0.35699999"
       x="82.354958"
       y="128.10411" />
    <rect
       style="display:inline;fill:#aa87de;fill-opacity:1;stroke:none;stroke-width:0.184291;stroke-linejoin:round;stroke-miterlimit:4;stroke-dasharray:none;stroke-opacity:1"
       id="rect105476-5-2-0"
       width="1.5264363"
       height="0.35699999"
       x="82.354958"
       y="128.75471" />
    <rect
       style="display:inline;fill:#aa87de;fill-opacity:1;stroke:none;stroke-width:0.248064;stroke-linejoin:round;stroke-miterlimit:4;stroke-dasharray:none;stroke-opacity:1"
       id="rect105476-5-2-5"
       width="2.7656574"
       height="0.35699999"
       x="82.354958"
       y="129.4053" />
    <rect
       style="display:inline;fill:#aa87de;fill-opacity:1;stroke:none;stroke-width:0.219827;stroke-linejoin:round;stroke-miterlimit:4;stroke-dasharray:none;stroke-opacity:1"
       id="rect105476-5-2-9"
       width="2.171864"
       height="0.35699999"
       x="82.354958"
       y="130.05589" />
    <rect
       style="display:inline;fill:#aa87de;fill-opacity:1;stroke:none;stroke-width:0.196363;stroke-linejoin:round;stroke-miterlimit:4;stroke-dasharray:none;stroke-opacity:1"
       id="rect105476-5-2-9-9"
       width="1.7329732"
       height="0.35699999"
       x="81.412636"
       y="131.02403" />
    <rect
       style="display:inline;fill:#aa87de;fill-opacity:1;stroke:none;stroke-width:0.309377;stroke-linejoin:round;stroke-miterlimit:4;stroke-dasharray:none;stroke-opacity:1"
       id="rect105476-5-2-9-3"
       width="4.3017755"
       height="0.35699999"
       x="81.412636"
       y="131.66946" />
    <rect
       style="display:inline;fill:#aa87de;fill-opacity:1;stroke:none;stroke-width:0.260489;stroke-linejoin:round;stroke-miterlimit:4;stroke-dasharray:none;stroke-opacity:1"
       id="rect105476-5-2-9-8"
       width="3.0496457"
       height="0.35699999"
       x="81.412636"
       y="132.3149" />
    <rect
       style="display:inline;fill:#aa87de;fill-opacity:1;stroke:none;stroke-width:0.219827;stroke-linejoin:round;stroke-miterlimit:4;stroke-dasharray:none;stroke-opacity:1"
       id="rect105476-5-2-9-99"
       width="2.171864"
       height="0.35699999"
       x="81.412636"
       y="132.96033" />
    <rect
       style="display:inline;fill:#aa87de;fill-opacity:1;stroke:none;stroke-width:0.186614;stroke-linejoin:round;stroke-miterlimit:4;stroke-dasharray:none;stroke-opacity:1"
       id="rect105476-5-2-9-99-1"
       width="1.5651621"
       height="0.35699999"
       x="82.354958"
       y="133.55411" />
    <rect
       style="display:inline;fill:#aa87de;fill-opacity:1;stroke:none;stroke-width:0.186614;stroke-linejoin:round;stroke-miterlimit:4;stroke-dasharray:none;stroke-opacity:1"
       id="rect105476-5-2-9-99-0"
       width="1.5651603"
       height="0.35699999"
       x="82.354958"
       y="134.17372" />
    <rect
       style="display:inline;fill:#aa87de;fill-opacity:1;stroke:none;stroke-width:0.223712;stroke-linejoin:round;stroke-miterlimit:4;stroke-dasharray:none;stroke-opacity:1"
       id="rect105476-5-2-9-99-8"
       width="2.2493153"
       height="0.35699999"
       x="82.354958"
       y="134.79333" />
  </g>
</svg>
