<?xml version="1.0" encoding="UTF-8" standalone="no"?>
<!-- Created with Inkscape (http://www.inkscape.org/) -->

<svg
   width="207.50162mm"
   height="201.31114mm"
   viewBox="0 0 207.50162 201.31114"
   version="1.1"
   id="svg1360"
   inkscape:version="1.1.1 (3bf5ae0d25, 2021-09-20)"
   sodipodi:docname="reading.svg"
   xmlns:inkscape="http://www.inkscape.org/namespaces/inkscape"
   xmlns:sodipodi="http://sodipodi.sourceforge.net/DTD/sodipodi-0.dtd"
   xmlns="http://www.w3.org/2000/svg"
   xmlns:svg="http://www.w3.org/2000/svg">
  <sodipodi:namedview
     id="namedview1362"
     pagecolor="#ffffff"
     bordercolor="#666666"
     borderopacity="1.0"
     inkscape:pageshadow="2"
     inkscape:pageopacity="0.0"
     inkscape:pagecheckerboard="0"
     inkscape:document-units="mm"
     showgrid="false"
     inkscape:object-nodes="false"
     fit-margin-top="0"
     fit-margin-left="0"
     fit-margin-right="0"
     fit-margin-bottom="0"
     inkscape:zoom="0.90583672"
     inkscape:cx="253.35692"
     inkscape:cy="340.5691"
     inkscape:window-width="1920"
     inkscape:window-height="1013"
     inkscape:window-x="-9"
     inkscape:window-y="29"
     inkscape:window-maximized="1"
     inkscape:current-layer="layer2" />
  <defs
     id="defs1357">
    <filter
       style="color-interpolation-filters:sRGB"
       inkscape:label="Blur"
       id="filter1111"
       x="-0.022660856"
       y="-0.023388365"
       width="1.045388"
       height="1.0467764">
      <feGaussianBlur
         stdDeviation="2 2"
         result="fbSourceGraphic"
         id="feGaussianBlur1109" />
      <feColorMatrix
         result="fbSourceGraphicAlpha"
         in="fbSourceGraphic"
         values="0 0 0 -1 0 0 0 0 -1 0 0 0 0 -1 0 0 0 0 1 0"
         id="feColorMatrix1131" />
      <feGaussianBlur
         id="feGaussianBlur1133"
         stdDeviation="3 3"
         result="blur"
         in="fbSourceGraphic" />
    </filter>
  </defs>
  <g
     inkscape:groupmode="layer"
     id="layer2"
     inkscape:label="drawing"
     style="display:inline"
     transform="translate(-5.4255983,-24.925029)">
    <path
       id="path980"
       style="fill:#26465a;fill-opacity:1;stroke:#808080;stroke-width:10;stroke-linecap:butt;stroke-linejoin:miter;stroke-miterlimit:4;stroke-dasharray:none;stroke-opacity:1;filter:url(#filter1111)"
       d="m 198.77148,0.00195313 c -15.63457,-0.11964011 -37.44632,3.66432817 -53.71093,6.36328127 -9.24559,1.9319093 -7.72781,4.9667626 -10.76367,8.1406246 -3.03588,3.173859 -1.6568,7.039184 2.20703,11.041016 3.86383,4.00182 2.20781,3.44892 -0.41407,8.554687 -2.62188,5.105783 -3.44922,8.417969 -3.44922,8.417969 l 1.4961,19.558594 c -3.85173,0.767843 -11.64839,4.115382 -6.32617,18.804687 6.89969,19.043169 9.93554,19.318358 9.93554,19.318358 0,0 -1.31085,9.71991 -2.68945,19.81836 -13.30994,0.93284 -27.39258,4.33008 -27.39258,4.33008 0,0 -48.849312,9.24581 -60.716794,11.17773 -11.867479,1.93192 -18.90625,10.21094 -18.90625,10.21094 L 2.375,168.7832 c -6.1282764,8.37799 1.4185865,68.14925 2.4667969,82.80078 0,0 6.0497861,101.67337 7.2207031,120.2129 1.170917,18.53952 5.269531,26.3457 5.269531,26.3457 l 11.613281,23.78711 c -7.696211,4.71446 -12.073652,7.87879 -11.80664,14.28711 0.413983,9.93558 0.41401,29.66858 13.523437,42.91601 13.109428,13.24744 22.21875,19.18164 22.21875,19.18164 l -6.761718,36.01563 9.382812,11.86719 0.21875,0.006 11.957031,154.82813 c 7.285225,7.43577 15.358067,8.27861 24.351563,0.48828 l 10.886723,-153.94141 85.33203,2.48243 7.17968,109.84375 c 3.01001,6.81804 17.53934,7.87566 22.63086,0 l 6.35547,-108.79102 16.36524,0.47656 11.42187,169.02149 c 4.01832,7.69667 17.74901,8.7254 23.57031,0.59961 l 12.11329,-170.56446 c 7.78886,-1.35834 17.39698,-3.48136 28.83984,-6.79492 12.35179,-3.57677 20.12892,-5.9269 25.28906,-7.54492 l 22.92578,-5.75976 9.70117,134.375 c 5.53981,5.09193 14.38167,7.19135 22.58204,-0.0801 l 9.93554,-144.90039 0.0898,-0.0234 c 0,0 10.53812,-11.51342 7.02539,-25.56445 -1.17497,-4.69987 -2.2268,-10.20991 -3.125,-15.48829 4.25041,1.86847 9.01914,3.76895 14.17773,5.51172 8.0069,2.70503 37.05549,4.16943 69.36328,4.96289 l -13.05273,6.84375 h -0.10938 l -0.0332,0.0762 -0.0879,0.0449 0.0664,0.002 -11.38672,25.17383 c 0,0 -4.68252,7.4151 -0.97461,13.46484 3.11011,5.0744 2.51643,9.18638 10.18945,10.26563 l 13.08984,159.95508 c 5.65728,3.77461 11.23158,4.45873 17.66407,-0.2754 l 8.21484,-158.76757 c 9.67264,0.22944 20.5275,0.49912 32.5,0.80664 l 7.30664,122.63476 c 2.86677,4.42341 8.81957,6.88737 16.00781,2.20703 l 6.31641,-124.0664 c 24.21597,0.64239 46.92137,1.26376 66.94922,1.8164 l 13.66992,166.13282 c 6.71305,5.30676 10.34165,5.38536 16.55859,0.55078 l 11.26172,-165.5332 c 0.22042,0.006 2.94141,0.082 2.94141,0.082 0,0 1.17013,-0.19657 8.58594,-1.75782 1.27473,-0.26836 3.36927,-1.05757 5.94336,-2.16797 l 10.11328,135.84571 c 3.53495,4.11772 9.82881,4.3012 14.07617,1.3789 l 12.01953,-155.54687 c 0,0 4.87905,-7.41688 7.41602,-13.27148 2.537,-5.85457 -13.46485,-35.51758 -13.46485,-35.51758 l -43.5,-5.85938 c 4.53633,-7.78143 8.84146,-19.02918 10.55078,-24.66992 2.75989,-9.1076 -4.83007,-12.41992 -4.83007,-12.41992 0,0 -12.14311,-4.9679 -18.21485,-7.17578 -6.07173,-2.20793 -52.85156,10.07422 -52.85156,10.07422 l -8.83203,-0.41407 -9.4375,1.51367 -2.1543,-7.44726 L 491.88086,411.6875 459.82422,277.38477 c 0,0 -16.00745,-44.98604 -24.28711,-56.85352 -0.69006,-0.98909 -1.36789,-1.86665 -2.04102,-2.66211 1.28772,-1.37797 2.14803,-2.27135 2.24805,-2.30469 1.44896,-0.48298 2.00101,-3.58885 3.79492,-5.17578 1.62191,-1.43476 2.57871,-5.40052 2.75586,-6.18164 l 0.13281,-0.40039 c 0.0468,-0.0791 0.17986,-0.23371 0.49024,-0.51953 0.70611,-0.2349 2.49851,-1.0389 5.4707,-3.70703 1.21126,-2.21549 1.37669,-5.15219 0.86328,-8.48633 -0.12627,-0.88793 -0.25976,-1.47266 -0.25976,-1.47266 0,0 0.22036,-0.26491 0.41601,-0.5039 0.19187,-0.20546 0.42518,-0.49295 0.67188,-0.87305 1.08845,-1.48575 2.58866,-3.89193 2.5,-5.79883 -0.13799,-2.96687 2.27734,-3.93359 2.27734,-3.93359 0,0 -0.20848,-7.31255 -0.89844,-10.90039 -0.43983,-2.28707 -4.062,-7.97265 -6.64062,-11.81055 l 15.81836,-48.42383 -35.60352,-17.664059 -5.25976,-1.277344 -2.32227,9.261719 -15.43555,-3.017578 -30.05468,124.312502 12.82422,3.88672 c -0.009,0.0307 -0.0449,0.13671 -0.0449,0.13671 l -30.63476,44.15821 -28.63672,40.21875 -6.69141,-8.75586 -40.0957,-47.66211 4.21875,-3.11914 c 0,0 -5.77234,-7.67275 -11.05859,-14.68555 -0.68154,-33.88702 -1.36133,-68.25 -1.36133,-68.25 l -20.69922,-22.2168 -0.86914,-0.0312 c -2.87775,-2.82273 -5.76117,-5.43695 -7.41016,-6.31641 -4.13982,-2.2079 -17.66406,-4.41602 -17.66406,-4.41602 0,0 -9.74583,-1.53459 -21.50977,-3.36718 3.95197,-9.38827 8.26368,-20.0918 8.26368,-20.0918 0,0 11.83804,0.55801 8.00195,-11.867189 -2.70636,-8.765994 0.55273,-32.566406 0.55273,-32.566406 L 225.12109,45.75 c 0.89553,-0.394361 2.40464,-1.093396 5.08203,-2.402344 6.20973,-3.035871 6.07036,-5.382325 2.89649,-19.595703 C 229.92575,9.5385711 226.19968,9.952432 215.16016,3.0527344 211.70728,0.91735091 205.87811,0.05633499 198.77148,0.00195313 Z M 277.97461,346.81445 c 4.06423,4.33988 7.74239,8.12618 10.94336,11.36719 -2.04299,2.11964 -4.06326,4.08678 -5.94336,5.69141 -1.95152,-5.55201 -3.79028,-11.51708 -5,-17.0586 z m 129.13672,4.8125 c 0,0 3.8631,8.00239 12.9707,30.35743 3.21484,7.89095 5.20997,13.47639 6.4668,17.44726 l -18.89649,-3.54492 -0.0137,-1.45117 -11.66406,-15.40625 c 5.51217,-12.98381 11.13672,-27.40235 11.13672,-27.40235 z"
       transform="matrix(0.26458333,0,0,0.26458333,9.9234653,29.423187)" />
    <path
       style="fill:#26465a;fill-opacity:1;stroke:none;stroke-width:0.264583px;stroke-linecap:butt;stroke-linejoin:miter;stroke-opacity:1"
       d="m 19.569844,75.21246 -9.018193,-1.13184 6.791028,-6.09732 c 0,0 1.862056,-2.190654 5.001993,-2.701806 3.139938,-0.511154 16.064797,-2.957382 16.064797,-2.957382 0,0 6.498942,-1.569969 10.442118,-1.13184 3.943178,0.438131 20.957259,3.13994 20.957259,3.13994 0,0 3.578069,0.584173 4.673396,1.168347 1.095327,0.584176 4.256021,4.054675 4.256021,4.054675 C 66.759125,69.5036 60.482812,65.551563 49.383499,66.853428 38.306207,68.15271 33.586361,66.081065 26.941377,70.827481 20.296392,75.573899 19.569844,75.21246 19.569844,75.21246 Z"
       id="path2099"
       sodipodi:nodetypes="cccscscscssc" />
    <path
       style="fill:#325c76;fill-opacity:1;stroke:none;stroke-width:0.264583px;stroke-linecap:butt;stroke-linejoin:miter;stroke-opacity:1"
       d="m 10.551651,74.08062 8.862813,0.943894 7.228789,61.238176 -8.932718,5.06015 -3.201321,-6.55754 c 0,0 -1.084319,-2.06537 -1.394124,-6.97062 C 12.805285,122.88943 11.204624,95.988004 11.204624,95.988004 10.927285,92.111452 8.9302112,76.297297 10.551651,74.08062 Z"
       id="path6146"
       sodipodi:nodetypes="cccccscc" />
    <path
       style="fill:#c38151;fill-opacity:1;stroke:none;stroke-width:0.264583px;stroke-linecap:butt;stroke-linejoin:miter;stroke-opacity:1"
       d="m 73.532957,173.93794 3.118551,46.14687 c 1.063179,2.03641 4.69612,2.30852 6.23634,0.15857 l 3.350903,-47.1817 z"
       id="path19316"
       sodipodi:nodetypes="ccccc" />
    <path
       style="fill:#985b3e;fill-opacity:1;stroke:none;stroke-width:0.264583px;stroke-linecap:butt;stroke-linejoin:miter;stroke-opacity:1"
       d="m 59.658815,173.86492 1.971588,30.158 c 0.796396,1.80394 4.640656,2.08377 5.987788,0 l 1.825546,-31.25333 z"
       id="path19318"
       sodipodi:nodetypes="ccccc" />
    <path
       style="fill:#c38151;fill-opacity:1;stroke:none;stroke-width:0.264583px;stroke-linecap:butt;stroke-linejoin:miter;stroke-opacity:1"
       d="m 37.24112,173.06168 -2.968457,41.97172 c -2.379529,2.06119 -4.515327,1.8383 -6.442876,-0.12908 l -3.513526,-45.49373 z"
       id="path19320"
       sodipodi:nodetypes="ccccc" />
    <path
       style="fill:#985b3e;fill-opacity:1;stroke:none;stroke-width:0.264583px;stroke-linecap:butt;stroke-linejoin:miter;stroke-opacity:1"
       d="m 106.24673,166.56274 2.80065,38.78786 c 1.46574,1.34724 3.80481,1.9025 5.97449,-0.0214 l 2.90834,-42.41757 z"
       id="path19322"
       sodipodi:nodetypes="ccccc" />
    <path
       style="fill:#325b76;fill-opacity:1;stroke:none;stroke-width:0.264583px;stroke-linecap:butt;stroke-linejoin:miter;stroke-opacity:1"
       d="m 85.40299,161.71836 0.61961,13.21836 31.65177,-7.95167 c 0,0 2.78825,-3.04642 1.85884,-6.76409 -0.92942,-3.71766 -1.60066,-9.39742 -1.60066,-9.39742 l -0.15491,-17.03929 -5.62813,-7.43533 -27.83084,-0.20654 c 0,0 -1.549025,-4.3889 -1.135952,-6.40264 0.413073,-2.01373 -10.275207,-11.82423 -10.275207,-11.82423 l 4.853614,20.91185 z"
       id="path17872" />
    <path
       style="fill:#1b313f;fill-opacity:1;stroke:none;stroke-width:0.264583px;stroke-linecap:butt;stroke-linejoin:miter;stroke-opacity:1"
       d="m 19.414464,75.024514 5.705037,59.189566 61.922491,-2.92087 c 0,0 -3.797135,-8.21495 -3.943177,-12.74231 -0.146044,-4.52735 -0.949282,-45.492585 -0.949282,-45.492585 L 76.672894,67.18006 39.285732,65.865668 c 0,0 -6.718006,0.146045 -10.223052,2.920873 -3.505048,2.774828 -9.648216,6.237973 -9.648216,6.237973 z"
       id="path1929"
       sodipodi:nodetypes="cccscccsc" />
    <path
       style="fill:#376481;fill-opacity:1;stroke:none;stroke-width:0.264583px;stroke-linecap:butt;stroke-linejoin:miter;stroke-opacity:1"
       d="m 27.054579,137.13495 c 0,0 -0.839751,-1.97159 -5.367103,1.27788 -4.527352,3.24947 -7.338691,3.79714 -7.229159,6.42592 0.109533,2.62879 0.109533,7.84984 3.578069,11.35489 3.468536,3.50505 5.878255,5.07502 5.878255,5.07502 l -1.789034,9.52934 2.482741,3.13994 55.204486,1.60648 -0.07302,-12.99788 -6.645633,-27.60191 z"
       id="path10368"
       sodipodi:nodetypes="csssccccccc" />
    <path
       style="fill:#325b76;fill-opacity:1;stroke:none;stroke-width:0.264583px;stroke-linecap:butt;stroke-linejoin:miter;stroke-opacity:1"
       d="m 73.423851,138.43133 -0.36144,9.03598 1.032685,6.91899 5.26669,7.95167 -0.929415,9.50069 1.088374,3.88831 c 0,0 4.746418,0.3286 14.202743,-2.40971 9.456322,-2.73832 9.237262,-2.88437 9.237262,-2.88437 l -17.525237,-8.90866 1.413235,-15.81248 c 0,0 0.567976,-0.82615 -1.910466,-4.02747 -2.478442,-3.20132 -3.407858,-4.54381 -3.407858,-4.54381 l -6.402644,0.0516 z"
       id="path13812" />
    <path
       style="fill:#ffbacc;fill-opacity:1;stroke:none;stroke-width:0.264583px;stroke-linecap:butt;stroke-linejoin:miter;stroke-opacity:1"
       d="m 46.368845,55.934702 c 0,0 -1.387414,10.296075 -1.533456,11.099316 -0.146045,0.80324 -5.914766,9.857943 -5.914766,9.857943 l 16.210841,8.762616 10.15003,-8.689593 c 0,0 -4.673396,-1.606482 -5.257569,-3.285983 -0.584177,-1.6795 -1.16835,-6.279874 -1.16835,-6.279874 0,0 2.993895,1.095327 4.0162,-1.095328 1.022305,-2.190654 3.432024,-8.178442 3.432024,-8.178442 0,0 3.132598,0.147563 2.117633,-3.139938 -0.716059,-2.319336 0.146042,-8.616574 0.146042,-8.616574 l 1.095327,-5.768721 -2.482741,-5.476637 -16.283861,1.022305 -4.965483,9.63888 c 0,0 -4.0162,0 -2.190654,5.038505 1.825545,5.038505 2.628783,5.111525 2.628783,5.111525 z"
       id="path29711"
       sodipodi:nodetypes="cscccscscscccccsc" />
    <path
       style="display:inline;fill:#6390d4;fill-opacity:1;stroke:none;stroke-width:0.264583px;stroke-linecap:butt;stroke-linejoin:miter;stroke-opacity:1"
       d="m 121.44367,55.351878 -4.49218,-0.877782 -7.95166,32.890994 8.51964,2.581709 z"
       id="path46645" />
    <path
       style="display:inline;fill:#ffffff;stroke:none;stroke-width:0.264583px;stroke-linecap:butt;stroke-linejoin:miter;stroke-opacity:1"
       d="m 122.63126,56.384562 -5.11179,-0.929417 -7.5386,30.360918 3.97584,1.755564 z"
       id="path49177" />
    <path
       style="display:inline;fill:#87aade;stroke:none;stroke-width:0.264583px;stroke-linecap:butt;stroke-linejoin:miter;stroke-opacity:1"
       d="m 132.46155,57.83327 -10.7342,32.859813 -7.88636,-3.359005 9.20075,-34.174204 z"
       id="path43824" />
    <path
       style="fill:#ffbacc;fill-opacity:1;stroke:none;stroke-width:0.264583px;stroke-linecap:butt;stroke-linejoin:miter;stroke-opacity:1"
       d="m 83.317881,94.636261 11.610466,13.801119 5.914763,7.74031 12.19464,-24.754389 7.95938,-4.965483 1.97159,-1.460436 1.24137,-3.139938 c 0,0 -1.20486,-5.367102 -1.15009,-6.590218 0.0548,-1.223115 0.71196,-2.336699 0.71196,-2.336699 l 0.41988,0.127788 c 0,0 -0.0183,-0.87626 0.18255,-1.259625 0.20081,-0.383366 0.6572,-1.186604 0.6572,-1.186604 l 0.58417,1.186604 0.8215,-1.405671 0.51115,0.89452 0.29209,-1.277882 0.34685,-0.365109 c 0,0 2.26367,3.176447 2.44623,4.125732 0.18255,0.949283 0.23732,2.884361 0.23732,2.884361 0,0 -0.63894,0.255576 -0.60243,1.040561 0.0365,0.784984 -0.94928,1.898565 -0.94928,1.898565 0,0 0.5294,2.227165 -0.58418,2.902617 -1.11358,0.675452 -1.16835,0.876263 -1.16835,0.876263 0,0 -0.27383,1.296135 -0.74847,1.71601 -0.47464,0.419876 -0.62068,1.241373 -1.00405,1.369161 -0.38337,0.127788 -36.196756,40.355812 -36.196756,40.355812 0,0 -5.989569,-5.67976 -10.946453,-11.7726 -4.956884,-6.09284 -12.185673,-9.39743 -12.185673,-9.39743 z"
       id="path24985" />
    <path
       style="display:inline;fill:#6390d4;fill-opacity:1;stroke:none;stroke-width:0.264583px;stroke-linecap:butt;stroke-linejoin:miter;stroke-opacity:1"
       d="m 123.04174,53.159874 -1.39153,-0.338074 -8.77782,35.007996 0.9686,-0.49572 z"
       id="path43925" />
    <path
       style="display:inline;fill:#002255;fill-opacity:1;stroke:#002e73;stroke-width:0.264583px;stroke-linecap:butt;stroke-linejoin:miter;stroke-opacity:1"
       d="m 76.599874,129.6137 c 0,0 4.527352,-1.53345 7.156135,-3.13993 2.628787,-1.60648 7.521247,-8.10542 7.521247,-8.10542 l 12.997884,-18.25546 8.10542,-11.683484 c 0,0 0.65719,-2.628784 4.74642,-2.847851 4.08922,-0.219064 5.84174,-0.949283 8.03239,2.190655 2.19066,3.139937 6.42592,15.04249 6.42592,15.04249 l 9.63888,40.38106 -17.89034,-5.6957 c 0,0 0.14604,-1.09533 -2.26368,-7.01009 -2.40972,-5.91477 -3.43202,-8.0324 -3.43202,-8.0324 0,0 -4.60038,11.82953 -5.54966,12.55975 -0.94928,0.73022 -33.66305,-0.21907 -33.66305,-0.21907 z"
       id="path36627" />
    <path
       style="display:inline;fill:#c48151;fill-opacity:1;stroke:none;stroke-width:0.264583px;stroke-linecap:butt;stroke-linejoin:miter;stroke-opacity:1"
       d="m 181.02105,172.62355 3.79714,46.14978 c 1.77616,1.40408 2.73641,1.42519 4.38131,0.14604 l 3.13993,-46.14978 z"
       id="path49693"
       sodipodi:nodetypes="ccccc" />
    <path
       style="display:inline;fill:#975a3d;fill-opacity:1;stroke:none;stroke-width:0.264583px;stroke-linecap:butt;stroke-linejoin:miter;stroke-opacity:1"
       d="m 155.53645,172.25844 2.04461,34.32025 c 0.7585,1.17036 2.33337,1.82251 4.23526,0.58417 l 1.82555,-35.85371 z"
       id="path49697"
       sodipodi:nodetypes="ccccc" />
    <path
       style="display:inline;fill:#c67f52;fill-opacity:1;stroke:none;stroke-width:0.264583px;stroke-linecap:butt;stroke-linejoin:miter;stroke-opacity:1"
       d="m 136.55078,171.38218 3.65109,44.61632 c 1.49682,0.9987 2.97146,1.17957 4.67339,-0.073 l 2.26368,-43.74006 z"
       id="path49695"
       sodipodi:nodetypes="ccccc" />
    <path
       style="display:inline;fill:#985b3e;fill-opacity:1;stroke:none;stroke-width:0.264583px;stroke-linecap:butt;stroke-linejoin:miter;stroke-opacity:1"
       d="m 196.64772,172.03937 2.82959,38.00786 c 0.93529,1.08948 2.60034,1.13829 3.72412,0.3651 l 3.18052,-41.15538 z"
       id="path49699"
       sodipodi:nodetypes="ccccc" />
    <path
       style="display:inline;fill:#26465a;fill-opacity:1;stroke:none;stroke-width:0.264583px;stroke-linecap:butt;stroke-linejoin:miter;stroke-opacity:1"
       d="m 204.78129,156.3484 c 0,0 4.23401,7.8484 3.56276,9.39742 -0.67124,1.54903 -1.9621,3.51113 -1.9621,3.51113 0,0 -9.19089,5.00852 -11.15299,5.42159 -1.9621,0.41308 -2.2719,0.46471 -2.2719,0.46471 l -0.46471,-14.35431 z"
       id="path49576"
       sodipodi:nodetypes="cscsccc" />
    <path
       style="display:inline;fill:#376481;fill-opacity:1;stroke:none;stroke-width:0.264583px;stroke-linecap:butt;stroke-linejoin:miter;stroke-opacity:1"
       d="m 137.32764,160.70504 -3.02705,6.69308 c 0,0 -1.23922,1.9621 -0.25817,3.56276 0.98105,1.60066 0.56797,2.83988 4.13074,2.78825 3.56276,-0.0516 54.7839,1.39412 54.7839,1.39412 l 1.54903,-14.23168 z"
       id="path49578"
       sodipodi:nodetypes="ccssccc" />
    <path
       style="display:inline;fill:#325b76;fill-opacity:1;stroke:none;stroke-width:0.264583px;stroke-linecap:butt;stroke-linejoin:miter;stroke-opacity:1"
       d="m 137.29537,160.73731 12.70202,-6.66082 42.13352,0.56798 12.65038,1.70393 -10.68828,5.57649 z"
       id="path49574"
       sodipodi:nodetypes="cccccc" />
    <path
       style="display:inline;fill:#e6e6e6;stroke:none;stroke-width:0.264583px;stroke-linecap:butt;stroke-linejoin:miter;stroke-opacity:1"
       d="m 169.7757,146.26268 3.87015,-0.62069 2.3367,0.10953 c 0,0 12.3772,-3.24947 13.98368,-2.66529 1.60648,0.58417 4.81944,1.89856 4.81944,1.89856 0,0 2.0081,0.87627 1.27788,3.28599 -0.73022,2.40971 -3.24947,8.68959 -4.92898,8.7261 -1.6795,0.0365 -19.86193,-2.73832 -19.86193,-2.73832 z"
       id="path49359" />
    <path
       style="display:inline;fill:#002255;fill-opacity:1;stroke:#002e73;stroke-width:0.264583px;stroke-linecap:butt;stroke-linejoin:miter;stroke-opacity:1"
       d="m 80.689094,131.9504 c 0,0 0.949283,-0.73022 2.920873,0.43813 1.971588,1.16835 2.701806,0.6572 2.701806,0.6572 l 26.652957,0.21906 57.61421,10.80723 2.55576,8.83564 -3.72411,6.20685 c 0,0 -41.54941,0.29209 -46.95302,-1.53345 -5.40362,-1.82555 -9.20075,-4.30829 -9.20075,-4.30829 0,0 -14.16623,6.3529 -18.401495,7.01009 -4.235265,0.6572 -9.200748,1.09533 -9.200748,1.09533 l 1.16835,-16.94106 -5.403614,-7.66729 -4.08922,-2.11763 z"
       id="path35620" />
    <path
       style="fill:#000080;stroke:none;stroke-width:0.264583px;stroke-linecap:butt;stroke-linejoin:miter;stroke-opacity:1"
       d="m 40.673146,74.117133 c 0,0 5.987788,3.285979 9.127726,4.600374 3.139937,1.314392 8.616571,2.04461 11.026291,-0.292087 2.409721,-2.336699 2.336699,-2.336699 2.336699,-2.336699 0,0 11.3914,4.746418 13.216945,7.010093 1.825546,2.263677 9.054706,11.902553 9.054706,11.902553 l -8.39751,6.206853 -2.92087,4.38131 0.511151,9.78492 7.594269,16.94106 -3.432027,1.75253 -53.817069,-8.90867 -3.943177,-16.50292 -1.095327,-0.29209 -1.460436,-3.06692 c 0,0 -1.533458,0.14605 2.555763,-11.026288 4.089221,-11.172338 4.235265,-11.464425 4.235265,-11.464425 z"
       id="path24489" />
    <path
       style="fill:#ffbacc;fill-opacity:1;stroke:none;stroke-width:0.264583px;stroke-linecap:butt;stroke-linejoin:miter;stroke-opacity:1"
       d="m 20.373084,105.22442 0.146043,19.93495 c 0,0 -1.022305,5.62268 1.095327,8.47053 2.117633,2.84785 3.066916,5.98779 8.83564,5.54966 5.768721,-0.43813 37.022055,-3.57807 37.022055,-3.57807 0,0 1.533456,1.75252 2.190652,2.3367 0.657199,0.58417 1.460437,2.55576 1.825546,2.62878 0.365109,0.073 0.657196,3.72412 0.657196,3.72412 0,0 -1.387415,2.33669 -1.387415,3.43202 0,1.09533 1.022305,2.11763 1.022305,2.11763 l 3.285983,-5.18454 c 0,0 -0.949283,2.33669 -0.657196,3.359 0.292086,1.0223 1.971587,2.11763 1.971587,2.11763 0,0 1.632677,-5.18379 1.15506,-6.24229 0.782327,3.70166 -1.600288,5.28764 1.254659,5.36603 0.511154,0 0.438132,-6.86405 0.438132,-6.86405 1.191894,4.81392 -0.221364,5.07981 2.117632,5.03851 l -0.438131,-7.08312 -1.314392,-3.06692 c 0,0 2.117632,0.6572 2.847851,0.073 0.730218,-0.58417 0.949282,-1.38741 0.949282,-1.38741 0,0 -4.235264,-2.19065 -5.622679,-4.45433 -1.387414,-2.26368 -2.774828,-5.91476 -5.914765,-5.62268 -3.139938,0.29209 -34.393269,-2.26367 -34.393269,-2.26367 l 1.606478,-13.94717 c 0,0 -10.661184,-4.67339 -13.216946,-4.45433 -2.555763,0.21907 -5.476635,0 -5.476635,0 z"
       id="path24671"
       sodipodi:nodetypes="ccsscsscsccscccccccscssccscc" />
    <path
       style="fill:#000000;stroke:none;stroke-width:0.264583px;stroke-linecap:butt;stroke-linejoin:miter;stroke-opacity:1"
       d="m 52.283613,38.409469 -1.168349,7.119626 c 0,0 0.07302,1.460436 -1.20486,1.752523 -1.277882,0.292089 -3.17645,-0.657196 -3.870156,-1.168347 -0.693708,-0.511154 -0.584173,0.292087 -0.584173,0.292087 l -0.438132,-5.732212 c 0,0 0.219065,-0.876262 0.912773,-2.227167 0.693706,-1.350901 1.131837,-1.204859 0.109532,-2.263674 -1.022305,-1.058818 -1.387414,-2.081123 -0.584173,-2.920873 0.803238,-0.839751 0.401619,-1.642991 2.847848,-2.154142 6.259411,-1.038688 15.624105,-2.684221 18.54754,-0.876263 2.920873,1.825545 3.906665,1.716013 4.746416,5.476637 0.839753,3.760623 0.876263,4.381306 -0.766728,5.184547 -1.642991,0.80324 -1.679501,0.766728 -1.679501,0.766728 0,0 -0.730218,-3.432024 -1.241372,-3.760623 -0.511151,-0.328597 -5.732211,-2.04461 -10.296073,-0.985793 -4.563864,1.058815 -5.330592,1.496946 -5.330592,1.496946 z"
       id="path35343"
       sodipodi:nodetypes="ccssccsssccsscssc" />
    <path
       style="display:inline;fill:none;stroke:#ffa3bb;stroke-width:0.264583px;stroke-linecap:butt;stroke-linejoin:miter;stroke-opacity:1"
       d="m 127.0113,71.240629 c 0,0 1.90686,2.469479 2.3324,4.919836 0.46212,2.660997 -0.6384,3.413586 -0.6384,3.413586"
       id="path85493"
       sodipodi:nodetypes="csc" />
    <path
       style="display:inline;fill:none;stroke:#ffa3bb;stroke-width:0.264583px;stroke-linecap:butt;stroke-linejoin:miter;stroke-opacity:1"
       d="m 124.22566,73.119774 c 0,0 2.67156,5.956376 2.74287,8.255747 0.0767,2.472716 -0.96279,3.848045 -0.96279,3.848045"
       id="path85489"
       sodipodi:nodetypes="csc" />
    <path
       style="display:inline;fill:none;stroke:#ffa3bb;stroke-width:0.264583px;stroke-linecap:butt;stroke-linejoin:miter;stroke-opacity:1"
       d="m 124.99703,70.808224 c 1.151,2.759768 4.95158,8.880231 3.56273,11.420558 -1.0452,0.938274 -1.53963,1.00557 -1.53963,1.00557 l -0.10326,0.309806"
       id="path85491"
       sodipodi:nodetypes="cccc" />
    <path
       style="display:inline;fill:none;stroke:#ffa3bb;stroke-width:0.264583px;stroke-linecap:butt;stroke-linejoin:miter;stroke-opacity:1"
       d="m 75.12778,139.36074 c 0,0 1.768474,2.93025 -1.342487,7.22879 -2.27549,3.14414 -1.987919,3.11096 -1.987919,3.11096"
       id="path91136"
       sodipodi:nodetypes="csc" />
    <path
       style="display:inline;fill:none;stroke:#ffa3bb;stroke-width:0.264583px;stroke-linecap:butt;stroke-linejoin:miter;stroke-opacity:1"
       d="m 77.244783,138.8444 c 0,0 1.316674,1.97501 0.322707,6.27355 -1.048035,4.53236 -1.187586,5.00852 -1.187586,5.00852"
       id="path91138"
       sodipodi:nodetypes="csc" />
    <path
       style="display:inline;fill:none;stroke:#ffa3bb;stroke-width:0.264583px;stroke-linecap:butt;stroke-linejoin:miter;stroke-opacity:1"
       d="m 78.742175,138.57332 c 0,0 0.890751,6.50955 0.167811,10.7141"
       id="path91140"
       sodipodi:nodetypes="cc" />
    <path
       style="display:inline;fill:none;stroke:#ffa3bb;stroke-width:0.264583px;stroke-linecap:butt;stroke-linejoin:miter;stroke-opacity:1"
       d="m 74.404903,126.7749 c 0,0 3.033509,5.26669 3.446582,6.24774 0.413073,0.98105 1.445757,3.51113 1.445757,4.23401 0,0.72288 1.572107,1.79869 1.768474,5.87339 l 0.206533,4.28564"
       id="path91142"
       sodipodi:nodetypes="csssc" />
    <path
       style="display:inline;fill:#000000;stroke:none;stroke-width:0.264583px;stroke-linecap:butt;stroke-linejoin:miter;stroke-opacity:1"
       d="m 65.573581,44.835389 -0.657196,1.058815 -7.192647,-0.985793 c 0,0 0.908843,-0.84425 5.878255,-0.292089 z"
       id="path101126"
       sodipodi:nodetypes="cccsc" />
  </g>
</svg>
